<?xml version="1.0" encoding="UTF-8" standalone="no"?><svg xmlns="http://www.w3.org/2000/svg"  data-page="0" height="279.4mm" viewBox="0 0 1381.7600000000002 1788.1599999999999" width="215.90000000000003mm"><g style="font-size:6.25px;"></g><g style="font-size:6.25px;"><g><g><g><line x1="205.6" x2="1284.1600000000003" y1="127.6" y2="127.6" stroke="#6A6A6A" stroke-width="1.3"></line><line x1="205.6" x2="1284.1600000000003" y1="117.6" y2="117.6" stroke="#6A6A6A" stroke-width="1.3"></line><line x1="205.6" x2="1284.1600000000003" y1="107.6" y2="107.6" stroke="#6A6A6A" stroke-width="1.3"></line><line x1="205.6" x2="1284.1600000000003" y1="97.6" y2="97.6" stroke="#6A6A6A" stroke-width="1.3"></line><line x1="205.6" x2="1284.1600000000003" y1="87.6" y2="87.6" stroke="#6A6A6A" stroke-width="1.3"></line></g></g><text x="213.6" y="117.6" fill="#000000" font-size="40" font-family='bravura'></text><g></g><text x="270.1" y="107.6" fill="#000000" font-size="40" font-family='bravura'></text><g x="313.1" y="107.6" transform="translate(313.1,107.6)"><g><g><text x="0" y="30" fill="#000000" font-size="40" font-family='bravura'></text></g><line x1="12.48" x2="12.48" y1="28.16" y2="-6.84" stroke="#000000" stroke-width="1.6"></line><g><text x="-18" y="30" fill="#000000" font-size="40" font-family='bravura'></text><rect data-selection-info="accidental-0" width="4" height="5" x="-19.2" y="27.5" fill="transparent" class="mn_handle"></rect></g><line x1="-3.2" x2="18.72" y1="30" y2="30" stroke="#000000" stroke-width="2.2"></line></g></g><g x="375.4087535938238" y="107.6" transform="translate(375.4087535938238,107.6)"><g><g><text x="0" y="25" fill="#000000" font-size="40" font-family='bravura'></text></g><line x1="12.48" x2="12.48" y1="23.16" y2="-11.84" stroke="#000000" stroke-width="1.6"></line><g><text x="-12" y="25" fill="#000000" font-size="40" font-family='bravura'></text><rect data-selection-info="accidental-0" width="4" height="5" x="-13.2" y="22.5" fill="transparent" class="mn_handle"></rect></g></g></g><g x="437.7175071876475" y="107.6" transform="translate(437.7175071876475,107.6)"><g><g><text x="0" y="20" fill="#000000" font-size="40" font-family='bravura'></text></g><line x1="12.48" x2="12.48" y1="18.16" y2="-16.84" stroke="#000000" stroke-width="1.6"></line><g><text x="-12" y="20" fill="#000000" font-size="40" font-family='bravura'></text><rect data-selection-info="accidental-0" width="4" height="5" x="-13.2" y="17.5" fill="transparent" class="mn_handle"></rect></g></g></g><g x="500.02626078147125" y="107.6" transform="translate(500.02626078147125,107.6)"><g><g><text x="0" y="15" fill="#000000" font-size="40" font-family='bravura'></text></g><line x1="12.48" x2="12.48" y1="13.16" y2="-21.84" stroke="#000000" stroke-width="1.6"></line><g><text x="-18" y="15" fill="#000000" font-size="40" font-family='bravura'></text><rect data-selection-info="accidental-0" width="4" height="5" x="-19.2" y="12.5" fill="transparent" class="mn_handle"></rect></g></g></g><line x1="562.335014375295" x2="562.335014375295" y1="87.6" y2="127.6" stroke="#2A2A2A" stroke-width="1.6"></line><g x="584.335014375295" y="107.6" transform="translate(584.335014375295,107.6)"><g><g><text x="0" y="-5" fill="#000000" font-size="40" font-family='bravura'></text></g><line x1="0.8" x2="0.8" y1="-3.16" y2="31.84" stroke="#000000" stroke-width="1.6"></line><g><text x="-18" y="-5" fill="#000000" font-size="40" font-family='bravura'></text><rect data-selection-info="accidental-0" width="4" height="5" x="-19.2" y="-7.5" fill="transparent" class="mn_handle"></rect></g></g></g><g x="646.6437679691188" y="107.6" transform="translate(646.6437679691188,107.6)"><g><g><text x="0" y="-10" fill="#000000" font-size="40" font-family='bravura'></text></g><line x1="0.8" x2="0.8" y1="-8.16" y2="26.84" stroke="#000000" stroke-width="1.6"></line><g><text x="-12" y="-10" fill="#000000" font-size="40" font-family='bravura'></text><rect data-selection-info="accidental-0" width="4" height="5" x="-13.2" y="-12.5" fill="transparent" class="mn_handle"></rect></g></g></g><g x="708.9525215629426" y="107.6" transform="translate(708.9525215629426,107.6)"><g><g><text x="0" y="-15" fill="#000000" font-size="40" font-family='bravura'></text></g><line x1="0.8" x2="0.8" y1="-13.16" y2="21.84" stroke="#000000" stroke-width="1.6"></line><g><text x="-12" y="-15" fill="#000000" font-size="40" font-family='bravura'></text><rect data-selection-info="accidental-0" width="4" height="5" x="-13.2" y="-17.5" fill="transparent" class="mn_handle"></rect></g></g></g><g x="771.2612751567663" y="107.6" transform="translate(771.2612751567663,107.6)"><g><g><text x="0" y="-20" fill="#000000" font-size="40" font-family='bravura'></text></g><line x1="0.8" x2="0.8" y1="-18.16" y2="16.84" stroke="#000000" stroke-width="1.6"></line><g><text x="-18" y="-20" fill="#000000" font-size="40" font-family='bravura'></text><rect data-selection-info="accidental-0" width="4" height="5" x="-19.2" y="-22.5" fill="transparent" class="mn_handle"></rect></g></g></g><g><line x1="833.57002875059" x2="833.57002875059" y1="87.6" y2="127.6" stroke="#2A2A2A" stroke-width="1.6"></line><line x1="842.57002875059" x2="842.57002875059" y1="87.6" y2="127.6" stroke="#2A2A2A" stroke-width="5"></line><rect opacity="1" x="844.1700287505901" y="86.6" stroke="#FFFFFF" fill="#FFFFFF" height="42" width="4000"></rect></g></g></g></svg>