<?xml version="1.0" encoding="UTF-8" standalone="no"?><svg xmlns="http://www.w3.org/2000/svg"  data-page="0" height="279.4mm" viewBox="0 0 1381.7600000000002 1788.1599999999999" width="215.90000000000003mm"><g style="font-size:6.25px;"></g><g style="font-size:6.25px;"><g><g><g><line x1="205.59999999999997" x2="1284.1600000000003" y1="117.6" y2="117.6" stroke="#6A6A6A" stroke-width="1.3"></line><line x1="205.59999999999997" x2="1284.1600000000003" y1="107.6" y2="107.6" stroke="#6A6A6A" stroke-width="1.3"></line><line x1="205.59999999999997" x2="1284.1600000000003" y1="97.6" y2="97.6" stroke="#6A6A6A" stroke-width="1.3"></line><line x1="205.59999999999997" x2="1284.1600000000003" y1="87.6" y2="87.6" stroke="#6A6A6A" stroke-width="1.3"></line><line x1="205.59999999999997" x2="1284.1600000000003" y1="77.6" y2="77.6" stroke="#6A6A6A" stroke-width="1.3"></line></g></g><text x="213.59999999999997" y="107.6" fill="#000000" font-size="40" font-family='bravura'></text><g></g><text x="270.09999999999997" y="97.6" fill="#000000" font-size="40" font-family='bravura'></text><g x="313.09999999999997" y="97.6" transform="translate(313.09999999999997,97.6)"><g><g><text x="0" y="25" fill="#000000" font-size="40" font-family='bravura'></text></g><line x1="12.48" x2="12.48" y1="23.16" y2="-11.84" stroke="#000000" stroke-width="1.6"></line><g><text x="-12" y="25" fill="#000000" font-size="40" font-family='bravura'></text><rect data-selection-info="accidental-0" width="4" height="5" x="-13.2" y="22.5" fill="transparent" class="mn_handle"></rect></g></g></g><g x="359.61132630685347" y="97.6" transform="translate(359.61132630685347,97.6)"><g><g><text x="0" y="25" fill="#000000" font-size="40" font-family='bravura'></text></g><line x1="12.48" x2="12.48" y1="23.16" y2="-11.84" stroke="#000000" stroke-width="1.6"></line><g><text x="-25" y="25" font-size="40" font-family='bravura'></text><g><text x="-18" y="25" fill="#000000" font-size="40" font-family='bravura'></text><rect data-selection-info="accidental-0" width="4" height="5" x="-19.2" y="22.5" fill="transparent" class="mn_handle"></rect></g><text x="-8.959999999999999" y="25" font-size="40" font-family='bravura'></text></g></g></g><g x="406.122652613707" y="97.6" transform="translate(406.122652613707,97.6)"><g><g><text x="0" y="25" fill="#000000" font-size="40" font-family='bravura'></text></g><line x1="12.48" x2="12.48" y1="23.16" y2="-11.84" stroke="#000000" stroke-width="1.6"></line><g><text x="-12" y="25" fill="#000000" font-size="40" font-family='bravura'></text><rect data-selection-info="accidental-0" width="4" height="5" x="-13.2" y="22.5" fill="transparent" class="mn_handle"></rect></g></g></g><g x="452.6339789205605" y="97.6" transform="translate(452.6339789205605,97.6)"><g><g><text x="0" y="25" fill="#000000" font-size="40" font-family='bravura'></text></g><line x1="12.48" x2="12.48" y1="23.16" y2="-11.84" stroke="#000000" stroke-width="1.6"></line><g><text x="-25" y="25" font-size="40" font-family='bravura'></text><g><text x="-18" y="25" fill="#000000" font-size="40" font-family='bravura'></text><rect data-selection-info="accidental-0" width="4" height="5" x="-19.2" y="22.5" fill="transparent" class="mn_handle"></rect></g><text x="-8.959999999999999" y="25" font-size="40" font-family='bravura'></text></g></g></g><line x1="499.145305227414" x2="499.145305227414" y1="77.6" y2="117.6" stroke="#2A2A2A" stroke-width="1.6"></line><g x="521.1453052274139" y="97.6" transform="translate(521.1453052274139,97.6)"><g><g><text x="0" y="30" fill="#000000" font-size="40" font-family='bravura'></text></g><line x1="12.48" x2="12.48" y1="28.16" y2="-6.84" stroke="#000000" stroke-width="1.6"></line><g><text x="-14.4" y="30" fill="#000000" font-size="40" font-family='bravura'></text><rect data-selection-info="accidental-0" width="4" height="5" x="-15.6" y="27.5" fill="transparent" class="mn_handle"></rect></g><line x1="-3.2" x2="18.72" y1="30" y2="30" stroke="#000000" stroke-width="2.2"></line></g></g><g x="567.6566315342675" y="97.6" transform="translate(567.6566315342675,97.6)"><g><g><text x="0" y="30" fill="#000000" font-size="40" font-family='bravura'></text></g><line x1="12.48" x2="12.48" y1="28.16" y2="-6.84" stroke="#000000" stroke-width="1.6"></line><g><text x="-25" y="30" font-size="40" font-family='bravura'></text><g><text x="-18" y="30" fill="#000000" font-size="40" font-family='bravura'></text><rect data-selection-info="accidental-0" width="4" height="5" x="-19.2" y="27.5" fill="transparent" class="mn_handle"></rect></g><text x="-8.04" y="30" font-size="40" font-family='bravura'></text></g><line x1="-3.2" x2="18.72" y1="30" y2="30" stroke="#000000" stroke-width="2.2"></line></g></g><g x="614.1679578411209" y="97.6" transform="translate(614.1679578411209,97.6)"><g><g><text x="0" y="30" fill="#000000" font-size="40" font-family='bravura'></text></g><line x1="12.48" x2="12.48" y1="28.16" y2="-6.84" stroke="#000000" stroke-width="1.6"></line><g><text x="-14.4" y="30" fill="#000000" font-size="40" font-family='bravura'></text><rect data-selection-info="accidental-0" width="4" height="5" x="-15.6" y="27.5" fill="transparent" class="mn_handle"></rect></g><line x1="-3.2" x2="18.72" y1="30" y2="30" stroke="#000000" stroke-width="2.2"></line></g></g><g x="660.6792841479745" y="97.6" transform="translate(660.6792841479745,97.6)"><g><g><text x="0" y="30" fill="#000000" font-size="40" font-family='bravura'></text></g><line x1="12.48" x2="12.48" y1="28.16" y2="-6.84" stroke="#000000" stroke-width="1.6"></line><g><text x="-25" y="30" font-size="40" font-family='bravura'></text><g><text x="-18" y="30" fill="#000000" font-size="40" font-family='bravura'></text><rect data-selection-info="accidental-0" width="4" height="5" x="-19.2" y="27.5" fill="transparent" class="mn_handle"></rect></g><text x="-8.04" y="30" font-size="40" font-family='bravura'></text></g><line x1="-3.2" x2="18.72" y1="30" y2="30" stroke="#000000" stroke-width="2.2"></line></g></g><line x1="707.190610454828" x2="707.190610454828" y1="77.6" y2="117.6" stroke="#2A2A2A" stroke-width="1.6"></line><g x="729.190610454828" y="97.6" transform="translate(729.190610454828,97.6)"><g><g><text x="0" y="25" fill="#000000" font-size="40" font-family='bravura'></text></g><line x1="12.48" x2="12.48" y1="23.16" y2="-11.84" stroke="#000000" stroke-width="1.6"></line><g><text x="-18" y="25" fill="#000000" font-size="40" font-family='bravura'></text><rect data-selection-info="accidental-0" width="4" height="5" x="-19.2" y="22.5" fill="transparent" class="mn_handle"></rect></g></g></g><g x="775.7019367616814" y="97.6" transform="translate(775.7019367616814,97.6)"><g><g><text x="0" y="25" fill="#000000" font-size="40" font-family='bravura'></text></g><line x1="12.48" x2="12.48" y1="23.16" y2="-11.84" stroke="#000000" stroke-width="1.6"></line><g><text x="-30" y="25" font-size="40" font-family='bravura'></text><g><text x="-23" y="25" fill="#000000" font-size="40" font-family='bravura'></text><rect data-selection-info="accidental-0" width="4" height="5" x="-24.2" y="22.5" fill="transparent" class="mn_handle"></rect></g><text x="-6.560000000000002" y="25" font-size="40" font-family='bravura'></text></g></g></g><g x="822.213263068535" y="97.6" transform="translate(822.213263068535,97.6)"><g><g><text x="0" y="25" fill="#000000" font-size="40" font-family='bravura'></text></g><line x1="12.48" x2="12.48" y1="23.16" y2="-11.84" stroke="#000000" stroke-width="1.6"></line><g><text x="-18" y="25" fill="#000000" font-size="40" font-family='bravura'></text><rect data-selection-info="accidental-0" width="4" height="5" x="-19.2" y="22.5" fill="transparent" class="mn_handle"></rect></g></g></g><g x="868.7245893753884" y="97.6" transform="translate(868.7245893753884,97.6)"><g><g><text x="0" y="25" fill="#000000" font-size="40" font-family='bravura'></text></g><line x1="12.48" x2="12.48" y1="23.16" y2="-11.84" stroke="#000000" stroke-width="1.6"></line><g><text x="-30" y="25" font-size="40" font-family='bravura'></text><g><text x="-23" y="25" fill="#000000" font-size="40" font-family='bravura'></text><rect data-selection-info="accidental-0" width="4" height="5" x="-24.2" y="22.5" fill="transparent" class="mn_handle"></rect></g><text x="-6.560000000000002" y="25" font-size="40" font-family='bravura'></text></g></g></g><line x1="915.235915682242" x2="915.235915682242" y1="77.6" y2="117.6" stroke="#2A2A2A" stroke-width="1.6"></line><g x="937.235915682242" y="97.6" transform="translate(937.235915682242,97.6)"><g><g><text x="0" y="30" fill="#000000" font-size="40" font-family='bravura'></text></g><line x1="12.48" x2="12.48" y1="28.16" y2="-6.84" stroke="#000000" stroke-width="1.6"></line><g><text x="-14" y="30" fill="#000000" font-size="40" font-family='bravura'></text><rect data-selection-info="accidental-0" width="4" height="5" x="-15.2" y="27.5" fill="transparent" class="mn_handle"></rect></g><line x1="-3.2" x2="18.72" y1="30" y2="30" stroke="#000000" stroke-width="2.2"></line></g></g><g x="983.7472419890954" y="97.6" transform="translate(983.7472419890954,97.6)"><g><g><text x="0" y="30" fill="#000000" font-size="40" font-family='bravura'></text></g><line x1="12.48" x2="12.48" y1="28.16" y2="-6.84" stroke="#000000" stroke-width="1.6"></line><g><text x="-25" y="30" font-size="40" font-family='bravura'></text><g><text x="-18" y="30" fill="#000000" font-size="40" font-family='bravura'></text><rect data-selection-info="accidental-0" width="4" height="5" x="-19.2" y="27.5" fill="transparent" class="mn_handle"></rect></g><text x="-8.120000000000001" y="30" font-size="40" font-family='bravura'></text></g><line x1="-3.2" x2="18.72" y1="30" y2="30" stroke="#000000" stroke-width="2.2"></line></g></g><g x="1030.2585682959489" y="97.6" transform="translate(1030.2585682959489,97.6)"><g><g><text x="0" y="30" fill="#000000" font-size="40" font-family='bravura'></text></g><line x1="12.48" x2="12.48" y1="28.16" y2="-6.84" stroke="#000000" stroke-width="1.6"></line><g><text x="-14" y="30" fill="#000000" font-size="40" font-family='bravura'></text><rect data-selection-info="accidental-0" width="4" height="5" x="-15.2" y="27.5" fill="transparent" class="mn_handle"></rect></g><line x1="-3.2" x2="18.72" y1="30" y2="30" stroke="#000000" stroke-width="2.2"></line></g></g><g x="1076.7698946028024" y="97.6" transform="translate(1076.7698946028024,97.6)"><g><g><text x="0" y="30" fill="#000000" font-size="40" font-family='bravura'></text></g><line x1="12.48" x2="12.48" y1="28.16" y2="-6.84" stroke="#000000" stroke-width="1.6"></line><g><text x="-25" y="30" font-size="40" font-family='bravura'></text><g><text x="-18" y="30" fill="#000000" font-size="40" font-family='bravura'></text><rect data-selection-info="accidental-0" width="4" height="5" x="-19.2" y="27.5" fill="transparent" class="mn_handle"></rect></g><text x="-8.120000000000001" y="30" font-size="40" font-family='bravura'></text></g><line x1="-3.2" x2="18.72" y1="30" y2="30" stroke="#000000" stroke-width="2.2"></line></g></g><g><line x1="1123.281220909656" x2="1123.281220909656" y1="77.6" y2="117.6" stroke="#2A2A2A" stroke-width="1.6"></line><line x1="1132.281220909656" x2="1132.281220909656" y1="77.6" y2="117.6" stroke="#2A2A2A" stroke-width="5"></line><rect opacity="1" x="1133.881220909656" y="76.6" stroke="#FFFFFF" fill="#FFFFFF" height="42" width="4000"></rect></g></g></g></svg>