<?xml version="1.0" encoding="UTF-8" standalone="no"?><svg xmlns="http://www.w3.org/2000/svg"  data-page="0" height="279.4mm" viewBox="0 0 1381.7600000000002 1788.1599999999999" width="215.90000000000003mm"><g style="font-size:6.25px;"><g><text font-family='Alegreya' data-selection-info="header_title_0" style="text-anchor:middle;" x="690.8800000000001" y="48.8" font-size="40.63999999999999">Rest unit test</text></g></g><g style="font-size:6.25px;"><g><g><g><line x1="205.60000000000002" x2="1284.1600000000003" y1="157.6" y2="157.6" stroke="#6A6A6A" stroke-width="1.3"></line><line x1="205.60000000000002" x2="1284.1600000000003" y1="147.6" y2="147.6" stroke="#6A6A6A" stroke-width="1.3"></line><line x1="205.60000000000002" x2="1284.1600000000003" y1="137.6" y2="137.6" stroke="#6A6A6A" stroke-width="1.3"></line><line x1="205.60000000000002" x2="1284.1600000000003" y1="127.6" y2="127.6" stroke="#6A6A6A" stroke-width="1.3"></line><line x1="205.60000000000002" x2="1284.1600000000003" y1="117.6" y2="117.6" stroke="#6A6A6A" stroke-width="1.3"></line></g></g><text x="213.60000000000002" y="147.6" fill="#000000" font-size="40" font-family='bravura'></text><g></g><text x="260.1" y="137.6" fill="#000000" font-size="40" font-family='bravura'></text><g><text x="342.1463283333334" y="127.6" fill="#000000" font-size="40" font-family='bravura'></text><text x="357.78632833333336" y="107.6" font-size="48" class="mmn_" text-anchor="middle">2</text></g><line x1="452.47265666666675" x2="452.47265666666675" y1="117.6" y2="157.6" stroke="#2A2A2A" stroke-width="1.6"></line><g><text x="521.0189850000002" y="127.6" fill="#000000" font-size="40" font-family='bravura'></text></g><line x1="613.8453133333335" x2="613.8453133333335" y1="117.6" y2="157.6" stroke="#2A2A2A" stroke-width="1.6"></line><g><text x="635.8453133333335" y="137.6" fill="#000000" font-size="40" font-family='bravura'></text></g><g><text x="761.8846366666668" y="137.6" fill="#000000" font-size="40" font-family='bravura'></text></g><g><text x="874.5906266666667" y="137.6" fill="#000000" font-size="40" font-family='bravura'></text></g><g><text x="973.9632833333334" y="137.6" fill="#000000" font-size="40" font-family='bravura'></text></g><g><text x="1060.0026066666667" y="137.6" fill="#000000" font-size="40" font-family='bravura'></text></g><g><text x="1132.7085966666668" y="137.6" fill="#000000" font-size="40" font-family='bravura'></text></g><g><text x="1192.0812533333335" y="137.6" fill="#000000" font-size="40" font-family='bravura'></text></g><g><text x="1238.120576666667" y="137.6" fill="#000000" font-size="40" font-family='bravura'></text></g><line x1="1284.1599000000003" x2="1284.1599000000003" y1="117.6" y2="157.6" stroke="#2A2A2A" stroke-width="1.6"></line></g><g><g><g><line x1="97.6" x2="1284.1600000000003" y1="288.6" y2="288.6" stroke="#6A6A6A" stroke-width="1.3"></line><line x1="97.6" x2="1284.1600000000003" y1="278.6" y2="278.6" stroke="#6A6A6A" stroke-width="1.3"></line><line x1="97.6" x2="1284.1600000000003" y1="268.6" y2="268.6" stroke="#6A6A6A" stroke-width="1.3"></line><line x1="97.6" x2="1284.1600000000003" y1="258.6" y2="258.6" stroke="#6A6A6A" stroke-width="1.3"></line><line x1="97.6" x2="1284.1600000000003" y1="248.60000000000002" y2="248.60000000000002" stroke="#6A6A6A" stroke-width="1.3"></line></g><text x="97.6" y="238.60000000000002" font-size="24" class="bn_">5</text></g><text x="105.59999999999997" y="278.6" fill="#000000" font-size="40" font-family='bravura'></text><g></g><g><text x="152.09999999999997" y="268.6" fill="#000000" font-size="40" font-family='bravura'></text><g><circle data-selection-info="dotted" cx="171.73999999999995" cy="263.6" fill="#000000" r="2.4"></circle><rect data-selection-info="dotted" width="3" height="3" x="167.73999999999995" y="259.6" fill="transparent" class="mn_handle"></rect></g></g><g><text x="288.96964173479427" y="268.6" fill="#000000" font-size="40" font-family='bravura'></text></g><line x1="404.70645012663977" x2="404.70645012663977" y1="248.60000000000002" y2="288.6" stroke="#2A2A2A" stroke-width="1.6"></line><g><text x="426.70645012663977" y="268.6" fill="#000000" font-size="40" font-family='bravura'></text><g><circle data-selection-info="dotted" cx="445.98645012663974" cy="263.6" fill="#000000" r="2.4"></circle><rect data-selection-info="dotted" width="3" height="3" x="441.98645012663974" y="259.6" fill="transparent" class="mn_handle"></rect></g></g><g><text x="550.2427585281007" y="268.6" fill="#000000" font-size="40" font-family='bravura'></text><g><circle data-selection-info="dotted" cx="569.5227585281007" cy="263.6" fill="#000000" r="2.4"></circle><rect data-selection-info="dotted" width="3" height="3" x="565.5227585281007" y="259.6" fill="transparent" class="mn_handle"></rect></g></g><g><text x="660.4457335962285" y="268.6" fill="#000000" font-size="40" font-family='bravura'></text><g><circle data-selection-info="dotted" cx="679.7257335962285" cy="263.6" fill="#000000" r="2.4"></circle><rect data-selection-info="dotted" width="3" height="3" x="675.7257335962285" y="259.6" fill="transparent" class="mn_handle"></rect></g></g><g><text x="757.3153753310228" y="268.6" fill="#000000" font-size="40" font-family='bravura'></text><g><circle data-selection-info="dotted" cx="776.5953753310228" cy="263.6" fill="#000000" r="2.4"></circle><rect data-selection-info="dotted" width="3" height="3" x="772.5953753310228" y="259.6" fill="transparent" class="mn_handle"></rect></g></g><g><text x="840.8516837324837" y="268.6" fill="#000000" font-size="40" font-family='bravura'></text><g><circle data-selection-info="dotted" cx="860.1316837324837" cy="263.6" fill="#000000" r="2.4"></circle><rect data-selection-info="dotted" width="3" height="3" x="856.1316837324837" y="259.6" fill="transparent" class="mn_handle"></rect></g></g><g><text x="911.0546588006114" y="268.6" fill="#000000" font-size="40" font-family='bravura'></text><g><circle data-selection-info="dotted" cx="930.3346588006114" cy="263.6" fill="#000000" r="2.4"></circle><rect data-selection-info="dotted" width="3" height="3" x="926.3346588006114" y="259.6" fill="transparent" class="mn_handle"></rect></g></g><g><line x1="967.9243005354057" x2="967.9243005354057" y1="248.60000000000002" y2="288.6" stroke="#2A2A2A" stroke-width="1.6"></line><line x1="976.9243005354057" x2="976.9243005354057" y1="248.60000000000002" y2="288.6" stroke="#2A2A2A" stroke-width="5"></line><rect opacity="1" x="978.5243005354057" y="247.60000000000002" stroke="#FFFFFF" fill="#FFFFFF" height="42" width="4000"></rect></g></g></g></svg>