<?xml version="1.0" encoding="UTF-8" standalone="no"?><svg xmlns="http://www.w3.org/2000/svg"  data-page="0" height="279.4mm" viewBox="0 0 1381.7600000000002 1788.1599999999999" width="215.90000000000003mm"><g style="font-size:6.25px;"></g><g style="font-size:6.25px;"><g><g><g><line x1="205.60000000000002" x2="1284.1600000000003" y1="117.6" y2="117.6" stroke="#6A6A6A" stroke-width="1.3"></line><line x1="205.60000000000002" x2="1284.1600000000003" y1="107.6" y2="107.6" stroke="#6A6A6A" stroke-width="1.3"></line><line x1="205.60000000000002" x2="1284.1600000000003" y1="97.6" y2="97.6" stroke="#6A6A6A" stroke-width="1.3"></line><line x1="205.60000000000002" x2="1284.1600000000003" y1="87.6" y2="87.6" stroke="#6A6A6A" stroke-width="1.3"></line><line x1="205.60000000000002" x2="1284.1600000000003" y1="77.6" y2="77.6" stroke="#6A6A6A" stroke-width="1.3"></line></g></g><text x="213.60000000000002" y="107.6" fill="#000000" font-size="40" font-family='bravura'></text><g></g><text x="260.1000000000001" y="97.6" fill="#000000" font-size="40" font-family='bravura'></text><g x="313.1000000000001" y="97.6" transform="translate(313.1000000000001,97.6)"><g><g><text x="0" y="-5" fill="#000000" font-size="40" font-family='bravura'></text></g><line x1="0.8" x2="0.8" y1="-3.16" y2="31.84" stroke="#000000" stroke-width="1.6"></line></g></g><g x="385.57254692981" y="97.6" transform="translate(385.57254692981,97.6)"><g><g><text x="0" y="-5" fill="#000000" font-size="40" font-family='bravura'></text></g><line x1="0.8" x2="0.8" y1="-3.16" y2="31.84" stroke="#000000" stroke-width="1.6"></line><g><text x="-25" y="-5" font-size="40" font-family='bravura'></text><g><text x="-18" y="-5" fill="#000000" font-size="40" font-family='bravura'></text><rect data-selection-info="accidental-0" width="4" height="5" x="-19.2" y="-7.5" fill="transparent" class="mn_handle"></rect></g><text x="-11.28" y="-5" font-size="40" font-family='bravura'></text></g></g></g><g x="458.04509385961995" y="97.6" transform="translate(458.04509385961995,97.6)"><g><g><text x="0" y="-5" fill="#000000" font-size="40" font-family='bravura'></text></g><line x1="0.8" x2="0.8" y1="-3.16" y2="31.84" stroke="#000000" stroke-width="1.6"></line><g><text x="-25" y="-5" font-size="40" font-family='bravura'></text><g><text x="-18" y="-5" fill="#000000" font-size="40" font-family='bravura'></text><rect data-selection-info="accidental-0" width="4" height="5" x="-19.2" y="-7.5" fill="transparent" class="mn_handle"></rect></g><text x="-11.28" y="-5" font-size="40" font-family='bravura'></text></g></g></g><g x="530.5176407894298" y="97.6" transform="translate(530.5176407894298,97.6)"><g><g><text x="0" y="-5" fill="#000000" font-size="40" font-family='bravura'></text></g><line x1="0.8" x2="0.8" y1="-3.16" y2="31.84" stroke="#000000" stroke-width="1.6"></line><g><text x="-25" y="-5" font-size="40" font-family='bravura'></text><g><text x="-18" y="-5" fill="#000000" font-size="40" font-family='bravura'></text><rect data-selection-info="accidental-0" width="4" height="5" x="-19.2" y="-7.5" fill="transparent" class="mn_handle"></rect></g><text x="-11.28" y="-5" font-size="40" font-family='bravura'></text></g></g></g><line x1="602.9901877192399" x2="602.9901877192399" y1="77.6" y2="117.6" stroke="#2A2A2A" stroke-width="1.6"></line><g x="624.9901877192399" y="97.6" transform="translate(624.9901877192399,97.6)"><g><g><text x="0" y="-5" fill="#000000" font-size="40" font-family='bravura'></text></g><line x1="0.8" x2="0.8" y1="-3.04" y2="31.96" stroke="#000000" stroke-width="1.6"></line></g></g><g x="710.7960679823832" y="97.6" transform="translate(710.7960679823832,97.6)"><g><g><text x="0" y="-5" fill="#000000" font-size="40" font-family='bravura'></text></g><line x1="0.8" x2="0.8" y1="-3.04" y2="31.96" stroke="#000000" stroke-width="1.6"></line><g><text x="-25" y="-5" font-size="40" font-family='bravura'></text><g><text x="-18" y="-5" fill="#000000" font-size="40" font-family='bravura'></text><rect data-selection-info="accidental-0" width="4" height="5" x="-19.2" y="-7.5" fill="transparent" class="mn_handle"></rect></g><text x="-11.28" y="-5" font-size="40" font-family='bravura'></text></g></g></g><g><line x1="796.6019482455265" x2="796.6019482455265" y1="77.6" y2="117.6" stroke="#2A2A2A" stroke-width="1.6"></line><line x1="805.6019482455265" x2="805.6019482455265" y1="77.6" y2="117.6" stroke="#2A2A2A" stroke-width="5"></line><rect opacity="1" x="807.2019482455265" y="76.6" stroke="#FFFFFF" fill="#FFFFFF" height="42" width="4000"></rect></g></g></g></svg>