<?xml version="1.0" encoding="UTF-8" standalone="no"?><svg xmlns="http://www.w3.org/2000/svg"  data-page="0" height="279.4mm" viewBox="0 0 1381.7600000000002 1788.1599999999999" width="215.90000000000003mm"><g style="font-size:6.25px;"></g><g style="font-size:6.25px;"><g><g><g><line x1="205.6" x2="1284.1600000000003" y1="117.6" y2="117.6" stroke="#6A6A6A" stroke-width="1.3"></line><line x1="205.6" x2="1284.1600000000003" y1="107.6" y2="107.6" stroke="#6A6A6A" stroke-width="1.3"></line><line x1="205.6" x2="1284.1600000000003" y1="97.6" y2="97.6" stroke="#6A6A6A" stroke-width="1.3"></line><line x1="205.6" x2="1284.1600000000003" y1="87.6" y2="87.6" stroke="#6A6A6A" stroke-width="1.3"></line><line x1="205.6" x2="1284.1600000000003" y1="77.6" y2="77.6" stroke="#6A6A6A" stroke-width="1.3"></line></g></g><text x="213.6" y="107.6" fill="#000000" font-size="40" font-family='bravura'></text><g></g><g><g><text x="260.1" y="87.6" fill="#000000" font-size="40" font-family='bravura'></text></g><g><text x="260.1" y="107.6" fill="#000000" font-size="40" font-family='bravura'></text></g></g><g x="313.1" y="97.6" transform="translate(313.1,97.6)"><g><g><text x="0" y="-5" fill="#000000" font-size="40" font-family='bravura'></text></g><line x1="0.8" x2="0.8" y1="-3.16" y2="31.84" stroke="#000000" stroke-width="1.6"></line><text x="0" y="31.84" fill="#000000" font-size="40" font-family='bravura'></text></g></g><line x1="355.93350230747916" x2="355.93350230747916" y1="77.6" y2="117.6" stroke="#2A2A2A" stroke-width="1.6"></line><g><text x="377.21025346121877" y="87.6" fill="#000000" font-size="40" font-family='bravura'></text></g><line x1="410.76700461495835" x2="410.76700461495835" y1="77.6" y2="117.6" stroke="#2A2A2A" stroke-width="1.6"></line><g><g><text x="422.76700461495835" y="87.6" fill="#000000" font-size="40" font-family='bravura'></text></g><g><text x="422.76700461495835" y="107.6" fill="#000000" font-size="40" font-family='bravura'></text></g></g><g x="475.76700461495835" y="97.6" transform="translate(475.76700461495835,97.6)"><g><g><text x="0" y="-5" fill="#000000" font-size="40" font-family='bravura'></text></g><line x1="0.8" x2="0.8" y1="-3.16" y2="31.84" stroke="#000000" stroke-width="1.6"></line></g></g><line x1="531.9338402557709" x2="531.9338402557709" y1="77.6" y2="117.6" stroke="#2A2A2A" stroke-width="1.6"></line><g><text x="559.8772580761771" y="87.6" fill="#000000" font-size="40" font-family='bravura'></text></g><line x1="600.1006758965834" x2="600.1006758965834" y1="77.6" y2="117.6" stroke="#2A2A2A" stroke-width="1.6"></line><g><g><text x="612.1006758965834" y="87.6" fill="#000000" font-size="40" font-family='bravura'></text></g><g><text x="612.1006758965834" y="107.6" fill="#000000" font-size="40" font-family='bravura'></text></g></g><g x="665.1006758965834" y="97.6" transform="translate(665.1006758965834,97.6)"><g><g><text x="0" y="-5" fill="#000000" font-size="40" font-family='bravura'></text><g><circle data-selection-info="dotted" cx="19.64" cy="-5" fill="#000000" r="2.4"></circle><rect data-selection-info="dotted" width="3" height="3" x="15.64" y="-9" fill="transparent" class="mn_handle"></rect></g></g><line x1="0.8" x2="0.8" y1="-3.04" y2="31.96" stroke="#000000" stroke-width="1.6"></line></g></g><line x1="729.0670115470112" x2="729.0670115470112" y1="77.6" y2="117.6" stroke="#2A2A2A" stroke-width="1.6"></line><g><text x="760.9101793722252" y="87.6" fill="#000000" font-size="40" font-family='bravura'></text></g><line x1="805.0333471974392" x2="805.0333471974392" y1="77.6" y2="117.6" stroke="#2A2A2A" stroke-width="1.6"></line><g><g><text x="817.0333471974392" y="87.6" fill="#000000" font-size="40" font-family='bravura'></text></g><g><text x="817.0333471974392" y="107.6" fill="#000000" font-size="40" font-family='bravura'></text></g></g><g x="870.0333471974392" y="97.6" transform="translate(870.0333471974392,97.6)"><g><g><text x="0" y="-5" fill="#000000" font-size="40" font-family='bravura'></text></g></g></g><line x1="939.5335161715851" x2="939.5335161715851" y1="77.6" y2="117.6" stroke="#2A2A2A" stroke-width="1.6"></line><g><text x="974.1436006586581" y="87.6" fill="#000000" font-size="40" font-family='bravura'></text></g><line x1="1021.0336851457309" x2="1021.0336851457309" y1="77.6" y2="117.6" stroke="#2A2A2A" stroke-width="1.6"></line><g><g><text x="1038.033685145731" y="87.6" fill="#000000" font-size="40" font-family='bravura'></text></g><g><text x="1033.033685145731" y="107.6" fill="#000000" font-size="40" font-family='bravura'></text><text x="1045.033685145731" y="107.6" fill="#000000" font-size="40" font-family='bravura'></text></g></g><g x="1086.033685145731" y="97.6" transform="translate(1086.033685145731,97.6)"><g><g><text x="0" y="-5" fill="#000000" font-size="40" font-family='bravura'></text></g><line x1="0.8" x2="0.8" y1="-3.16" y2="31.84" stroke="#000000" stroke-width="1.6"></line></g></g><g x="1155.5338541198769" y="97.6" transform="translate(1155.5338541198769,97.6)"><g><g><text x="0" y="-5" fill="#000000" font-size="40" font-family='bravura'></text></g><line x1="0.8" x2="0.8" y1="-3.16" y2="31.84" stroke="#000000" stroke-width="1.6"></line><text x="0" y="31.84" fill="#000000" font-size="40" font-family='bravura'></text><g><text x="-25" y="-5" font-size="40" font-family='bravura'></text><g><text x="-18" y="-5" fill="#000000" font-size="40" font-family='bravura'></text><rect data-selection-info="accidental-0" width="4" height="5" x="-19.2" y="-7.5" fill="transparent" class="mn_handle"></rect></g><text x="-11.28" y="-5" font-size="40" font-family='bravura'></text></g></g></g><line x1="1198.3673564273563" x2="1198.3673564273563" y1="77.6" y2="117.6" stroke="#2A2A2A" stroke-width="1.6"></line><g><text x="1235.123628213678" y="87.6" fill="#000000" font-size="40" font-family='bravura'></text></g><line x1="1284.1599000000003" x2="1284.1599000000003" y1="77.6" y2="117.6" stroke="#2A2A2A" stroke-width="1.6"></line></g><g><g><g><line x1="97.6" x2="1284.1600000000003" y1="248.6" y2="248.6" stroke="#6A6A6A" stroke-width="1.3"></line><line x1="97.6" x2="1284.1600000000003" y1="238.6" y2="238.6" stroke="#6A6A6A" stroke-width="1.3"></line><line x1="97.6" x2="1284.1600000000003" y1="228.6" y2="228.6" stroke="#6A6A6A" stroke-width="1.3"></line><line x1="97.6" x2="1284.1600000000003" y1="218.6" y2="218.6" stroke="#6A6A6A" stroke-width="1.3"></line><line x1="97.6" x2="1284.1600000000003" y1="208.6" y2="208.6" stroke="#6A6A6A" stroke-width="1.3"></line></g><text x="97.6" y="198.6" font-size="24" class="bn_">11</text></g><text x="105.60000000000002" y="238.6" fill="#000000" font-size="40" font-family='bravura'></text><g></g><g><g><text x="152.10000000000002" y="218.6" fill="#000000" font-size="40" font-family='bravura'></text></g><g><text x="152.10000000000002" y="238.6" fill="#000000" font-size="40" font-family='bravura'></text></g></g><g x="205.10000000000002" y="228.6" transform="translate(205.10000000000002,228.6)"><g><g><text x="0" y="-5" fill="#000000" font-size="40" font-family='bravura'></text><g><circle data-selection-info="dotted" cx="19.64" cy="-5" fill="#000000" r="2.4"></circle><rect data-selection-info="dotted" width="3" height="3" x="15.64" y="-9" fill="transparent" class="mn_handle"></rect></g><g><circle data-selection-info="dotted" cx="25.64" cy="-5" fill="#000000" r="2.4"></circle><rect data-selection-info="dotted" width="3" height="3" x="21.64" y="-9" fill="transparent" class="mn_handle"></rect></g></g><line x1="0.8" x2="0.8" y1="-3.04" y2="31.96" stroke="#000000" stroke-width="1.6"></line></g></g><line x1="305.0780131045003" x2="305.0780131045003" y1="208.6" y2="248.6" stroke="#2A2A2A" stroke-width="1.6"></line><g><text x="354.92701965675053" y="218.6" fill="#000000" font-size="40" font-family='bravura'></text></g><line x1="417.05602620900066" x2="417.05602620900066" y1="208.6" y2="248.6" stroke="#2A2A2A" stroke-width="1.6"></line><g><g><text x="429.05602620900066" y="218.6" fill="#000000" font-size="40" font-family='bravura'></text></g><g><text x="429.05602620900066" y="238.6" fill="#000000" font-size="40" font-family='bravura'></text></g></g><g x="482.05602620900066" y="228.6" transform="translate(482.05602620900066,228.6)"><g><g><text x="0" y="-5" fill="#000000" font-size="40" font-family='bravura'></text></g></g></g><g x="584.6026403527329" y="228.6" transform="translate(584.6026403527329,228.6)"><g><g><text x="0" y="-5" fill="#000000" font-size="40" font-family='bravura'></text></g><line x1="0.8" x2="0.8" y1="-3.16" y2="31.84" stroke="#000000" stroke-width="1.6"></line><text x="0" y="31.84" fill="#000000" font-size="40" font-family='bravura'></text><g><text x="-25" y="-5" font-size="40" font-family='bravura'></text><g><text x="-18" y="-5" fill="#000000" font-size="40" font-family='bravura'></text><rect data-selection-info="accidental-0" width="4" height="5" x="-19.2" y="-7.5" fill="transparent" class="mn_handle"></rect></g><text x="-11.28" y="-5" font-size="40" font-family='bravura'></text></g></g></g><line x1="647.1492544964651" x2="647.1492544964651" y1="208.6" y2="248.6" stroke="#2A2A2A" stroke-width="1.6"></line><g><text x="699.41539491128" y="218.6" fill="#000000" font-size="40" font-family='bravura'></text></g><line x1="763.9615353260949" x2="763.9615353260949" y1="208.6" y2="248.6" stroke="#2A2A2A" stroke-width="1.6"></line><g><g><text x="775.9615353260949" y="218.6" fill="#000000" font-size="40" font-family='bravura'></text><text x="787.9615353260949" y="218.6" fill="#000000" font-size="40" font-family='bravura'></text></g><g><text x="780.9615353260949" y="238.6" fill="#000000" font-size="40" font-family='bravura'></text></g></g><g x="828.9615353260949" y="228.6" transform="translate(828.9615353260949,228.6)"><g><g><text x="0" y="-5" fill="#000000" font-size="40" font-family='bravura'></text></g><line x1="0.8" x2="0.8" y1="-3.16" y2="31.84" stroke="#000000" stroke-width="1.6"></line><text x="0" y="31.84" fill="#000000" font-size="40" font-family='bravura'></text></g></g><line x1="878.1748161364939" x2="878.1748161364939" y1="208.6" y2="248.6" stroke="#2A2A2A" stroke-width="1.6"></line><g><text x="942.3360986109392" y="218.6" fill="#000000" font-size="40" font-family='bravura'></text></g><line x1="1018.7773810853845" x2="1018.7773810853845" y1="208.6" y2="248.6" stroke="#2A2A2A" stroke-width="1.6"></line><g><g><text x="1030.7773810853844" y="218.6" fill="#000000" font-size="40" font-family='bravura'></text></g><g><text x="1030.7773810853844" y="238.6" fill="#000000" font-size="40" font-family='bravura'></text></g></g><g x="1083.7773810853844" y="228.6" transform="translate(1083.7773810853844,228.6)"><g><g><text x="0" y="-5" fill="#000000" font-size="40" font-family='bravura'></text></g></g></g><g><line x1="1159.65732856245" x2="1159.65732856245" y1="208.6" y2="248.6" stroke="#2A2A2A" stroke-width="1.6"></line><line x1="1168.65732856245" x2="1168.65732856245" y1="208.6" y2="248.6" stroke="#2A2A2A" stroke-width="5"></line><rect opacity="1" x="1170.2573285624499" y="207.6" stroke="#FFFFFF" fill="#FFFFFF" height="42" width="4000"></rect></g></g></g></svg>