<?xml version="1.0" encoding="UTF-8" standalone="no"?><svg xmlns="http://www.w3.org/2000/svg"  data-page="0" height="279.4mm" viewBox="0 0 1381.7600000000002 1788.1599999999999" width="215.90000000000003mm"><g style="font-size:6.25px;"></g><g style="font-size:6.25px;"><g><g><g><line x1="205.60000000000002" x2="1284.1600000000003" y1="117.6" y2="117.6" stroke="#6A6A6A" stroke-width="1.3"></line><line x1="205.60000000000002" x2="1284.1600000000003" y1="107.6" y2="107.6" stroke="#6A6A6A" stroke-width="1.3"></line><line x1="205.60000000000002" x2="1284.1600000000003" y1="97.6" y2="97.6" stroke="#6A6A6A" stroke-width="1.3"></line><line x1="205.60000000000002" x2="1284.1600000000003" y1="87.6" y2="87.6" stroke="#6A6A6A" stroke-width="1.3"></line><line x1="205.60000000000002" x2="1284.1600000000003" y1="77.6" y2="77.6" stroke="#6A6A6A" stroke-width="1.3"></line></g></g><text x="213.60000000000002" y="107.6" fill="#000000" font-size="40" font-family='bravura'></text><g></g><g><g><text x="260.1" y="87.6" fill="#000000" font-size="40" font-family='bravura'></text></g><g><text x="260.1" y="107.6" fill="#000000" font-size="40" font-family='bravura'></text></g></g><g x="313.1" y="97.6" transform="translate(313.1,97.6)"><g><g><text x="0" y="0" fill="#000000" font-size="40" font-family='bravura'></text></g><line x1="0.8" x2="0.8" y1="1.8399999999999999" y2="36.84" stroke="#000000" stroke-width="1.6"></line><text x="0" y="36.84" fill="#000000" font-size="40" font-family='bravura'></text></g></g><g x="369.78548299514284" y="97.6" transform="translate(369.78548299514284,97.6)"><g><g><text x="0" y="0" fill="#000000" font-size="40" font-family='bravura'></text></g><line x1="0.8" x2="0.8" y1="1.8399999999999999" y2="36.84" stroke="#000000" stroke-width="1.6"></line><text x="0" y="36.84" fill="#000000" font-size="40" font-family='bravura'></text><g><text x="-25" y="0" font-size="40" font-family='bravura'></text><g><text x="-18" y="0" fill="#000000" font-size="40" font-family='bravura'></text><rect data-selection-info="accidental-0" width="4" height="5" x="-19.2" y="-2.5" fill="transparent" class="mn_handle"></rect></g><text x="-11.28" y="0" font-size="40" font-family='bravura'></text></g></g></g><g x="426.4709659902856" y="97.6" transform="translate(426.4709659902856,97.6)"><g><g><text x="0" y="0" fill="#000000" font-size="40" font-family='bravura'></text></g><line x1="0.8" x2="0.8" y1="1.8399999999999999" y2="36.84" stroke="#000000" stroke-width="1.6"></line><text x="0" y="36.84" fill="#000000" font-size="40" font-family='bravura'></text><g><text x="-25" y="0" font-size="40" font-family='bravura'></text><g><text x="-18" y="0" fill="#000000" font-size="40" font-family='bravura'></text><rect data-selection-info="accidental-0" width="4" height="5" x="-19.2" y="-2.5" fill="transparent" class="mn_handle"></rect></g><text x="-11.28" y="0" font-size="40" font-family='bravura'></text></g></g></g><g x="483.15644898542837" y="97.6" transform="translate(483.15644898542837,97.6)"><g><g><text x="0" y="0" fill="#000000" font-size="40" font-family='bravura'></text></g><line x1="0.8" x2="0.8" y1="1.8399999999999999" y2="36.84" stroke="#000000" stroke-width="1.6"></line><text x="0" y="36.84" fill="#000000" font-size="40" font-family='bravura'></text><g><text x="-25" y="0" font-size="40" font-family='bravura'></text><g><text x="-18" y="0" fill="#000000" font-size="40" font-family='bravura'></text><rect data-selection-info="accidental-0" width="4" height="5" x="-19.2" y="-2.5" fill="transparent" class="mn_handle"></rect></g><text x="-11.28" y="0" font-size="40" font-family='bravura'></text></g></g></g><g x="539.8419319805712" y="97.6" transform="translate(539.8419319805712,97.6)"><g><g><text x="0" y="0" fill="#000000" font-size="40" font-family='bravura'></text></g><line x1="0.8" x2="0.8" y1="1.8399999999999999" y2="36.84" stroke="#000000" stroke-width="1.6"></line><text x="0" y="36.84" fill="#000000" font-size="40" font-family='bravura'></text><g><text x="-25" y="0" font-size="40" font-family='bravura'></text><g><text x="-18" y="0" fill="#000000" font-size="40" font-family='bravura'></text><rect data-selection-info="accidental-0" width="4" height="5" x="-19.2" y="-2.5" fill="transparent" class="mn_handle"></rect></g><text x="-11.28" y="0" font-size="40" font-family='bravura'></text></g></g></g><line x1="596.5274149757139" x2="596.5274149757139" y1="77.6" y2="117.6" stroke="#2A2A2A" stroke-width="1.6"></line><g><g><text x="608.5274149757139" y="87.6" fill="#000000" font-size="40" font-family='bravura'></text></g><g><text x="608.5274149757139" y="107.6" fill="#000000" font-size="40" font-family='bravura'></text></g></g><g x="661.5274149757139" y="97.6" transform="translate(661.5274149757139,97.6)"><g><g><text x="0" y="5" fill="#000000" font-size="40" font-family='bravura'></text></g></g></g><g x="744.8795646375235" y="97.6" transform="translate(744.8795646375235,97.6)"><g><g><text x="0" y="5" fill="#000000" font-size="40" font-family='bravura'></text></g><line x1="12.48" x2="12.48" y1="3.16" y2="-31.84" stroke="#000000" stroke-width="1.6"></line><g><text x="-25" y="5" font-size="40" font-family='bravura'></text><g><text x="-18" y="5" fill="#000000" font-size="40" font-family='bravura'></text><rect data-selection-info="accidental-0" width="4" height="5" x="-19.2" y="2.5" fill="transparent" class="mn_handle"></rect></g><text x="-11.28" y="5" font-size="40" font-family='bravura'></text></g></g></g><g x="801.5650476326662" y="97.6" transform="translate(801.5650476326662,97.6)"><g><g><text x="0" y="5" fill="#000000" font-size="40" font-family='bravura'></text><g><circle data-selection-info="dotted" cx="19.64" cy="5" fill="#000000" r="2.4"></circle><rect data-selection-info="dotted" width="3" height="3" x="15.64" y="1" fill="transparent" class="mn_handle"></rect></g></g><line x1="12.84" x2="12.84" y1="3.08" y2="-31.92" stroke="#000000" stroke-width="1.6"></line><g><text x="-25" y="5" font-size="40" font-family='bravura'></text><g><text x="-18" y="5" fill="#000000" font-size="40" font-family='bravura'></text><rect data-selection-info="accidental-0" width="4" height="5" x="-19.2" y="2.5" fill="transparent" class="mn_handle"></rect></g><text x="-11.28" y="5" font-size="40" font-family='bravura'></text></g></g></g><g x="879.3833639707577" y="97.6" transform="translate(879.3833639707577,97.6)"><g><g><text x="0" y="5" fill="#000000" font-size="40" font-family='bravura'></text></g><line x1="12.48" x2="12.48" y1="3.16" y2="-31.84" stroke="#000000" stroke-width="1.6"></line><g><text x="-25" y="5" font-size="40" font-family='bravura'></text><g><text x="-18" y="5" fill="#000000" font-size="40" font-family='bravura'></text><rect data-selection-info="accidental-0" width="4" height="5" x="-19.2" y="2.5" fill="transparent" class="mn_handle"></rect></g><text x="-11.28" y="5" font-size="40" font-family='bravura'></text></g></g></g><g><line x1="936.0688469659005" x2="936.0688469659005" y1="77.6" y2="117.6" stroke="#2A2A2A" stroke-width="1.6"></line><line x1="945.0688469659005" x2="945.0688469659005" y1="77.6" y2="117.6" stroke="#2A2A2A" stroke-width="5"></line><rect opacity="1" x="946.6688469659006" y="76.6" stroke="#FFFFFF" fill="#FFFFFF" height="42" width="4000"></rect></g></g></g></svg>