<?xml version="1.0" encoding="UTF-8" standalone="no"?><svg xmlns="http://www.w3.org/2000/svg"  data-page="0" height="279.4mm" viewBox="0 0 1381.7600000000002 1788.1599999999999" width="215.90000000000003mm"><g style="font-size:6.25px;"></g><g style="font-size:6.25px;"><g><g><g><line x1="205.60000000000002" x2="1284.1600000000003" y1="117.6" y2="117.6" stroke="#6A6A6A" stroke-width="1.3"></line><line x1="205.60000000000002" x2="1284.1600000000003" y1="107.6" y2="107.6" stroke="#6A6A6A" stroke-width="1.3"></line><line x1="205.60000000000002" x2="1284.1600000000003" y1="97.6" y2="97.6" stroke="#6A6A6A" stroke-width="1.3"></line><line x1="205.60000000000002" x2="1284.1600000000003" y1="87.6" y2="87.6" stroke="#6A6A6A" stroke-width="1.3"></line><line x1="205.60000000000002" x2="1284.1600000000003" y1="77.6" y2="77.6" stroke="#6A6A6A" stroke-width="1.3"></line></g></g><text x="213.60000000000002" y="107.6" fill="#000000" font-size="40" font-family='bravura'></text><g></g><g><g><text x="260.1" y="87.6" fill="#000000" font-size="40" font-family='bravura'></text><text x="272.1" y="87.6" fill="#000000" font-size="40" font-family='bravura'></text></g><g><text x="265.1" y="107.6" fill="#000000" font-size="40" font-family='bravura'></text></g></g><g x="313.1" y="97.6" transform="translate(313.1,97.6)"><g><g><text x="0" y="0" fill="#000000" font-size="40" font-family='bravura'></text></g><line x1="0.8" x2="0.8" y1="1.8399999999999999" y2="36.84" stroke="#000000" stroke-width="1.6"></line><text x="0" y="36.84" fill="#000000" font-size="40" font-family='bravura'></text></g></g><g x="364.4257477636906" y="97.6" transform="translate(364.4257477636906,97.6)"><g><g><text x="0" y="0" fill="#000000" font-size="40" font-family='bravura'></text></g><line x1="0.8" x2="0.8" y1="1.8399999999999999" y2="36.84" stroke="#000000" stroke-width="1.6"></line><text x="0" y="36.84" fill="#000000" font-size="40" font-family='bravura'></text><g><text x="-25" y="0" font-size="40" font-family='bravura'></text><g><text x="-18" y="0" fill="#000000" font-size="40" font-family='bravura'></text><rect data-selection-info="accidental-0" width="4" height="5" x="-19.2" y="-2.5" fill="transparent" class="mn_handle"></rect></g><text x="-11.28" y="0" font-size="40" font-family='bravura'></text></g></g></g><g x="415.75149552738117" y="97.6" transform="translate(415.75149552738117,97.6)"><g><g><text x="0" y="0" fill="#000000" font-size="40" font-family='bravura'></text></g><line x1="0.8" x2="0.8" y1="1.8399999999999999" y2="36.84" stroke="#000000" stroke-width="1.6"></line><text x="0" y="36.84" fill="#000000" font-size="40" font-family='bravura'></text><g><text x="-25" y="0" font-size="40" font-family='bravura'></text><g><text x="-18" y="0" fill="#000000" font-size="40" font-family='bravura'></text><rect data-selection-info="accidental-0" width="4" height="5" x="-19.2" y="-2.5" fill="transparent" class="mn_handle"></rect></g><text x="-11.28" y="0" font-size="40" font-family='bravura'></text></g></g></g><g x="467.0772432910718" y="97.6" transform="translate(467.0772432910718,97.6)"><g><g><text x="0" y="0" fill="#000000" font-size="40" font-family='bravura'></text></g><line x1="0.8" x2="0.8" y1="1.8399999999999999" y2="36.84" stroke="#000000" stroke-width="1.6"></line><text x="0" y="36.84" fill="#000000" font-size="40" font-family='bravura'></text><g><text x="-25" y="0" font-size="40" font-family='bravura'></text><g><text x="-18" y="0" fill="#000000" font-size="40" font-family='bravura'></text><rect data-selection-info="accidental-0" width="4" height="5" x="-19.2" y="-2.5" fill="transparent" class="mn_handle"></rect></g><text x="-11.28" y="0" font-size="40" font-family='bravura'></text></g></g></g><g x="518.4029910547623" y="97.6" transform="translate(518.4029910547623,97.6)"><g><g><text x="0" y="0" fill="#000000" font-size="40" font-family='bravura'></text></g><line x1="0.8" x2="0.8" y1="1.8399999999999999" y2="36.84" stroke="#000000" stroke-width="1.6"></line><text x="0" y="36.84" fill="#000000" font-size="40" font-family='bravura'></text><g><text x="-25" y="0" font-size="40" font-family='bravura'></text><g><text x="-18" y="0" fill="#000000" font-size="40" font-family='bravura'></text><rect data-selection-info="accidental-0" width="4" height="5" x="-19.2" y="-2.5" fill="transparent" class="mn_handle"></rect></g><text x="-11.28" y="0" font-size="40" font-family='bravura'></text></g></g></g><g x="569.7287388184529" y="97.6" transform="translate(569.7287388184529,97.6)"><g><g><text x="0" y="0" fill="#000000" font-size="40" font-family='bravura'></text></g><line x1="0.8" x2="0.8" y1="1.8399999999999999" y2="36.84" stroke="#000000" stroke-width="1.6"></line><g><text x="-25" y="0" font-size="40" font-family='bravura'></text><g><text x="-18" y="0" fill="#000000" font-size="40" font-family='bravura'></text><rect data-selection-info="accidental-0" width="4" height="5" x="-19.2" y="-2.5" fill="transparent" class="mn_handle"></rect></g><text x="-11.28" y="0" font-size="40" font-family='bravura'></text></g></g></g><g x="634.3878199154768" y="97.6" transform="translate(634.3878199154768,97.6)"><g><g><text x="0" y="0" fill="#000000" font-size="40" font-family='bravura'></text></g><line x1="0.8" x2="0.8" y1="1.8399999999999999" y2="36.84" stroke="#000000" stroke-width="1.6"></line><g><text x="-25" y="0" font-size="40" font-family='bravura'></text><g><text x="-18" y="0" fill="#000000" font-size="40" font-family='bravura'></text><rect data-selection-info="accidental-0" width="4" height="5" x="-19.2" y="-2.5" fill="transparent" class="mn_handle"></rect></g><text x="-11.28" y="0" font-size="40" font-family='bravura'></text></g></g></g><g x="699.0469010125008" y="97.6" transform="translate(699.0469010125008,97.6)"><g><g><text x="0" y="0" fill="#000000" font-size="40" font-family='bravura'></text></g><line x1="0.8" x2="0.8" y1="1.8399999999999999" y2="36.84" stroke="#000000" stroke-width="1.6"></line><g><text x="-25" y="0" font-size="40" font-family='bravura'></text><g><text x="-18" y="0" fill="#000000" font-size="40" font-family='bravura'></text><rect data-selection-info="accidental-0" width="4" height="5" x="-19.2" y="-2.5" fill="transparent" class="mn_handle"></rect></g><text x="-11.28" y="0" font-size="40" font-family='bravura'></text></g></g></g><line x1="763.7059821095247" x2="763.7059821095247" y1="77.6" y2="117.6" stroke="#2A2A2A" stroke-width="1.6"></line><g><g><text x="775.7059821095247" y="87.6" fill="#000000" font-size="40" font-family='bravura'></text><text x="787.7059821095247" y="87.6" fill="#000000" font-size="40" font-family='bravura'></text></g><g><text x="780.7059821095247" y="107.6" fill="#000000" font-size="40" font-family='bravura'></text></g></g><g x="828.7059821095247" y="97.6" transform="translate(828.7059821095247,97.6)"><g><g><text x="0" y="5" fill="#000000" font-size="40" font-family='bravura'></text></g><line x1="-0.8" x2="-0.8" y1="5" y2="-30" stroke="#000000" stroke-width="1.6"></line></g></g><g x="933.3650632065487" y="97.6" transform="translate(933.3650632065487,97.6)"><g><g><text x="0" y="5" fill="#000000" font-size="40" font-family='bravura'></text></g><line x1="12.84" x2="12.84" y1="3.08" y2="-31.92" stroke="#000000" stroke-width="1.6"></line><g><text x="-25" y="5" font-size="40" font-family='bravura'></text><g><text x="-18" y="5" fill="#000000" font-size="40" font-family='bravura'></text><rect data-selection-info="accidental-0" width="4" height="5" x="-19.2" y="2.5" fill="transparent" class="mn_handle"></rect></g><text x="-11.28" y="5" font-size="40" font-family='bravura'></text></g></g></g><g x="1011.357477636906" y="97.6" transform="translate(1011.357477636906,97.6)"><g><g><text x="0" y="5" fill="#000000" font-size="40" font-family='bravura'></text></g><line x1="12.48" x2="12.48" y1="3.16" y2="-31.84" stroke="#000000" stroke-width="1.6"></line><text x="11.88" y="-31.84" fill="#000000" font-size="40" font-family='bravura'></text><g><text x="-25" y="5" font-size="40" font-family='bravura'></text><g><text x="-18" y="5" fill="#000000" font-size="40" font-family='bravura'></text><rect data-selection-info="accidental-0" width="4" height="5" x="-19.2" y="2.5" fill="transparent" class="mn_handle"></rect></g><text x="-11.28" y="5" font-size="40" font-family='bravura'></text></g></g></g><g><line x1="1062.6832254005965" x2="1062.6832254005965" y1="77.6" y2="117.6" stroke="#2A2A2A" stroke-width="1.6"></line><line x1="1071.6832254005965" x2="1071.6832254005965" y1="77.6" y2="117.6" stroke="#2A2A2A" stroke-width="5"></line><rect opacity="1" x="1073.2832254005964" y="76.6" stroke="#FFFFFF" fill="#FFFFFF" height="42" width="4000"></rect></g></g></g></svg>