<?xml version="1.0" encoding="UTF-8" standalone="no"?><svg xmlns="http://www.w3.org/2000/svg"  data-page="0" height="279.4mm" viewBox="0 0 1381.7600000000002 1788.1599999999999" width="215.90000000000003mm"><g style="font-size:6.25px;"></g><g style="font-size:6.25px;"><g><g><g><line x1="205.6" x2="1284.1600000000003" y1="172.6" y2="172.6" stroke="#6A6A6A" stroke-width="1.3"></line><line x1="205.6" x2="1284.1600000000003" y1="162.6" y2="162.6" stroke="#6A6A6A" stroke-width="1.3"></line><line x1="205.6" x2="1284.1600000000003" y1="152.6" y2="152.6" stroke="#6A6A6A" stroke-width="1.3"></line><line x1="205.6" x2="1284.1600000000003" y1="142.6" y2="142.6" stroke="#6A6A6A" stroke-width="1.3"></line><line x1="205.6" x2="1284.1600000000003" y1="132.6" y2="132.6" stroke="#6A6A6A" stroke-width="1.3"></line></g></g><text x="213.6" y="162.6" fill="#000000" font-size="40" font-family='bravura'></text><g></g><text x="260.1" y="152.6" fill="#000000" font-size="40" font-family='bravura'></text><g x="313.1" y="152.6" transform="translate(313.1,152.6)"><g><g><text x="0" y="30" fill="#000000" font-size="40" font-family='bravura'></text></g><line x1="-3.2" x2="23.599999999999998" y1="30" y2="30" stroke="#000000" stroke-width="2.2"></line></g></g><line x1="345.9236272727273" x2="345.9236272727273" y1="132.6" y2="172.6" stroke="#2A2A2A" stroke-width="1.6"></line><text x="357.9236272727273" y="152.6" fill="#000000" font-size="40" font-family='bravura'></text><g x="406.9236272727273" y="152.6" transform="translate(406.9236272727273,152.6)"><g><g><text x="0" y="0" fill="#000000" font-size="40" font-family='bravura'></text></g></g></g><line x1="439.74725454545455" x2="439.74725454545455" y1="132.6" y2="172.6" stroke="#2A2A2A" stroke-width="1.6"></line><text x="451.74725454545455" y="142.6" fill="#000000" font-size="40" font-family='bravura'></text><g x="500.74725454545455" y="152.6" transform="translate(500.74725454545455,152.6)"><g><g><text x="0" y="-10" fill="#000000" font-size="40" font-family='bravura'></text></g></g></g><line x1="533.5708818181819" x2="533.5708818181819" y1="132.6" y2="172.6" stroke="#2A2A2A" stroke-width="1.6"></line><text x="545.5708818181819" y="142.6" fill="#000000" font-size="40" font-family='bravura'></text><g x="594.5708818181819" y="152.6" transform="translate(594.5708818181819,152.6)"><g><g><text x="0" y="-30" fill="#000000" font-size="40" font-family='bravura'></text></g><line x1="-3.2" x2="23.599999999999998" y1="-30" y2="-30" stroke="#000000" stroke-width="2.2"></line></g></g><line x1="627.3945090909091" x2="627.3945090909091" y1="132.6" y2="172.6" stroke="#2A2A2A" stroke-width="1.6"></line><text x="639.3945090909091" y="152.6" fill="#000000" font-size="40" font-family='bravura'></text><g x="688.3945090909091" y="152.6" transform="translate(688.3945090909091,152.6)"><g><g><text x="0" y="0" fill="#000000" font-size="40" font-family='bravura'></text></g></g></g><line x1="721.2181363636364" x2="721.2181363636364" y1="132.6" y2="172.6" stroke="#2A2A2A" stroke-width="1.6"></line><text x="733.2181363636364" y="162.6" fill="#000000" font-size="40" font-family='bravura'></text><g x="782.2181363636364" y="152.6" transform="translate(782.2181363636364,152.6)"><g><g><text x="0" y="-5" fill="#000000" font-size="40" font-family='bravura'></text></g></g></g><line x1="815.0417636363637" x2="815.0417636363637" y1="132.6" y2="172.6" stroke="#2A2A2A" stroke-width="1.6"></line><text x="827.0417636363637" y="142.6" fill="#000000" font-size="40" font-family='bravura'></text><g x="876.0417636363637" y="152.6" transform="translate(876.0417636363637,152.6)"><g><g><text x="0" y="-65" fill="#000000" font-size="40" font-family='bravura'></text></g><line x1="-3.2" x2="23.599999999999998" y1="-30" y2="-30" stroke="#000000" stroke-width="2.2"></line><line x1="-3.2" x2="23.599999999999998" y1="-40" y2="-40" stroke="#000000" stroke-width="2.2"></line><line x1="-3.2" x2="23.599999999999998" y1="-50" y2="-50" stroke="#000000" stroke-width="2.2"></line><line x1="-3.2" x2="23.599999999999998" y1="-60" y2="-60" stroke="#000000" stroke-width="2.2"></line></g></g><line x1="908.8653909090909" x2="908.8653909090909" y1="132.6" y2="172.6" stroke="#2A2A2A" stroke-width="1.6"></line><text x="920.8653909090909" y="152.6" fill="#000000" font-size="40" font-family='bravura'></text><g x="969.8653909090909" y="152.6" transform="translate(969.8653909090909,152.6)"><g><g><text x="0" y="-20" fill="#000000" font-size="40" font-family='bravura'></text></g></g></g><line x1="1002.6890181818183" x2="1002.6890181818183" y1="132.6" y2="172.6" stroke="#2A2A2A" stroke-width="1.6"></line><text x="1014.6890181818183" y="172.6" fill="#000000" font-size="40" font-family='bravura'></text><g x="1063.689018181818" y="152.6" transform="translate(1063.689018181818,152.6)"><g><g><text x="0" y="40" fill="#000000" font-size="40" font-family='bravura'></text></g><line x1="-3.2" x2="23.599999999999998" y1="30" y2="30" stroke="#000000" stroke-width="2.2"></line><line x1="-3.2" x2="23.599999999999998" y1="40" y2="40" stroke="#000000" stroke-width="2.2"></line></g></g><line x1="1096.5126454545455" x2="1096.5126454545455" y1="132.6" y2="172.6" stroke="#2A2A2A" stroke-width="1.6"></line><text x="1108.5126454545455" y="132.6" fill="#000000" font-size="40" font-family='bravura'></text><g x="1157.5126454545455" y="152.6" transform="translate(1157.5126454545455,152.6)"><g><g><text x="0" y="-20" fill="#000000" font-size="40" font-family='bravura'></text></g></g></g><line x1="1190.336272727273" x2="1190.336272727273" y1="132.6" y2="172.6" stroke="#2A2A2A" stroke-width="1.6"></line><text x="1202.336272727273" y="162.6" fill="#000000" font-size="40" font-family='bravura'></text><g x="1251.336272727273" y="152.6" transform="translate(1251.336272727273,152.6)"><g><g><text x="0" y="10" fill="#000000" font-size="40" font-family='bravura'></text></g></g></g><line x1="1284.1599000000003" x2="1284.1599000000003" y1="132.6" y2="172.6" stroke="#2A2A2A" stroke-width="1.6"></line></g><g><g><g><line x1="97.6" x2="1284.1600000000003" y1="303.6" y2="303.6" stroke="#6A6A6A" stroke-width="1.3"></line><line x1="97.6" x2="1284.1600000000003" y1="293.6" y2="293.6" stroke="#6A6A6A" stroke-width="1.3"></line><line x1="97.6" x2="1284.1600000000003" y1="283.6" y2="283.6" stroke="#6A6A6A" stroke-width="1.3"></line><line x1="97.6" x2="1284.1600000000003" y1="273.6" y2="273.6" stroke="#6A6A6A" stroke-width="1.3"></line><line x1="97.6" x2="1284.1600000000003" y1="263.6" y2="263.6" stroke="#6A6A6A" stroke-width="1.3"></line></g><text x="97.6" y="253.60000000000002" font-size="24" class="bn_">12</text></g><text x="105.60000000000002" y="303.6" fill="#000000" font-size="40" font-family='bravura'></text><g></g><g x="152.10000000000002" y="283.6" transform="translate(152.10000000000002,283.6)"><g><g><text x="0" y="20" fill="#000000" font-size="40" font-family='bravura'></text></g></g></g><line x1="211.96675723114797" x2="211.96675723114797" y1="263.6" y2="303.6" stroke="#2A2A2A" stroke-width="1.6"></line><text x="223.96675723114797" y="283.6" fill="#000000" font-size="40" font-family='bravura'></text><g x="272.966757231148" y="283.6" transform="translate(272.966757231148,283.6)"><g><g><text x="0" y="0" fill="#000000" font-size="40" font-family='bravura'></text></g></g></g><line x1="332.8335144622959" x2="332.8335144622959" y1="263.6" y2="303.6" stroke="#2A2A2A" stroke-width="1.6"></line><text x="344.8335144622959" y="293.6" fill="#000000" font-size="40" font-family='bravura'></text><g x="393.8335144622959" y="283.6" transform="translate(393.8335144622959,283.6)"><g><g><text x="0" y="65" fill="#000000" font-size="40" font-family='bravura'></text></g><line x1="-3.2" x2="23.599999999999998" y1="30" y2="30" stroke="#000000" stroke-width="2.2"></line><line x1="-3.2" x2="23.599999999999998" y1="40" y2="40" stroke="#000000" stroke-width="2.2"></line><line x1="-3.2" x2="23.599999999999998" y1="50" y2="50" stroke="#000000" stroke-width="2.2"></line><line x1="-3.2" x2="23.599999999999998" y1="60" y2="60" stroke="#000000" stroke-width="2.2"></line></g></g><line x1="453.7002716934438" x2="453.7002716934438" y1="263.6" y2="303.6" stroke="#2A2A2A" stroke-width="1.6"></line><text x="465.7002716934438" y="273.6" fill="#000000" font-size="40" font-family='bravura'></text><g x="514.7002716934438" y="283.6" transform="translate(514.7002716934438,283.6)"><g><g><text x="0" y="5" fill="#000000" font-size="40" font-family='bravura'></text></g></g></g><line x1="574.5670289245918" x2="574.5670289245918" y1="263.6" y2="303.6" stroke="#2A2A2A" stroke-width="1.6"></line><text x="586.5670289245918" y="263.6" fill="#000000" font-size="40" font-family='bravura'></text><g x="635.5670289245918" y="283.6" transform="translate(635.5670289245918,283.6)"><g><g><text x="0" y="0" fill="#000000" font-size="40" font-family='bravura'></text></g></g></g><line x1="695.4337861557397" x2="695.4337861557397" y1="263.6" y2="303.6" stroke="#2A2A2A" stroke-width="1.6"></line><text x="707.4337861557397" y="283.6" fill="#000000" font-size="40" font-family='bravura'></text><g x="756.4337861557397" y="283.6" transform="translate(756.4337861557397,283.6)"><g><g><text x="0" y="0" fill="#000000" font-size="40" font-family='bravura'></text></g></g></g><line x1="816.3005433868876" x2="816.3005433868876" y1="263.6" y2="303.6" stroke="#2A2A2A" stroke-width="1.6"></line><text x="828.3005433868876" y="293.6" fill="#000000" font-size="40" font-family='bravura'></text><g x="877.3005433868876" y="283.6" transform="translate(877.3005433868876,283.6)"><g><g><text x="0" y="30" fill="#000000" font-size="40" font-family='bravura'></text></g><line x1="-3.2" x2="23.599999999999998" y1="30" y2="30" stroke="#000000" stroke-width="2.2"></line></g></g><g><line x1="937.1673006180355" x2="937.1673006180355" y1="263.6" y2="303.6" stroke="#2A2A2A" stroke-width="1.6"></line><line x1="946.1673006180355" x2="946.1673006180355" y1="263.6" y2="303.6" stroke="#2A2A2A" stroke-width="5"></line><rect opacity="1" x="947.7673006180355" y="262.6" stroke="#FFFFFF" fill="#FFFFFF" height="42" width="4000"></rect></g></g></g></svg>