<?xml version="1.0" encoding="UTF-8" standalone="no"?><svg xmlns="http://www.w3.org/2000/svg"  data-page="0" height="279.4mm" viewBox="0 0 1381.7600000000002 1788.1599999999999" width="215.90000000000003mm"><g style="font-size:6.25px;"></g><g style="font-size:6.25px;"><g><g><g><line x1="205.59999999999997" x2="1284.1600000000003" y1="132.6" y2="132.6" stroke="#6A6A6A" stroke-width="1.3"></line><line x1="205.59999999999997" x2="1284.1600000000003" y1="122.6" y2="122.6" stroke="#6A6A6A" stroke-width="1.3"></line><line x1="205.59999999999997" x2="1284.1600000000003" y1="112.6" y2="112.6" stroke="#6A6A6A" stroke-width="1.3"></line><line x1="205.59999999999997" x2="1284.1600000000003" y1="102.6" y2="102.6" stroke="#6A6A6A" stroke-width="1.3"></line><line x1="205.59999999999997" x2="1284.1600000000003" y1="92.6" y2="92.6" stroke="#6A6A6A" stroke-width="1.3"></line></g></g><text x="213.59999999999997" y="122.6" fill="#000000" font-size="40" font-family='bravura'></text><g></g><g><g><text x="260.09999999999997" y="102.6" fill="#000000" font-size="40" font-family='bravura'></text></g><g><text x="260.09999999999997" y="122.6" fill="#000000" font-size="40" font-family='bravura'></text></g></g><g x="313.09999999999997" y="112.6" transform="translate(313.09999999999997,112.6)"><g><g><text x="0" y="15" fill="#000000" font-size="40" font-family='bravura'></text><g><circle data-selection-info="dotted" cx="19.28" cy="15" fill="#000000" r="2.4"></circle><rect data-selection-info="dotted" width="3" height="3" x="15.280000000000001" y="11" fill="transparent" class="mn_handle"></rect></g></g><g><text x="0" y="5" fill="#000000" font-size="40" font-family='bravura'></text><g><circle data-selection-info="dotted" cx="19.28" cy="5" fill="#000000" r="2.4"></circle><rect data-selection-info="dotted" width="3" height="3" x="15.280000000000001" y="1" fill="transparent" class="mn_handle"></rect></g></g><g><text x="0" y="-5" fill="#000000" font-size="40" font-family='bravura'></text><g><circle data-selection-info="dotted" cx="19.28" cy="-5" fill="#000000" r="2.4"></circle><rect data-selection-info="dotted" width="3" height="3" x="15.280000000000001" y="-9" fill="transparent" class="mn_handle"></rect></g></g><line x1="12.48" x2="12.48" y1="13.16" y2="-31.84" stroke="#000000" stroke-width="1.6"></line></g></g><g x="397.14452565942554" y="112.6" transform="translate(397.14452565942554,112.6)"><g><g><text x="0" y="5" fill="#000000" font-size="40" font-family='bravura'></text></g><g><text x="0" y="-25" fill="#000000" font-size="40" font-family='bravura'></text></g><line x1="0.8" x2="0.8" y1="-23.16" y2="31.84" stroke="#000000" stroke-width="1.6"></line><text x="0" y="31.84" fill="#000000" font-size="40" font-family='bravura'></text><g><text x="-25" y="5" font-size="40" font-family='bravura'></text><g><text x="-18" y="5" fill="#000000" font-size="40" font-family='bravura'></text><rect data-selection-info="accidental-0" width="4" height="5" x="-19.2" y="2.5" fill="transparent" class="mn_handle"></rect></g><text x="-11.28" y="5" font-size="40" font-family='bravura'></text></g></g></g><g x="460.05621797590226" y="112.6" transform="translate(460.05621797590226,112.6)"><g><g><text x="0" y="5" fill="#000000" font-size="40" font-family='bravura'></text></g><g><text x="0" y="15" fill="#000000" font-size="40" font-family='bravura'></text></g><g><text x="0" y="-5" fill="#000000" font-size="40" font-family='bravura'></text></g><line x1="12.48" x2="12.48" y1="13.16" y2="-31.84" stroke="#000000" stroke-width="1.6"></line><g><text x="-25" y="5" font-size="40" font-family='bravura'></text><g><text x="-18" y="5" fill="#000000" font-size="40" font-family='bravura'></text><rect data-selection-info="accidental-0" width="4" height="5" x="-19.2" y="2.5" fill="transparent" class="mn_handle"></rect></g><text x="-11.28" y="5" font-size="40" font-family='bravura'></text></g><g><text x="-30" y="15" font-size="40" font-family='bravura'></text><g><text x="-23" y="15" fill="#000000" font-size="40" font-family='bravura'></text><rect data-selection-info="accidental-1" width="4" height="5" x="-24.2" y="12.5" fill="transparent" class="mn_handle"></rect></g><text x="-16.28" y="15" font-size="40" font-family='bravura'></text></g><g><text x="-35" y="-5" font-size="40" font-family='bravura'></text><g><text x="-28" y="-5" fill="#000000" font-size="40" font-family='bravura'></text><rect data-selection-info="accidental-2" width="4" height="5" x="-29.2" y="-7.5" fill="transparent" class="mn_handle"></rect></g><text x="-21.28" y="-5" font-size="40" font-family='bravura'></text></g></g></g><g x="536.3012436257123" y="112.6" transform="translate(536.3012436257123,112.6)"><g><g><text x="0" y="5" fill="#000000" font-size="40" font-family='bravura'></text></g><g><text x="0" y="15" fill="#000000" font-size="40" font-family='bravura'></text></g><g><text x="0" y="-5" fill="#000000" font-size="40" font-family='bravura'></text></g><line x1="12.48" x2="12.48" y1="13.16" y2="-31.84" stroke="#000000" stroke-width="1.6"></line><g><text x="-25" y="5" font-size="40" font-family='bravura'></text><g><text x="-18" y="5" fill="#000000" font-size="40" font-family='bravura'></text><rect data-selection-info="accidental-0" width="4" height="5" x="-19.2" y="2.5" fill="transparent" class="mn_handle"></rect></g><text x="-11.28" y="5" font-size="40" font-family='bravura'></text></g><g><text x="-30" y="15" font-size="40" font-family='bravura'></text><g><text x="-23" y="15" fill="#000000" font-size="40" font-family='bravura'></text><rect data-selection-info="accidental-1" width="4" height="5" x="-24.2" y="12.5" fill="transparent" class="mn_handle"></rect></g><text x="-16.28" y="15" font-size="40" font-family='bravura'></text></g><g><text x="-35" y="-5" font-size="40" font-family='bravura'></text><g><text x="-28" y="-5" fill="#000000" font-size="40" font-family='bravura'></text><rect data-selection-info="accidental-2" width="4" height="5" x="-29.2" y="-7.5" fill="transparent" class="mn_handle"></rect></g><text x="-21.28" y="-5" font-size="40" font-family='bravura'></text></g></g></g><line x1="612.5462692755225" x2="612.5462692755225" y1="92.6" y2="132.6" stroke="#2A2A2A" stroke-width="1.6"></line><g x="634.5462692755225" y="112.6" transform="translate(634.5462692755225,112.6)"><g><g><text x="0" y="5" fill="#000000" font-size="40" font-family='bravura'></text></g><g><text x="0" y="15" fill="#000000" font-size="40" font-family='bravura'></text></g><g><text x="0" y="-15" fill="#000000" font-size="40" font-family='bravura'></text></g><line x1="12.48" x2="12.48" y1="13.16" y2="-41.84" stroke="#000000" stroke-width="1.6"></line></g></g><g x="710.7912949253326" y="112.6" transform="translate(710.7912949253326,112.6)"><g><g><text x="0" y="5" fill="#000000" font-size="40" font-family='bravura'></text></g><g><text x="0" y="15" fill="#000000" font-size="40" font-family='bravura'></text></g><g><text x="0" y="-20" fill="#000000" font-size="40" font-family='bravura'></text></g><line x1="12.48" x2="12.48" y1="13.16" y2="-46.84" stroke="#000000" stroke-width="1.6"></line><g><text x="-25" y="5" font-size="40" font-family='bravura'></text><g><text x="-18" y="5" fill="#000000" font-size="40" font-family='bravura'></text><rect data-selection-info="accidental-0" width="4" height="5" x="-19.2" y="2.5" fill="transparent" class="mn_handle"></rect></g><text x="-11.28" y="5" font-size="40" font-family='bravura'></text></g><g><text x="-30" y="15" font-size="40" font-family='bravura'></text><g><text x="-23" y="15" fill="#000000" font-size="40" font-family='bravura'></text><rect data-selection-info="accidental-1" width="4" height="5" x="-24.2" y="12.5" fill="transparent" class="mn_handle"></rect></g><text x="-16.28" y="15" font-size="40" font-family='bravura'></text></g><g><text x="-35" y="-20" font-size="40" font-family='bravura'></text><g><text x="-28" y="-20" fill="#000000" font-size="40" font-family='bravura'></text><rect data-selection-info="accidental-2" width="4" height="5" x="-29.2" y="-22.5" fill="transparent" class="mn_handle"></rect></g><text x="-21.28" y="-20" font-size="40" font-family='bravura'></text></g></g></g><g x="787.0363205751428" y="112.6" transform="translate(787.0363205751428,112.6)"><g><g><text x="0" y="5" fill="#000000" font-size="40" font-family='bravura'></text></g><g><text x="0" y="15" fill="#000000" font-size="40" font-family='bravura'></text></g><g><text x="0" y="-10" fill="#000000" font-size="40" font-family='bravura'></text></g><line x1="12.84" x2="12.84" y1="13.08" y2="-36.92" stroke="#000000" stroke-width="1.6"></line><g><text x="-25" y="5" font-size="40" font-family='bravura'></text><g><text x="-18" y="5" fill="#000000" font-size="40" font-family='bravura'></text><rect data-selection-info="accidental-0" width="4" height="5" x="-19.2" y="2.5" fill="transparent" class="mn_handle"></rect></g><text x="-11.28" y="5" font-size="40" font-family='bravura'></text></g><g><text x="-30" y="15" font-size="40" font-family='bravura'></text><g><text x="-23" y="15" fill="#000000" font-size="40" font-family='bravura'></text><rect data-selection-info="accidental-1" width="4" height="5" x="-24.2" y="12.5" fill="transparent" class="mn_handle"></rect></g><text x="-16.28" y="15" font-size="40" font-family='bravura'></text></g></g></g><g><line x1="876.6146795582863" x2="876.6146795582863" y1="92.6" y2="132.6" stroke="#2A2A2A" stroke-width="1.6"></line><line x1="885.6146795582863" x2="885.6146795582863" y1="92.6" y2="132.6" stroke="#2A2A2A" stroke-width="5"></line><rect opacity="1" x="887.2146795582863" y="91.6" stroke="#FFFFFF" fill="#FFFFFF" height="42" width="4000"></rect></g></g></g></svg>