<?xml version="1.0" encoding="UTF-8" standalone="no"?><svg xmlns="http://www.w3.org/2000/svg"  data-page="0" height="279.4mm" viewBox="0 0 1381.7600000000002 1788.1599999999999" width="215.90000000000003mm"><g style="font-size:6.25px;"></g><g style="font-size:6.25px;"><g><g><g><line x1="205.6" x2="1284.1600000000003" y1="117.6" y2="117.6" stroke="#6A6A6A" stroke-width="1.3"></line><line x1="205.6" x2="1284.1600000000003" y1="107.6" y2="107.6" stroke="#6A6A6A" stroke-width="1.3"></line><line x1="205.6" x2="1284.1600000000003" y1="97.6" y2="97.6" stroke="#6A6A6A" stroke-width="1.3"></line><line x1="205.6" x2="1284.1600000000003" y1="87.6" y2="87.6" stroke="#6A6A6A" stroke-width="1.3"></line><line x1="205.6" x2="1284.1600000000003" y1="77.6" y2="77.6" stroke="#6A6A6A" stroke-width="1.3"></line></g></g><text x="213.6" y="107.6" fill="#000000" font-size="40" font-family='bravura'></text><g></g><text x="260.1" y="97.6" fill="#000000" font-size="40" font-family='bravura'></text><g x="313.1" y="97.6" transform="translate(313.1,97.6)"><g><g><text x="0" y="5" fill="#000000" font-size="40" font-family='bravura'></text></g><line x1="12.48" x2="12.48" y1="3.16" y2="-31.84" stroke="#000000" stroke-width="1.6"></line></g></g><g x="385.0288719791394" y="97.6" transform="translate(385.0288719791394,97.6)"><g><g><text x="0" y="5" fill="#000000" font-size="40" font-family='bravura'></text></g><line x1="12.48" x2="12.48" y1="3.16" y2="-31.84" stroke="#000000" stroke-width="1.6"></line><g><text x="-25" y="5" font-size="40" font-family='bravura'></text><g><text x="-18" y="5" fill="#000000" font-size="40" font-family='bravura'></text><rect data-selection-info="accidental-0" width="4" height="5" x="-19.2" y="2.5" fill="transparent" class="mn_handle"></rect></g><text x="-11.28" y="5" font-size="40" font-family='bravura'></text></g><text text-anchor="middle" font-size="22" x="6.640000000000001" y="60">slash, no stem</text></g></g><g x="456.9577439582788" y="97.6" transform="translate(456.9577439582788,97.6)"><g><g><text x="0" y="-5" fill="#000000" font-size="40" font-family='bravura'></text></g><line x1="0.8" x2="0.8" y1="-3.16" y2="31.84" stroke="#000000" stroke-width="1.6"></line></g></g><g x="537.5876159374181" y="97.6" transform="translate(537.5876159374181,97.6)"><g><g><text x="0" y="5" fill="#000000" font-size="40" font-family='bravura'></text></g><line x1="12.48" x2="12.48" y1="3.16" y2="-31.84" stroke="#000000" stroke-width="1.6"></line><g><text x="-25" y="5" font-size="40" font-family='bravura'></text><g><text x="-18" y="5" fill="#000000" font-size="40" font-family='bravura'></text><rect data-selection-info="accidental-0" width="4" height="5" x="-19.2" y="2.5" fill="transparent" class="mn_handle"></rect></g><text x="-11.28" y="5" font-size="40" font-family='bravura'></text></g><text text-anchor="middle" font-size="22" x="6.640000000000001" y="60">slash, with stem</text></g></g><line x1="618.2174879165575" x2="618.2174879165575" y1="77.6" y2="117.6" stroke="#2A2A2A" stroke-width="1.6"></line><g x="640.2174879165575" y="97.6" transform="translate(640.2174879165575,97.6)"><g><g><text x="0" y="-5" fill="#000000" font-size="40" font-family='bravura'></text></g><line x1="0.8" x2="0.8" y1="-3.16" y2="31.84" stroke="#000000" stroke-width="1.6"></line></g></g><g x="707.5263598956969" y="97.6" transform="translate(707.5263598956969,97.6)"><g><g><text x="0" y="5" fill="#000000" font-size="40" font-family='bravura'></text></g><line x1="12.48" x2="12.48" y1="3.16" y2="-31.84" stroke="#000000" stroke-width="1.6"></line><text text-anchor="middle" font-size="22" x="6.640000000000001" y="60">hidden notes</text></g></g><g x="774.8352318748365" y="97.6" transform="translate(774.8352318748365,97.6)"><g><g><text x="0" y="-5" fill="#000000" font-size="40" font-family='bravura'></text></g><line x1="0.8" x2="0.8" y1="-3.16" y2="31.84" stroke="#000000" stroke-width="1.6"></line><g><text x="-25" y="-5" font-size="40" font-family='bravura'></text><g><text x="-18" y="-5" fill="#000000" font-size="40" font-family='bravura'></text><rect data-selection-info="accidental-0" width="4" height="5" x="-19.2" y="-7.5" fill="transparent" class="mn_handle"></rect></g><text x="-11.28" y="-5" font-size="40" font-family='bravura'></text></g></g></g><g x="890.9621038539759" y="97.6" transform="translate(890.9621038539759,97.6)"><g><g><text x="0" y="30" fill="#000000" font-size="40" font-family='bravura'></text></g><line x1="12.48" x2="12.48" y1="28.16" y2="-6.84" stroke="#000000" stroke-width="1.6"></line><g><text x="-25" y="30" font-size="40" font-family='bravura'></text><g><text x="-18" y="30" fill="#000000" font-size="40" font-family='bravura'></text><rect data-selection-info="accidental-0" width="4" height="5" x="-19.2" y="27.5" fill="transparent" class="mn_handle"></rect></g><text x="-11.28" y="30" font-size="40" font-family='bravura'></text></g><line x1="-3.2" x2="18.72" y1="30" y2="30" stroke="#000000" stroke-width="2.2"></line><text text-anchor="middle" font-size="22" x="6.640000000000001" y="60">hidden notes, staff lines</text></g></g><line x1="1007.0889758331153" x2="1007.0889758331153" y1="77.6" y2="117.6" stroke="#2A2A2A" stroke-width="1.6"></line><g x="1019.0889758331153" y="97.6" transform="translate(1019.0889758331153,97.6)"><g><g><text x="0" y="25" fill="#000000" font-size="40" font-family='bravura'></text></g><line x1="12.84" x2="12.84" y1="23.08" y2="-11.920000000000002" stroke="#000000" stroke-width="1.6"></line></g></g><g x="1138.4938478122547" y="97.6" transform="translate(1138.4938478122547,97.6)"><g><g><text x="0" y="10" fill="#000000" font-size="40" font-family='bravura'></text></g><line x1="12.84" x2="12.84" y1="8.08" y2="-26.92" stroke="#000000" stroke-width="1.6"></line><text text-anchor="middle" font-size="22" x="6.82" y="60">normal settings restored</text></g></g><g><line x1="1257.898719791394" x2="1257.898719791394" y1="77.6" y2="117.6" stroke="#2A2A2A" stroke-width="1.6"></line><line x1="1266.898719791394" x2="1266.898719791394" y1="77.6" y2="117.6" stroke="#2A2A2A" stroke-width="5"></line><rect opacity="1" x="1268.4987197913938" y="76.6" stroke="#FFFFFF" fill="#FFFFFF" height="42" width="4000"></rect></g></g></g></svg>