<?xml version="1.0" encoding="UTF-8" standalone="no"?><svg xmlns="http://www.w3.org/2000/svg"  data-page="0" height="279.4mm" viewBox="0 0 1381.7600000000002 1788.1599999999999" width="215.90000000000003mm"><g style="font-size:6.25px;"></g><g style="font-size:6.25px;"><g><g><g><line x1="205.59999999999997" x2="1284.1600000000003" y1="122.6" y2="122.6" stroke="#6A6A6A" stroke-width="1.3"></line><line x1="205.59999999999997" x2="1284.1600000000003" y1="112.6" y2="112.6" stroke="#6A6A6A" stroke-width="1.3"></line><line x1="205.59999999999997" x2="1284.1600000000003" y1="102.6" y2="102.6" stroke="#6A6A6A" stroke-width="1.3"></line><line x1="205.59999999999997" x2="1284.1600000000003" y1="92.6" y2="92.6" stroke="#6A6A6A" stroke-width="1.3"></line><line x1="205.59999999999997" x2="1284.1600000000003" y1="82.6" y2="82.6" stroke="#6A6A6A" stroke-width="1.3"></line></g></g><text x="213.59999999999997" y="112.6" fill="#000000" font-size="40" font-family='bravura'></text><g></g><text x="260.1" y="102.6" fill="#000000" font-size="40" font-family='bravura'></text><g x="313.1" y="102.6" transform="translate(313.1,102.6)"><g><g><text x="0" y="-15" fill="#000000" font-size="40" font-family='bravura'></text></g><g><text x="0" y="-5" fill="#000000" font-size="40" font-family='bravura'></text></g><g><text x="0" y="5" fill="#000000" font-size="40" font-family='bravura'></text></g><line x1="0.8" x2="0.8" y1="-13.16" y2="31.84" stroke="#000000" stroke-width="1.6"></line><text text-anchor="middle" font-size="22" x="6.640000000000001" y="60">normal</text><text text-anchor="middle" font-size="22" x="6.640000000000001" y="60">triangle</text><text text-anchor="middle" font-size="22" x="6.640000000000001" y="60">slash</text></g></g><g x="444.9577701215315" y="102.6" transform="translate(444.9577701215315,102.6)"><g><g><text x="0" y="-15" fill="#000000" font-size="40" font-family='bravura'></text></g><g><text x="0" y="-5" fill="#000000" font-size="40" font-family='bravura'></text></g><g><text x="0" y="5" fill="#000000" font-size="40" font-family='bravura'></text></g><line x1="0.8" x2="0.8" y1="-13.16" y2="31.84" stroke="#000000" stroke-width="1.6"></line><g><text x="-25" y="-15" font-size="40" font-family='bravura'></text><g><text x="-18" y="-15" fill="#000000" font-size="40" font-family='bravura'></text><rect data-selection-info="accidental-0" width="4" height="5" x="-19.2" y="-17.5" fill="transparent" class="mn_handle"></rect></g><text x="-11.28" y="-15" font-size="40" font-family='bravura'></text></g><g><text x="-30" y="-5" font-size="40" font-family='bravura'></text><g><text x="-23" y="-5" fill="#000000" font-size="40" font-family='bravura'></text><rect data-selection-info="accidental-1" width="4" height="5" x="-24.2" y="-7.5" fill="transparent" class="mn_handle"></rect></g><text x="-16.28" y="-5" font-size="40" font-family='bravura'></text></g><g><text x="-35" y="5" font-size="40" font-family='bravura'></text><g><text x="-28" y="5" fill="#000000" font-size="40" font-family='bravura'></text><rect data-selection-info="accidental-2" width="4" height="5" x="-29.2" y="2.5" fill="transparent" class="mn_handle"></rect></g><text x="-21.28" y="5" font-size="40" font-family='bravura'></text></g><text text-anchor="middle" font-size="22" x="6.640000000000001" y="60">cross</text><text text-anchor="middle" font-size="22" x="6.640000000000001" y="60">square</text><text text-anchor="middle" font-size="22" x="6.640000000000001" y="60">diamond</text></g></g><g x="616.8225402430629" y="102.6" transform="translate(616.8225402430629,102.6)"><g><g><text x="0" y="-15" fill="#000000" font-size="40" font-family='bravura'></text></g><g><text x="0" y="-5" fill="#000000" font-size="40" font-family='bravura'></text></g><g><text x="0" y="5" fill="#000000" font-size="40" font-family='bravura'></text></g><line x1="0.8" x2="0.8" y1="-13.16" y2="31.84" stroke="#000000" stroke-width="1.6"></line><g><text x="-25" y="-15" font-size="40" font-family='bravura'></text><g><text x="-18" y="-15" fill="#000000" font-size="40" font-family='bravura'></text><rect data-selection-info="accidental-0" width="4" height="5" x="-19.2" y="-17.5" fill="transparent" class="mn_handle"></rect></g><text x="-11.28" y="-15" font-size="40" font-family='bravura'></text></g><g><text x="-30" y="-5" font-size="40" font-family='bravura'></text><g><text x="-23" y="-5" fill="#000000" font-size="40" font-family='bravura'></text><rect data-selection-info="accidental-1" width="4" height="5" x="-24.2" y="-7.5" fill="transparent" class="mn_handle"></rect></g><text x="-16.28" y="-5" font-size="40" font-family='bravura'></text></g><g><text x="-35" y="5" font-size="40" font-family='bravura'></text><g><text x="-28" y="5" fill="#000000" font-size="40" font-family='bravura'></text><rect data-selection-info="accidental-2" width="4" height="5" x="-29.2" y="2.5" fill="transparent" class="mn_handle"></rect></g><text x="-21.28" y="5" font-size="40" font-family='bravura'></text></g><text text-anchor="middle" font-size="22" x="6.640000000000001" y="60">inverted triangle</text><text text-anchor="middle" font-size="22" x="6.640000000000001" y="60">circle-x</text><text text-anchor="middle" font-size="22" x="6.640000000000001" y="60">x</text></g></g><g x="802.1623103645943" y="102.6" transform="translate(802.1623103645943,102.6)"><g><g><text x="0" y="-15" fill="#000000" font-size="40" font-family='bravura'></text></g><g><text x="0" y="-5" fill="#000000" font-size="40" font-family='bravura'></text></g><g><text x="0" y="5" fill="#000000" font-size="40" font-family='bravura'></text></g><line x1="0.8" x2="0.8" y1="-13.16" y2="31.84" stroke="#000000" stroke-width="1.6"></line><g><text x="-25" y="-15" font-size="40" font-family='bravura'></text><g><text x="-18" y="-15" fill="#000000" font-size="40" font-family='bravura'></text><rect data-selection-info="accidental-0" width="4" height="5" x="-19.2" y="-17.5" fill="transparent" class="mn_handle"></rect></g><text x="-11.28" y="-15" font-size="40" font-family='bravura'></text></g><g><text x="-30" y="-5" font-size="40" font-family='bravura'></text><g><text x="-23" y="-5" fill="#000000" font-size="40" font-family='bravura'></text><rect data-selection-info="accidental-1" width="4" height="5" x="-24.2" y="-7.5" fill="transparent" class="mn_handle"></rect></g><text x="-16.28" y="-5" font-size="40" font-family='bravura'></text></g><g><text x="-35" y="5" font-size="40" font-family='bravura'></text><g><text x="-28" y="5" fill="#000000" font-size="40" font-family='bravura'></text><rect data-selection-info="accidental-2" width="4" height="5" x="-29.2" y="2.5" fill="transparent" class="mn_handle"></rect></g><text x="-21.28" y="5" font-size="40" font-family='bravura'></text></g><text text-anchor="middle" font-size="22" x="6.640000000000001" y="60">slashed</text><text text-anchor="middle" font-size="22" x="6.640000000000001" y="60">arrow up</text><text text-anchor="middle" font-size="22" x="6.640000000000001" y="60">arrow down</text></g></g><g><line x1="907.0860804861258" x2="907.0860804861258" y1="82.6" y2="122.6" stroke="#2A2A2A" stroke-width="1.6"></line><line x1="916.0860804861258" x2="916.0860804861258" y1="82.6" y2="122.6" stroke="#2A2A2A" stroke-width="5"></line><rect opacity="1" x="917.6860804861258" y="81.6" stroke="#FFFFFF" fill="#FFFFFF" height="42" width="4000"></rect></g></g></g></svg>