<?xml version="1.0" encoding="UTF-8" standalone="no"?><svg xmlns="http://www.w3.org/2000/svg"  data-page="0" height="279.4mm" viewBox="0 0 1381.7600000000002 1788.1599999999999" width="215.90000000000003mm"><g style="font-size:6.25px;"></g><g style="font-size:6.25px;"><g><g><g><line x1="205.5999999999998" x2="1284.1600000000003" y1="147.6" y2="147.6" stroke="#6A6A6A" stroke-width="1.3"></line><line x1="205.5999999999998" x2="1284.1600000000003" y1="137.6" y2="137.6" stroke="#6A6A6A" stroke-width="1.3"></line><line x1="205.5999999999998" x2="1284.1600000000003" y1="127.6" y2="127.6" stroke="#6A6A6A" stroke-width="1.3"></line><line x1="205.5999999999998" x2="1284.1600000000003" y1="117.6" y2="117.6" stroke="#6A6A6A" stroke-width="1.3"></line><line x1="205.5999999999998" x2="1284.1600000000003" y1="107.6" y2="107.6" stroke="#6A6A6A" stroke-width="1.3"></line></g></g><text x="213.5999999999998" y="137.6" fill="#000000" font-size="40" font-family='bravura'></text><g></g><g><g><text x="260.09999999999985" y="117.6" fill="#000000" font-size="40" font-family='bravura'></text><text x="272.09999999999985" y="117.6" fill="#000000" font-size="40" font-family='bravura'></text></g><g><text x="265.09999999999985" y="137.6" fill="#000000" font-size="40" font-family='bravura'></text></g></g><g x="313.09999999999985" y="127.6" transform="translate(313.09999999999985,127.6)"><g><g><text x="0" y="30" fill="#000000" font-size="40" font-family='bravura'></text></g><line x1="12.48" x2="12.48" y1="28.16" y2="-6.84" stroke="#000000" stroke-width="1.6"></line><g><polygon points="13.280000000000001,-32.04 93.0238306120336,-40.79 93.0238306120336,-39.19 13.280000000000001,-30.439999999999998" stroke="black" fill="black" stroke-width="0"></polygon><line x1="13.280000000000001" x2="13.280000000000001" y1="-32.04" y2="-26.439999999999998" stroke="black" fill="black" stroke-width="1.6"></line><line x1="93.0238306120336" x2="93.0238306120336" y1="-40.79" y2="-35.19" stroke="black" fill="black" stroke-width="1.6"></line><g><polygon stroke="white" fill="white" stroke-width="0" points="37.4719153060168,-44.015 37.4719153060168,-29.014999999999997 65.27191530601681,-29.014999999999997 65.27191530601681,-44.015"></polygon><g><text x="46.2719153060168" y="-29.014999999999997" fill="#000000" font-size="40" font-family='bravura'></text><rect data-selection-info="beamTuplet" width="4" height="5" x="45.0719153060168" y="-31.514999999999997" fill="transparent" class="mn_handle"></rect></g></g></g><line x1="-3.2" x2="18.72" y1="30" y2="30" stroke="#000000" stroke-width="2.2"></line></g></g><g x="352.9719153060167" y="127.6" transform="translate(352.9719153060167,127.6)"><g><g><text x="0" y="25" fill="#000000" font-size="40" font-family='bravura'></text></g><line x1="12.48" x2="12.48" y1="23.16" y2="-11.84" stroke="#000000" stroke-width="1.6"></line></g></g><g x="392.84383061203346" y="127.6" transform="translate(392.84383061203346,127.6)"><g><g><text x="0" y="20" fill="#000000" font-size="40" font-family='bravura'></text></g><line x1="12.48" x2="12.48" y1="18.16" y2="-16.84" stroke="#000000" stroke-width="1.6"></line></g></g><g x="432.7157459180503" y="127.6" transform="translate(432.7157459180503,127.6)"><g><g><text x="0" y="15" fill="#000000" font-size="40" font-family='bravura'></text></g><line x1="12.48" x2="12.48" y1="13.16" y2="-21.84" stroke="#000000" stroke-width="1.6"></line><g><polygon points="13.280000000000001,-45.79 93.02383061203366,-55.79 93.02383061203366,-54.19 13.280000000000001,-44.19" stroke="black" fill="black" stroke-width="0"></polygon><line x1="13.280000000000001" x2="13.280000000000001" y1="-45.79" y2="-40.19" stroke="black" fill="black" stroke-width="1.6"></line><line x1="93.02383061203366" x2="93.02383061203366" y1="-55.79" y2="-50.19" stroke="black" fill="black" stroke-width="1.6"></line><g><polygon stroke="white" fill="white" stroke-width="0" points="37.471915306016825,-58.39 37.471915306016825,-43.39 65.27191530601684,-43.39 65.27191530601684,-58.39"></polygon><g><text x="46.27191530601683" y="-43.39" fill="#000000" font-size="40" font-family='bravura'></text><rect data-selection-info="beamTuplet" width="4" height="5" x="45.07191530601683" y="-45.89" fill="transparent" class="mn_handle"></rect></g></g></g></g></g><g x="472.5876612240671" y="127.6" transform="translate(472.5876612240671,127.6)"><g><g><text x="0" y="10" fill="#000000" font-size="40" font-family='bravura'></text></g><line x1="12.48" x2="12.48" y1="8.16" y2="-26.84" stroke="#000000" stroke-width="1.6"></line></g></g><g x="512.459576530084" y="127.6" transform="translate(512.459576530084,127.6)"><g><g><text x="0" y="5" fill="#000000" font-size="40" font-family='bravura'></text></g><line x1="12.48" x2="12.48" y1="3.16" y2="-31.84" stroke="#000000" stroke-width="1.6"></line></g></g><g x="552.3314918361008" y="127.6" transform="translate(552.3314918361008,127.6)"><g><g><text x="0" y="0" fill="#000000" font-size="40" font-family='bravura'></text></g><line x1="0.8" x2="0.8" y1="1.8399999999999999" y2="36.84" stroke="#000000" stroke-width="1.6"></line><g><polygon points="0,55.91 79.74383061203366,45.91 79.74383061203366,47.51 0,57.51" stroke="black" fill="black" stroke-width="0"></polygon><line x1="0" x2="0" y1="57.51" y2="51.91" stroke="black" fill="black" stroke-width="1.6"></line><line x1="79.74383061203366" x2="79.74383061203366" y1="47.51" y2="41.91" stroke="black" fill="black" stroke-width="1.6"></line><g><polygon stroke="white" fill="white" stroke-width="0" points="24.67191530601683,43.309999999999995 24.67191530601683,58.309999999999995 52.47191530601683,58.309999999999995 52.47191530601683,43.309999999999995"></polygon><g><text x="33.47191530601683" y="58.309999999999995" fill="#000000" font-size="40" font-family='bravura'></text><rect data-selection-info="beamTuplet" width="4" height="5" x="32.27191530601683" y="55.809999999999995" fill="transparent" class="mn_handle"></rect></g></g></g></g></g><g x="592.2034071421176" y="127.6" transform="translate(592.2034071421176,127.6)"><g><g><text x="0" y="-5" fill="#000000" font-size="40" font-family='bravura'></text></g><line x1="0.8" x2="0.8" y1="-3.16" y2="31.84" stroke="#000000" stroke-width="1.6"></line><g><text x="-25" y="-5" font-size="40" font-family='bravura'></text><g><text x="-18" y="-5" fill="#000000" font-size="40" font-family='bravura'></text><rect data-selection-info="accidental-0" width="4" height="5" x="-19.2" y="-7.5" fill="transparent" class="mn_handle"></rect></g><text x="-11.28" y="-5" font-size="40" font-family='bravura'></text></g></g></g><g x="632.0753224481344" y="127.6" transform="translate(632.0753224481344,127.6)"><g><g><text x="0" y="-10" fill="#000000" font-size="40" font-family='bravura'></text></g><line x1="0.8" x2="0.8" y1="-8.16" y2="26.84" stroke="#000000" stroke-width="1.6"></line><g><text x="-25" y="-10" font-size="40" font-family='bravura'></text><g><text x="-18" y="-10" fill="#000000" font-size="40" font-family='bravura'></text><rect data-selection-info="accidental-0" width="4" height="5" x="-19.2" y="-12.5" fill="transparent" class="mn_handle"></rect></g><text x="-11.28" y="-10" font-size="40" font-family='bravura'></text></g></g></g><g x="671.9472377541513" y="127.6" transform="translate(671.9472377541513,127.6)"><g><g><text x="0" y="-15" fill="#000000" font-size="40" font-family='bravura'></text></g><line x1="0.8" x2="0.8" y1="-13.16" y2="21.84" stroke="#000000" stroke-width="1.6"></line><g><polygon points="0,40.91 103.01424594689684,37.16 103.01424594689684,38.76 0,42.51" stroke="black" fill="black" stroke-width="0"></polygon><line x1="0" x2="0" y1="42.51" y2="36.91" stroke="black" fill="black" stroke-width="1.6"></line><line x1="103.01424594689684" x2="103.01424594689684" y1="38.76" y2="33.16" stroke="black" fill="black" stroke-width="1.6"></line><g><polygon stroke="white" fill="white" stroke-width="0" points="36.20712297344841,31.514999999999993 36.20712297344841,46.434999999999995 64.00712297344842,46.434999999999995 64.00712297344842,31.514999999999993"></polygon><g><text x="45.087122973448416" y="46.434999999999995" fill="#000000" font-size="40" font-family='bravura'></text><rect data-selection-info="beamTuplet" width="4" height="5" x="43.88712297344841" y="43.934999999999995" fill="transparent" class="mn_handle"></rect></g></g></g><g><text x="-25" y="-15" font-size="40" font-family='bravura'></text><g><text x="-18" y="-15" fill="#000000" font-size="40" font-family='bravura'></text><rect data-selection-info="accidental-0" width="4" height="5" x="-19.2" y="-17.5" fill="transparent" class="mn_handle"></rect></g><text x="-11.28" y="-15" font-size="40" font-family='bravura'></text></g></g></g><g x="706.2853197364502" y="127.6" transform="translate(706.2853197364502,127.6)"><g><g><text x="0" y="-20" fill="#000000" font-size="40" font-family='bravura'></text></g><line x1="0.8" x2="0.8" y1="-18.16" y2="16.84" stroke="#000000" stroke-width="1.6"></line><g><text x="-25" y="-20" font-size="40" font-family='bravura'></text><g><text x="-18" y="-20" fill="#000000" font-size="40" font-family='bravura'></text><rect data-selection-info="accidental-0" width="4" height="5" x="-19.2" y="-22.5" fill="transparent" class="mn_handle"></rect></g><text x="-11.28" y="-20" font-size="40" font-family='bravura'></text></g></g></g><g x="740.6234017187492" y="127.6" transform="translate(740.6234017187492,127.6)"><g><g><text x="0" y="-25" fill="#000000" font-size="40" font-family='bravura'></text></g><line x1="0.8" x2="0.8" y1="-23.16" y2="11.84" stroke="#000000" stroke-width="1.6"></line><g><text x="-25" y="-25" font-size="40" font-family='bravura'></text><g><text x="-18" y="-25" fill="#000000" font-size="40" font-family='bravura'></text><rect data-selection-info="accidental-0" width="4" height="5" x="-19.2" y="-27.5" fill="transparent" class="mn_handle"></rect></g><text x="-11.28" y="-25" font-size="40" font-family='bravura'></text></g></g></g><g x="774.9614837010481" y="127.6" transform="translate(774.9614837010481,127.6)"><g><g><text x="0" y="-30" fill="#000000" font-size="40" font-family='bravura'></text></g><line x1="0.8" x2="0.8" y1="-28.16" y2="6.84" stroke="#000000" stroke-width="1.6"></line><g><text x="-25" y="-30" font-size="40" font-family='bravura'></text><g><text x="-18" y="-30" fill="#000000" font-size="40" font-family='bravura'></text><rect data-selection-info="accidental-0" width="4" height="5" x="-19.2" y="-32.5" fill="transparent" class="mn_handle"></rect></g><text x="-11.28" y="-30" font-size="40" font-family='bravura'></text></g><line x1="-3.2" x2="18.72" y1="-30" y2="-30" stroke="#000000" stroke-width="2.2"></line></g></g><g x="809.299565683347" y="127.6" transform="translate(809.299565683347,127.6)"><g><g><text x="0" y="-35" fill="#000000" font-size="40" font-family='bravura'></text></g><line x1="0.8" x2="0.8" y1="-33.16" y2="1.8400000000000034" stroke="#000000" stroke-width="1.6"></line><g><polygon points="0,37.16 63.014245946896835,37.16 63.014245946896835,38.76 0,38.76" stroke="black" fill="black" stroke-width="0"></polygon><line x1="0" x2="0" y1="38.76" y2="33.16" stroke="black" fill="black" stroke-width="1.6"></line><line x1="63.014245946896835" x2="63.014245946896835" y1="38.76" y2="33.16" stroke="black" fill="black" stroke-width="1.6"></line><g><polygon stroke="white" fill="white" stroke-width="0" points="16.207122973448413,29.639999999999993 16.207122973448413,44.559999999999995 44.00712297344842,44.559999999999995 44.00712297344842,29.639999999999993"></polygon><g><text x="25.087122973448416" y="44.559999999999995" fill="#000000" font-size="40" font-family='bravura'></text><rect data-selection-info="beamTuplet" width="4" height="5" x="23.887122973448417" y="42.059999999999995" fill="transparent" class="mn_handle"></rect></g></g></g><g><text x="-25" y="-35" font-size="40" font-family='bravura'></text><g><text x="-18" y="-35" fill="#000000" font-size="40" font-family='bravura'></text><rect data-selection-info="accidental-0" width="4" height="5" x="-19.2" y="-37.5" fill="transparent" class="mn_handle"></rect></g><text x="-11.28" y="-35" font-size="40" font-family='bravura'></text></g><line x1="-3.2" x2="18.72" y1="-30" y2="-30" stroke="#000000" stroke-width="2.2"></line></g></g><g x="830.3043143323126" y="127.6" transform="translate(830.3043143323126,127.6)"><g><g><text x="0" y="-40" fill="#000000" font-size="40" font-family='bravura'></text></g><line x1="0.8" x2="0.8" y1="-38.16" y2="1.8400000000000034" stroke="#000000" stroke-width="1.6"></line><g><text x="-25" y="-40" font-size="40" font-family='bravura'></text><g><text x="-18" y="-40" fill="#000000" font-size="40" font-family='bravura'></text><rect data-selection-info="accidental-0" width="4" height="5" x="-19.2" y="-42.5" fill="transparent" class="mn_handle"></rect></g><text x="-11.28" y="-40" font-size="40" font-family='bravura'></text></g><line x1="-3.2" x2="18.72" y1="-30" y2="-30" stroke="#000000" stroke-width="2.2"></line><line x1="-3.2" x2="18.72" y1="-40" y2="-40" stroke="#000000" stroke-width="2.2"></line></g></g><g x="851.3090629812782" y="127.6" transform="translate(851.3090629812782,127.6)"><g><g><text x="0" y="-40" fill="#000000" font-size="40" font-family='bravura'></text></g><line x1="0.8" x2="0.8" y1="-38.16" y2="1.8400000000000034" stroke="#000000" stroke-width="1.6"></line><g><text x="-25" y="-40" font-size="40" font-family='bravura'></text><g><text x="-18" y="-40" fill="#000000" font-size="40" font-family='bravura'></text><rect data-selection-info="accidental-0" width="4" height="5" x="-19.2" y="-42.5" fill="transparent" class="mn_handle"></rect></g><text x="-11.28" y="-40" font-size="40" font-family='bravura'></text></g><line x1="-3.2" x2="18.72" y1="-30" y2="-30" stroke="#000000" stroke-width="2.2"></line><line x1="-3.2" x2="18.72" y1="-40" y2="-40" stroke="#000000" stroke-width="2.2"></line></g></g><g x="872.3138116302439" y="127.6" transform="translate(872.3138116302439,127.6)"><g><g><text x="0" y="-35" fill="#000000" font-size="40" font-family='bravura'></text></g><line x1="0.8" x2="0.8" y1="-33.16" y2="1.8400000000000034" stroke="#000000" stroke-width="1.6"></line><g><text x="-25" y="-35" font-size="40" font-family='bravura'></text><g><text x="-18" y="-35" fill="#000000" font-size="40" font-family='bravura'></text><rect data-selection-info="accidental-0" width="4" height="5" x="-19.2" y="-37.5" fill="transparent" class="mn_handle"></rect></g><text x="-11.28" y="-35" font-size="40" font-family='bravura'></text></g><line x1="-3.2" x2="18.72" y1="-30" y2="-30" stroke="#000000" stroke-width="2.2"></line></g></g><g x="893.3185602792096" y="127.6" transform="translate(893.3185602792096,127.6)"><g><g><text x="0" y="-30" fill="#000000" font-size="40" font-family='bravura'></text></g><line x1="0.8" x2="0.8" y1="-28.16" y2="6.84" stroke="#000000" stroke-width="1.6"></line><g><polygon points="0,37.16 188.23709818687712,55.91 188.23709818687712,57.51 0,38.76" stroke="black" fill="black" stroke-width="0"></polygon><line x1="0" x2="0" y1="38.76" y2="33.16" stroke="black" fill="black" stroke-width="1.6"></line><line x1="188.23709818687712" x2="188.23709818687712" y1="57.51" y2="51.91" stroke="black" fill="black" stroke-width="1.6"></line><g><polygon stroke="white" fill="white" stroke-width="0" points="79.29854909343855,39.01499999999999 79.29854909343855,53.894999999999996 106.77854909343856,53.894999999999996 106.77854909343856,39.01499999999999"></polygon><g><text x="87.85854909343855" y="53.934999999999995" fill="#000000" font-size="40" font-family='bravura'></text><rect data-selection-info="beamTuplet" width="4" height="5" x="86.65854909343855" y="51.434999999999995" fill="transparent" class="mn_handle"></rect></g></g></g><g><text x="-25" y="-30" font-size="40" font-family='bravura'></text><g><text x="-18" y="-30" fill="#000000" font-size="40" font-family='bravura'></text><rect data-selection-info="accidental-0" width="4" height="5" x="-19.2" y="-32.5" fill="transparent" class="mn_handle"></rect></g><text x="-11.28" y="-30" font-size="40" font-family='bravura'></text></g><line x1="-3.2" x2="18.72" y1="-30" y2="-30" stroke="#000000" stroke-width="2.2"></line></g></g><g x="924.6914099770224" y="127.6" transform="translate(924.6914099770224,127.6)"><g><g><text x="0" y="-25" fill="#000000" font-size="40" font-family='bravura'></text></g><line x1="0.8" x2="0.8" y1="-23.16" y2="11.84" stroke="#000000" stroke-width="1.6"></line><g><text x="-25" y="-25" font-size="40" font-family='bravura'></text><g><text x="-18" y="-25" fill="#000000" font-size="40" font-family='bravura'></text><rect data-selection-info="accidental-0" width="4" height="5" x="-19.2" y="-27.5" fill="transparent" class="mn_handle"></rect></g><text x="-11.28" y="-25" font-size="40" font-family='bravura'></text></g></g></g><g x="956.0642596748353" y="127.6" transform="translate(956.0642596748353,127.6)"><g><g><text x="0" y="-20" fill="#000000" font-size="40" font-family='bravura'></text></g><line x1="0.8" x2="0.8" y1="-18.16" y2="16.84" stroke="#000000" stroke-width="1.6"></line><g><text x="-25" y="-20" font-size="40" font-family='bravura'></text><g><text x="-18" y="-20" fill="#000000" font-size="40" font-family='bravura'></text><rect data-selection-info="accidental-0" width="4" height="5" x="-19.2" y="-22.5" fill="transparent" class="mn_handle"></rect></g><text x="-11.28" y="-20" font-size="40" font-family='bravura'></text></g></g></g><g x="987.4371093726481" y="127.6" transform="translate(987.4371093726481,127.6)"><g><g><text x="0" y="-15" fill="#000000" font-size="40" font-family='bravura'></text></g><line x1="0.8" x2="0.8" y1="-13.16" y2="21.84" stroke="#000000" stroke-width="1.6"></line><g><text x="-25" y="-15" font-size="40" font-family='bravura'></text><g><text x="-18" y="-15" fill="#000000" font-size="40" font-family='bravura'></text><rect data-selection-info="accidental-0" width="4" height="5" x="-19.2" y="-17.5" fill="transparent" class="mn_handle"></rect></g><text x="-11.28" y="-15" font-size="40" font-family='bravura'></text></g></g></g><g x="1018.809959070461" y="127.6" transform="translate(1018.809959070461,127.6)"><g><g><text x="0" y="-10" fill="#000000" font-size="40" font-family='bravura'></text></g><line x1="0.8" x2="0.8" y1="-8.16" y2="26.84" stroke="#000000" stroke-width="1.6"></line><g><text x="-25" y="-10" font-size="40" font-family='bravura'></text><g><text x="-18" y="-10" fill="#000000" font-size="40" font-family='bravura'></text><rect data-selection-info="accidental-0" width="4" height="5" x="-19.2" y="-12.5" fill="transparent" class="mn_handle"></rect></g><text x="-11.28" y="-10" font-size="40" font-family='bravura'></text></g></g></g><g x="1050.1828087682738" y="127.6" transform="translate(1050.1828087682738,127.6)"><g><g><text x="0" y="-5" fill="#000000" font-size="40" font-family='bravura'></text></g><line x1="0.8" x2="0.8" y1="-3.16" y2="31.84" stroke="#000000" stroke-width="1.6"></line><g><text x="-25" y="-5" font-size="40" font-family='bravura'></text><g><text x="-18" y="-5" fill="#000000" font-size="40" font-family='bravura'></text><rect data-selection-info="accidental-0" width="4" height="5" x="-19.2" y="-7.5" fill="transparent" class="mn_handle"></rect></g><text x="-11.28" y="-5" font-size="40" font-family='bravura'></text></g></g></g><g x="1081.5556584660867" y="127.6" transform="translate(1081.5556584660867,127.6)"><g><g><text x="0" y="0" fill="#000000" font-size="40" font-family='bravura'></text></g><line x1="12.48" x2="12.48" y1="-1.8399999999999999" y2="-36.84" stroke="#000000" stroke-width="1.6"></line><g><text x="-25" y="0" font-size="40" font-family='bravura'></text><g><text x="-18" y="0" fill="#000000" font-size="40" font-family='bravura'></text><rect data-selection-info="accidental-0" width="4" height="5" x="-19.2" y="-2.5" fill="transparent" class="mn_handle"></rect></g><text x="-11.28" y="0" font-size="40" font-family='bravura'></text></g></g></g><g x="1112.9285081638996" y="127.6" transform="translate(1112.9285081638996,127.6)"><g><g><text x="0" y="5" fill="#000000" font-size="40" font-family='bravura'></text></g><line x1="12.48" x2="12.48" y1="3.16" y2="-31.84" stroke="#000000" stroke-width="1.6"></line><g><polygon points="13.280000000000001,-55.79 145.9729098634173,-32.04 145.9729098634173,-30.439999999999998 13.280000000000001,-54.19" stroke="black" fill="black" stroke-width="0"></polygon><line x1="13.280000000000001" x2="13.280000000000001" y1="-55.79" y2="-50.19" stroke="black" fill="black" stroke-width="1.6"></line><line x1="145.9729098634173" x2="145.9729098634173" y1="-32.04" y2="-26.439999999999998" stroke="black" fill="black" stroke-width="1.6"></line><g><polygon stroke="white" fill="white" stroke-width="0" points="64.54645493170865,-51.755 64.54645493170865,-36.515 91.34645493170865,-36.515 91.34645493170865,-51.755"></polygon><g><text x="72.10645493170865" y="-36.515" fill="#000000" font-size="40" font-family='bravura'></text><rect data-selection-info="beamTuplet" width="4" height="5" x="70.90645493170865" y="-39.015" fill="transparent" class="mn_handle"></rect></g></g></g><g><text x="-25" y="5" font-size="40" font-family='bravura'></text><g><text x="-18" y="5" fill="#000000" font-size="40" font-family='bravura'></text><rect data-selection-info="accidental-0" width="4" height="5" x="-19.2" y="2.5" fill="transparent" class="mn_handle"></rect></g><text x="-11.28" y="5" font-size="40" font-family='bravura'></text></g></g></g><g x="1139.467090136583" y="127.6" transform="translate(1139.467090136583,127.6)"><g><g><text x="0" y="10" fill="#000000" font-size="40" font-family='bravura'></text></g><line x1="12.48" x2="12.48" y1="8.16" y2="-26.84" stroke="#000000" stroke-width="1.6"></line><g><text x="-25" y="10" font-size="40" font-family='bravura'></text><g><text x="-18" y="10" fill="#000000" font-size="40" font-family='bravura'></text><rect data-selection-info="accidental-0" width="4" height="5" x="-19.2" y="7.5" fill="transparent" class="mn_handle"></rect></g><text x="-11.28" y="10" font-size="40" font-family='bravura'></text></g></g></g><g x="1166.0056721092665" y="127.6" transform="translate(1166.0056721092665,127.6)"><g><g><text x="0" y="15" fill="#000000" font-size="40" font-family='bravura'></text></g><line x1="12.48" x2="12.48" y1="13.16" y2="-21.84" stroke="#000000" stroke-width="1.6"></line><g><text x="-25" y="15" font-size="40" font-family='bravura'></text><g><text x="-18" y="15" fill="#000000" font-size="40" font-family='bravura'></text><rect data-selection-info="accidental-0" width="4" height="5" x="-19.2" y="12.5" fill="transparent" class="mn_handle"></rect></g><text x="-11.28" y="15" font-size="40" font-family='bravura'></text></g></g></g><g x="1192.54425408195" y="127.6" transform="translate(1192.54425408195,127.6)"><g><g><text x="0" y="20" fill="#000000" font-size="40" font-family='bravura'></text></g><line x1="12.48" x2="12.48" y1="18.16" y2="-16.84" stroke="#000000" stroke-width="1.6"></line><g><text x="-25" y="20" font-size="40" font-family='bravura'></text><g><text x="-18" y="20" fill="#000000" font-size="40" font-family='bravura'></text><rect data-selection-info="accidental-0" width="4" height="5" x="-19.2" y="17.5" fill="transparent" class="mn_handle"></rect></g><text x="-11.28" y="20" font-size="40" font-family='bravura'></text></g></g></g><g x="1219.0828360546334" y="127.6" transform="translate(1219.0828360546334,127.6)"><g><g><text x="0" y="25" fill="#000000" font-size="40" font-family='bravura'></text></g><line x1="12.48" x2="12.48" y1="23.16" y2="-11.84" stroke="#000000" stroke-width="1.6"></line><g><text x="-25" y="25" font-size="40" font-family='bravura'></text><g><text x="-18" y="25" fill="#000000" font-size="40" font-family='bravura'></text><rect data-selection-info="accidental-0" width="4" height="5" x="-19.2" y="22.5" fill="transparent" class="mn_handle"></rect></g><text x="-11.28" y="25" font-size="40" font-family='bravura'></text></g></g></g><g x="1245.6214180273168" y="127.6" transform="translate(1245.6214180273168,127.6)"><g><g><text x="0" y="30" fill="#000000" font-size="40" font-family='bravura'></text></g><line x1="12.48" x2="12.48" y1="28.16" y2="-6.84" stroke="#000000" stroke-width="1.6"></line><g><text x="-25" y="30" font-size="40" font-family='bravura'></text><g><text x="-18" y="30" fill="#000000" font-size="40" font-family='bravura'></text><rect data-selection-info="accidental-0" width="4" height="5" x="-19.2" y="27.5" fill="transparent" class="mn_handle"></rect></g><text x="-11.28" y="30" font-size="40" font-family='bravura'></text></g><line x1="-3.2" x2="18.72" y1="30" y2="30" stroke="#000000" stroke-width="2.2"></line></g></g><g><line x1="1272.1600000000003" x2="1272.1600000000003" y1="107.6" y2="147.6" stroke="#2A2A2A" stroke-width="1.6"></line><line x1="1281.1600000000003" x2="1281.1600000000003" y1="107.6" y2="147.6" stroke="#2A2A2A" stroke-width="5"></line><rect opacity="1" x="1282.7600000000002" y="106.6" stroke="#FFFFFF" fill="#FFFFFF" height="42" width="4000"></rect></g></g></g></svg>