<?xml version="1.0" encoding="UTF-8" standalone="no"?><svg xmlns="http://www.w3.org/2000/svg"  data-page="0" height="279.4mm" viewBox="0 0 1381.7600000000002 1788.1599999999999" width="215.90000000000003mm"><g style="font-size:6.25px;"></g><g style="font-size:6.25px;"><g><g><g><line x1="205.60000000000002" x2="1284.1600000000003" y1="117.6" y2="117.6" stroke="#6A6A6A" stroke-width="1.3"></line><line x1="205.60000000000002" x2="1284.1600000000003" y1="107.6" y2="107.6" stroke="#6A6A6A" stroke-width="1.3"></line><line x1="205.60000000000002" x2="1284.1600000000003" y1="97.6" y2="97.6" stroke="#6A6A6A" stroke-width="1.3"></line><line x1="205.60000000000002" x2="1284.1600000000003" y1="87.6" y2="87.6" stroke="#6A6A6A" stroke-width="1.3"></line><line x1="205.60000000000002" x2="1284.1600000000003" y1="77.6" y2="77.6" stroke="#6A6A6A" stroke-width="1.3"></line></g></g><text x="213.60000000000002" y="107.6" fill="#000000" font-size="40" font-family='bravura'></text><g></g><g><g><text x="260.1" y="87.6" fill="#000000" font-size="40" font-family='bravura'></text></g><g><text x="260.1" y="107.6" fill="#000000" font-size="40" font-family='bravura'></text></g></g><g x="313.1" y="97.6" transform="translate(313.1,97.6)"><g><g><text x="0" y="0" fill="#000000" font-size="40" font-family='bravura'></text></g><line x1="0.8" x2="0.8" y1="1.8399999999999999" y2="36.84" stroke="#000000" stroke-width="1.6"></line><text x="0" y="36.84" fill="#000000" font-size="40" font-family='bravura'></text><g><polygon points="0,-61.59 381.7195957347592,-61.59 381.7195957347592,-59.99 0,-59.99" stroke="black" fill="black" stroke-width="0"></polygon><line x1="0" x2="0" y1="-59.99" y2="-65.59" stroke="black" fill="black" stroke-width="1.6"></line><line x1="381.7195957347592" x2="381.7195957347592" y1="-59.99" y2="-65.59" stroke="black" fill="black" stroke-width="1.6"></line><g><polygon stroke="white" fill="white" stroke-width="0" points="175.65979786737958,-69.19 175.65979786737958,-54.190000000000005 203.4597978673796,-54.190000000000005 203.4597978673796,-69.19"></polygon><g><text x="184.4597978673796" y="-54.190000000000005" fill="#000000" font-size="40" font-family='bravura'></text><rect data-selection-info="beamTuplet" width="4" height="5" x="183.2597978673796" y="-56.690000000000005" fill="transparent" class="mn_handle"></rect></g></g></g></g></g><g x="388.4704045770143" y="97.6" transform="translate(388.4704045770143,97.6)"><g><g><text x="0" y="0" fill="#000000" font-size="40" font-family='bravura'></text></g><line x1="0.8" x2="0.8" y1="1.8399999999999999" y2="36.84" stroke="#000000" stroke-width="1.6"></line><text x="0" y="36.84" fill="#000000" font-size="40" font-family='bravura'></text><g><text x="-25" y="0" font-size="40" font-family='bravura'></text><g><text x="-18" y="0" fill="#000000" font-size="40" font-family='bravura'></text><rect data-selection-info="accidental-0" width="4" height="5" x="-19.2" y="-2.5" fill="transparent" class="mn_handle"></rect></g><text x="-11.28" y="0" font-size="40" font-family='bravura'></text></g></g></g><g x="463.8408091540285" y="97.6" transform="translate(463.8408091540285,97.6)"><g><g><text x="0" y="0" fill="#000000" font-size="40" font-family='bravura'></text></g><line x1="0.8" x2="0.8" y1="1.8399999999999999" y2="36.84" stroke="#000000" stroke-width="1.6"></line><text x="0" y="36.84" fill="#000000" font-size="40" font-family='bravura'></text><g><polygon points="0,55.91 230.97878658073074,55.91 230.97878658073074,57.51 0,57.51" stroke="black" fill="black" stroke-width="0"></polygon><line x1="0" x2="0" y1="57.51" y2="51.91" stroke="black" fill="black" stroke-width="1.6"></line><line x1="230.97878658073074" x2="230.97878658073074" y1="57.51" y2="51.91" stroke="black" fill="black" stroke-width="1.6"></line><g><polygon stroke="white" fill="white" stroke-width="0" points="102.74939329036538,48.42999999999999 102.74939329036538,63.349999999999994 128.78939329036535,63.349999999999994 128.78939329036535,48.42999999999999"></polygon><g><text x="109.90939329036537" y="63.309999999999995" fill="#000000" font-size="40" font-family='bravura'></text><rect data-selection-info="beamTuplet" width="4" height="5" x="108.70939329036537" y="60.809999999999995" fill="transparent" class="mn_handle"></rect></g></g></g><g><text x="-25" y="0" font-size="40" font-family='bravura'></text><g><text x="-18" y="0" fill="#000000" font-size="40" font-family='bravura'></text><rect data-selection-info="accidental-0" width="4" height="5" x="-19.2" y="-2.5" fill="transparent" class="mn_handle"></rect></g><text x="-11.28" y="0" font-size="40" font-family='bravura'></text></g></g></g><g x="521.5855057992112" y="97.6" transform="translate(521.5855057992112,97.6)"><g><g><text x="0" y="0" fill="#000000" font-size="40" font-family='bravura'></text></g><line x1="0.8" x2="0.8" y1="1.8399999999999999" y2="36.84" stroke="#000000" stroke-width="1.6"></line><text x="0" y="36.84" fill="#000000" font-size="40" font-family='bravura'></text><g><text x="-25" y="0" font-size="40" font-family='bravura'></text><g><text x="-18" y="0" fill="#000000" font-size="40" font-family='bravura'></text><rect data-selection-info="accidental-0" width="4" height="5" x="-19.2" y="-2.5" fill="transparent" class="mn_handle"></rect></g><text x="-11.28" y="0" font-size="40" font-family='bravura'></text></g></g></g><g x="579.3302024443939" y="97.6" transform="translate(579.3302024443939,97.6)"><g><g><text x="0" y="0" fill="#000000" font-size="40" font-family='bravura'></text></g><line x1="0.8" x2="0.8" y1="1.8399999999999999" y2="36.84" stroke="#000000" stroke-width="1.6"></line><text x="0" y="36.84" fill="#000000" font-size="40" font-family='bravura'></text><g><text x="-25" y="0" font-size="40" font-family='bravura'></text><g><text x="-18" y="0" fill="#000000" font-size="40" font-family='bravura'></text><rect data-selection-info="accidental-0" width="4" height="5" x="-19.2" y="-2.5" fill="transparent" class="mn_handle"></rect></g><text x="-11.28" y="0" font-size="40" font-family='bravura'></text></g></g></g><g x="637.0748990895765" y="97.6" transform="translate(637.0748990895765,97.6)"><g><g><text x="0" y="0" fill="#000000" font-size="40" font-family='bravura'></text></g><line x1="0.8" x2="0.8" y1="1.8399999999999999" y2="36.84" stroke="#000000" stroke-width="1.6"></line><text x="0" y="36.84" fill="#000000" font-size="40" font-family='bravura'></text><g><text x="-25" y="0" font-size="40" font-family='bravura'></text><g><text x="-18" y="0" fill="#000000" font-size="40" font-family='bravura'></text><rect data-selection-info="accidental-0" width="4" height="5" x="-19.2" y="-2.5" fill="transparent" class="mn_handle"></rect></g><text x="-11.28" y="0" font-size="40" font-family='bravura'></text></g></g></g><g x="694.8195957347592" y="97.6" transform="translate(694.8195957347592,97.6)"><g><g><text x="0" y="0" fill="#000000" font-size="40" font-family='bravura'></text></g><line x1="0.8" x2="0.8" y1="1.8399999999999999" y2="36.84" stroke="#000000" stroke-width="1.6"></line><text x="0" y="36.84" fill="#000000" font-size="40" font-family='bravura'></text><g><text x="-25" y="0" font-size="40" font-family='bravura'></text><g><text x="-18" y="0" fill="#000000" font-size="40" font-family='bravura'></text><rect data-selection-info="accidental-0" width="4" height="5" x="-19.2" y="-2.5" fill="transparent" class="mn_handle"></rect></g><text x="-11.28" y="0" font-size="40" font-family='bravura'></text></g></g></g><g x="752.5642923799419" y="97.6" transform="translate(752.5642923799419,97.6)"><g><g><text x="0" y="0" fill="#000000" font-size="40" font-family='bravura'></text></g><line x1="0.8" x2="0.8" y1="1.8399999999999999" y2="36.84" stroke="#000000" stroke-width="1.6"></line><text x="0" y="36.84" fill="#000000" font-size="40" font-family='bravura'></text><g><text x="-25" y="0" font-size="40" font-family='bravura'></text><g><text x="-18" y="0" fill="#000000" font-size="40" font-family='bravura'></text><rect data-selection-info="accidental-0" width="4" height="5" x="-19.2" y="-2.5" fill="transparent" class="mn_handle"></rect></g><text x="-11.28" y="0" font-size="40" font-family='bravura'></text></g></g></g><g x="827.9346969569561" y="97.6" transform="translate(827.9346969569561,97.6)"><g><g><text x="0" y="0" fill="#000000" font-size="40" font-family='bravura'></text></g><line x1="0.8" x2="0.8" y1="1.8399999999999999" y2="36.84" stroke="#000000" stroke-width="1.6"></line><text x="0" y="36.84" fill="#000000" font-size="40" font-family='bravura'></text><g><text x="-25" y="0" font-size="40" font-family='bravura'></text><g><text x="-18" y="0" fill="#000000" font-size="40" font-family='bravura'></text><rect data-selection-info="accidental-0" width="4" height="5" x="-19.2" y="-2.5" fill="transparent" class="mn_handle"></rect></g><text x="-11.28" y="0" font-size="40" font-family='bravura'></text></g></g></g><g><line x1="903.3051015339704" x2="903.3051015339704" y1="77.6" y2="117.6" stroke="#2A2A2A" stroke-width="1.6"></line><line x1="912.3051015339704" x2="912.3051015339704" y1="77.6" y2="117.6" stroke="#2A2A2A" stroke-width="5"></line><rect opacity="1" x="913.9051015339704" y="76.6" stroke="#FFFFFF" fill="#FFFFFF" height="42" width="4000"></rect></g></g></g></svg>