<?xml version="1.0" encoding="UTF-8" standalone="no"?><svg xmlns="http://www.w3.org/2000/svg"  data-page="0" height="279.4mm" viewBox="0 0 1381.7600000000002 1788.1599999999999" width="215.90000000000003mm"><g style="font-size:6.25px;"></g><g style="font-size:6.25px;"><g><g><g><line x1="205.59999999999997" x2="1284.1600000000003" y1="122.6" y2="122.6" stroke="#6A6A6A" stroke-width="1.3"></line><line x1="205.59999999999997" x2="1284.1600000000003" y1="112.6" y2="112.6" stroke="#6A6A6A" stroke-width="1.3"></line><line x1="205.59999999999997" x2="1284.1600000000003" y1="102.6" y2="102.6" stroke="#6A6A6A" stroke-width="1.3"></line><line x1="205.59999999999997" x2="1284.1600000000003" y1="92.6" y2="92.6" stroke="#6A6A6A" stroke-width="1.3"></line><line x1="205.59999999999997" x2="1284.1600000000003" y1="82.6" y2="82.6" stroke="#6A6A6A" stroke-width="1.3"></line></g></g><text x="213.59999999999997" y="112.6" fill="#000000" font-size="40" font-family='bravura'></text><g></g><text x="260.1" y="102.6" fill="#000000" font-size="40" font-family='bravura'></text><g x="313.1" y="102.6" transform="translate(313.1,102.6)"><g><g><text x="0" y="-10" fill="#000000" font-size="24" font-family='bravura'></text></g><line x1="7.168000000000001" x2="7.168000000000001" y1="-11.84" y2="-30.59" stroke="#000000" stroke-width="1.6"></line><text x="6.568000000000001" y="-30.59" fill="#000000" font-size="24" font-family='bravura'></text></g></g><g x="330.26" y="102.6" transform="translate(330.26,102.6)"><g><g><text x="0" y="-5" fill="#000000" font-size="40" font-family='bravura'></text></g><line x1="0.8" x2="0.8" y1="-3.16" y2="31.84" stroke="#000000" stroke-width="1.6"></line></g></g><g x="426.79748750000005" y="102.6" transform="translate(426.79748750000005,102.6)"><g><g><text x="0" y="-15" fill="#000000" font-size="24" font-family='bravura'></text></g><line x1="7.168000000000001" x2="7.168000000000001" y1="-16.84" y2="-35.59" stroke="#000000" stroke-width="1.6"></line><text x="6.568000000000001" y="-35.59" fill="#000000" font-size="24" font-family='bravura'></text></g></g><g x="443.95748750000007" y="102.6" transform="translate(443.95748750000007,102.6)"><g><g><text x="0" y="-10" fill="#000000" font-size="24" font-family='bravura'></text></g><line x1="7.168000000000001" x2="7.168000000000001" y1="-11.84" y2="-30.59" stroke="#000000" stroke-width="1.6"></line><text x="6.568000000000001" y="-30.59" fill="#000000" font-size="24" font-family='bravura'></text><g><text x="-17.799999999999997" y="-10" font-size="40" font-family='bravura'></text><g><text x="-10.799999999999999" y="-10" fill="#000000" font-size="24" font-family='bravura'></text><rect data-selection-info="accidental-0" width="4" height="5" x="-11.999999999999998" y="-12.5" fill="transparent" class="mn_handle"></rect></g><text x="-4.079999999999998" y="-10" font-size="40" font-family='bravura'></text></g></g></g><g x="461.1174875000001" y="102.6" transform="translate(461.1174875000001,102.6)"><g><g><text x="0" y="-5" fill="#000000" font-size="40" font-family='bravura'></text></g><line x1="0.8" x2="0.8" y1="-3.16" y2="31.84" stroke="#000000" stroke-width="1.6"></line><g><text x="-25" y="-5" font-size="40" font-family='bravura'></text><g><text x="-18" y="-5" fill="#000000" font-size="40" font-family='bravura'></text><rect data-selection-info="accidental-0" width="4" height="5" x="-19.2" y="-7.5" fill="transparent" class="mn_handle"></rect></g><text x="-11.28" y="-5" font-size="40" font-family='bravura'></text></g></g></g><g><g><text x="557.6549750000001" y="92.6" fill="#000000" font-size="24" font-family='bravura'></text></g><line x1="564.8229750000002" x2="564.8229750000002" y1="90.75999999999999" y2="72.00999999999999" stroke="#000000" stroke-width="1.6"></line><text x="564.2229750000001" y="72.00999999999999" fill="#000000" font-size="24" font-family='bravura'></text><g><text x="539.8549750000002" y="92.6" font-size="40" font-family='bravura'></text><g><text x="546.8549750000002" y="92.6" fill="#000000" font-size="24" font-family='bravura'></text><rect data-selection-info="accidental-0" width="4" height="5" x="545.6549750000001" y="90.1" fill="transparent" class="mn_handle"></rect></g><text x="553.5749750000002" y="92.6" font-size="40" font-family='bravura'></text></g><path d="M578.6699750000001,102.6C575.7325443949649,110.921228 568.7374041507692,110.921228 565.7999750000001,102.6 C568.7374056050354,114.121228 575.7325466802404,114.121228 578.6699750000001,102.6" fill="#000000" stroke-width="1.2" stroke="#000000"></path></g><g x="574.8149750000001" y="102.6" transform="translate(574.8149750000001,102.6)"><g><g><text x="0" y="-5" fill="#000000" font-size="40" font-family='bravura'></text></g><line x1="0.8" x2="0.8" y1="-3.16" y2="31.84" stroke="#000000" stroke-width="1.6"></line><g><text x="-25" y="-5" font-size="40" font-family='bravura'></text><g><text x="-18" y="-5" fill="#000000" font-size="40" font-family='bravura'></text><rect data-selection-info="accidental-0" width="4" height="5" x="-19.2" y="-7.5" fill="transparent" class="mn_handle"></rect></g><text x="-11.28" y="-5" font-size="40" font-family='bravura'></text></g></g></g><g x="671.3524625000002" y="102.6" transform="translate(671.3524625000002,102.6)"><g><g><text x="0" y="-10" fill="#000000" font-size="24" font-family='bravura'></text></g><line x1="7.168000000000001" x2="7.168000000000001" y1="-11.84" y2="-30.59" stroke="#000000" stroke-width="1.6"></line><text x="6.568000000000001" y="-30.59" fill="#000000" font-size="24" font-family='bravura'></text><g><text x="-17.799999999999997" y="-10" font-size="40" font-family='bravura'></text><g><text x="-10.799999999999999" y="-10" fill="#000000" font-size="24" font-family='bravura'></text><rect data-selection-info="accidental-0" width="4" height="5" x="-11.999999999999998" y="-12.5" fill="transparent" class="mn_handle"></rect></g><text x="-4.079999999999998" y="-10" font-size="40" font-family='bravura'></text></g></g></g><g x="689.8457958333336" y="102.6" transform="translate(689.8457958333336,102.6)"><g><g><text x="0" y="-5" fill="#000000" font-size="40" font-family='bravura'></text></g><line x1="0.8" x2="0.8" y1="-3.16" y2="31.84" stroke="#000000" stroke-width="1.6"></line><g><text x="-25" y="-5" font-size="40" font-family='bravura'></text><g><text x="-18" y="-5" fill="#000000" font-size="40" font-family='bravura'></text><rect data-selection-info="accidental-0" width="4" height="5" x="-19.2" y="-7.5" fill="transparent" class="mn_handle"></rect></g><text x="-11.28" y="-5" font-size="40" font-family='bravura'></text></g></g></g><line x1="786.3832833333337" x2="786.3832833333337" y1="82.6" y2="122.6" stroke="#2A2A2A" stroke-width="1.6"></line><g x="808.3832833333337" y="102.6" transform="translate(808.3832833333337,102.6)"><g><g><text x="0" y="-10" fill="#000000" font-size="24" font-family='bravura'></text></g><line x1="7.168000000000001" x2="7.168000000000001" y1="-11.84" y2="-30.59" stroke="#000000" stroke-width="1.6"></line><text x="6.568000000000001" y="-30.59" fill="#000000" font-size="24" font-family='bravura'></text></g></g><g x="825.5432833333336" y="102.6" transform="translate(825.5432833333336,102.6)"><g><g><text x="0" y="-5" fill="#000000" font-size="40" font-family='bravura'></text></g><line x1="0.8" x2="0.8" y1="-3.16" y2="31.84" stroke="#000000" stroke-width="1.6"></line></g></g><g x="922.0807708333336" y="102.6" transform="translate(922.0807708333336,102.6)"><g><g><text x="0" y="-15" fill="#000000" font-size="24" font-family='bravura'></text></g><line x1="7.168000000000001" x2="7.168000000000001" y1="-16.84" y2="-35.59" stroke="#000000" stroke-width="1.6"></line><text x="6.568000000000001" y="-35.59" fill="#000000" font-size="24" font-family='bravura'></text></g></g><g x="939.2407708333337" y="102.6" transform="translate(939.2407708333337,102.6)"><g><g><text x="0" y="-10" fill="#000000" font-size="24" font-family='bravura'></text></g><line x1="7.168000000000001" x2="7.168000000000001" y1="-11.84" y2="-30.59" stroke="#000000" stroke-width="1.6"></line><text x="6.568000000000001" y="-30.59" fill="#000000" font-size="24" font-family='bravura'></text><g><text x="-17.799999999999997" y="-10" font-size="40" font-family='bravura'></text><g><text x="-10.799999999999999" y="-10" fill="#000000" font-size="24" font-family='bravura'></text><rect data-selection-info="accidental-0" width="4" height="5" x="-11.999999999999998" y="-12.5" fill="transparent" class="mn_handle"></rect></g><text x="-4.079999999999998" y="-10" font-size="40" font-family='bravura'></text></g></g></g><g x="956.4007708333336" y="102.6" transform="translate(956.4007708333336,102.6)"><g><g><text x="0" y="-5" fill="#000000" font-size="40" font-family='bravura'></text></g><line x1="0.8" x2="0.8" y1="-3.04" y2="31.96" stroke="#000000" stroke-width="1.6"></line><g><text x="-25" y="-5" font-size="40" font-family='bravura'></text><g><text x="-18" y="-5" fill="#000000" font-size="40" font-family='bravura'></text><rect data-selection-info="accidental-0" width="4" height="5" x="-19.2" y="-7.5" fill="transparent" class="mn_handle"></rect></g><text x="-11.28" y="-5" font-size="40" font-family='bravura'></text></g></g></g><g x="1066.271591666667" y="102.6" transform="translate(1066.271591666667,102.6)"><g><g><text x="0" y="-10" fill="#000000" font-size="24" font-family='bravura'></text></g><line x1="7.168000000000001" x2="7.168000000000001" y1="-11.84" y2="-30.59" stroke="#000000" stroke-width="1.6"></line><text x="6.568000000000001" y="-30.59" fill="#000000" font-size="24" font-family='bravura'></text><g><text x="-17.799999999999997" y="-10" font-size="40" font-family='bravura'></text><g><text x="-10.799999999999999" y="-10" fill="#000000" font-size="24" font-family='bravura'></text><rect data-selection-info="accidental-0" width="4" height="5" x="-11.999999999999998" y="-12.5" fill="transparent" class="mn_handle"></rect></g><text x="-4.079999999999998" y="-10" font-size="40" font-family='bravura'></text></g></g></g><g x="1083.431591666667" y="102.6" transform="translate(1083.431591666667,102.6)"><g><g><text x="0" y="-5" fill="#000000" font-size="40" font-family='bravura'></text></g><line x1="0.8" x2="0.8" y1="-3.16" y2="31.84" stroke="#000000" stroke-width="1.6"></line><text x="0" y="31.84" fill="#000000" font-size="40" font-family='bravura'></text><g><text x="-25" y="-5" font-size="40" font-family='bravura'></text><g><text x="-18" y="-5" fill="#000000" font-size="40" font-family='bravura'></text><rect data-selection-info="accidental-0" width="4" height="5" x="-19.2" y="-7.5" fill="transparent" class="mn_handle"></rect></g><text x="-11.28" y="-5" font-size="40" font-family='bravura'></text></g></g></g><g x="1166.6357458333337" y="102.6" transform="translate(1166.6357458333337,102.6)"><g><g><text x="0" y="-10" fill="#000000" font-size="24" font-family='bravura'></text></g><line x1="7.168000000000001" x2="7.168000000000001" y1="-11.84" y2="-30.59" stroke="#000000" stroke-width="1.6"></line><text x="6.568000000000001" y="-30.59" fill="#000000" font-size="24" font-family='bravura'></text><g><text x="-17.799999999999997" y="-10" font-size="40" font-family='bravura'></text><g><text x="-10.799999999999999" y="-10" fill="#000000" font-size="24" font-family='bravura'></text><rect data-selection-info="accidental-0" width="4" height="5" x="-11.999999999999998" y="-12.5" fill="transparent" class="mn_handle"></rect></g><text x="-4.079999999999998" y="-10" font-size="40" font-family='bravura'></text></g></g></g><g x="1183.7957458333335" y="102.6" transform="translate(1183.7957458333335,102.6)"><g><g><text x="0" y="-5" fill="#000000" font-size="40" font-family='bravura'></text></g><line x1="0.8" x2="0.8" y1="-3.16" y2="31.84" stroke="#000000" stroke-width="1.6"></line><text x="0" y="31.84" fill="#000000" font-size="40" font-family='bravura'></text><g><text x="-25" y="-5" font-size="40" font-family='bravura'></text><g><text x="-18" y="-5" fill="#000000" font-size="40" font-family='bravura'></text><rect data-selection-info="accidental-0" width="4" height="5" x="-19.2" y="-7.5" fill="transparent" class="mn_handle"></rect></g><text x="-11.28" y="-5" font-size="40" font-family='bravura'></text></g></g></g><g x="1266.9999000000003" y="102.6" transform="translate(1266.9999000000003,102.6)"><g><g><text x="0" y="-15" fill="#000000" font-size="24" font-family='bravura'></text></g><line x1="7.168000000000001" x2="7.168000000000001" y1="-16.84" y2="-35.59" stroke="#000000" stroke-width="1.6"></line><text x="6.568000000000001" y="-35.59" fill="#000000" font-size="24" font-family='bravura'></text><g><text x="-17.799999999999997" y="-15" font-size="40" font-family='bravura'></text><g><text x="-10.799999999999999" y="-15" fill="#000000" font-size="24" font-family='bravura'></text><rect data-selection-info="accidental-0" width="4" height="5" x="-11.999999999999998" y="-17.5" fill="transparent" class="mn_handle"></rect></g><text x="-4.079999999999998" y="-15" font-size="40" font-family='bravura'></text></g></g></g><line x1="1284.1599000000003" x2="1284.1599000000003" y1="82.6" y2="122.6" stroke="#2A2A2A" stroke-width="1.6"></line></g><g><g><g><line x1="97.6" x2="1284.1600000000003" y1="258.6" y2="258.6" stroke="#6A6A6A" stroke-width="1.3"></line><line x1="97.6" x2="1284.1600000000003" y1="248.6" y2="248.6" stroke="#6A6A6A" stroke-width="1.3"></line><line x1="97.6" x2="1284.1600000000003" y1="238.6" y2="238.6" stroke="#6A6A6A" stroke-width="1.3"></line><line x1="97.6" x2="1284.1600000000003" y1="228.6" y2="228.6" stroke="#6A6A6A" stroke-width="1.3"></line><line x1="97.6" x2="1284.1600000000003" y1="218.6" y2="218.6" stroke="#6A6A6A" stroke-width="1.3"></line></g><text x="97.6" y="208.6" font-size="24" class="bn_">3</text></g><text x="105.59999999999997" y="248.6" fill="#000000" font-size="40" font-family='bravura'></text><g></g><g x="152.09999999999997" y="238.6" transform="translate(152.09999999999997,238.6)"><g><g><text x="0" y="-15" fill="#000000" font-size="24" font-family='bravura'></text></g><line x1="7.168000000000001" x2="7.168000000000001" y1="-16.84" y2="-35.59" stroke="#000000" stroke-width="1.6"></line><text x="6.568000000000001" y="-35.59" fill="#000000" font-size="24" font-family='bravura'></text></g></g><g x="169.25999999999996" y="238.6" transform="translate(169.25999999999996,238.6)"><g><g><text x="0" y="15" fill="#000000" font-size="40" font-family='bravura'></text></g><g><text x="0" y="-5" fill="#000000" font-size="40" font-family='bravura'></text></g><line x1="12.48" x2="12.48" y1="13.16" y2="-31.84" stroke="#000000" stroke-width="1.6"></line></g></g><g x="295.3523334276892" y="238.6" transform="translate(295.3523334276892,238.6)"><g><g><text x="0" y="-10" fill="#000000" font-size="24" font-family='bravura'></text></g><line x1="7.168000000000001" x2="7.168000000000001" y1="-11.84" y2="-30.59" stroke="#000000" stroke-width="1.6"></line><g><text x="-7.199999999999999" y="-10" fill="#000000" font-size="24" font-family='bravura'></text><rect data-selection-info="accidental-0" width="4" height="5" x="-8.399999999999999" y="-12.5" fill="transparent" class="mn_handle"></rect></g></g></g><g x="315.17900009435584" y="238.6" transform="translate(315.17900009435584,238.6)"><g><g><text x="0" y="-5" fill="#000000" font-size="40" font-family='bravura'></text></g><line x1="0.8" x2="0.8" y1="-3.16" y2="31.84" stroke="#000000" stroke-width="1.6"></line><g><text x="-25" y="-5" font-size="40" font-family='bravura'></text><g><text x="-18" y="-5" fill="#000000" font-size="40" font-family='bravura'></text><rect data-selection-info="accidental-0" width="4" height="5" x="-19.2" y="-7.5" fill="transparent" class="mn_handle"></rect></g><text x="-11.28" y="-5" font-size="40" font-family='bravura'></text></g></g></g><g x="441.2713335220451" y="238.6" transform="translate(441.2713335220451,238.6)"><g><g><text x="0" y="-10" fill="#000000" font-size="24" font-family='bravura'></text></g><line x1="7.168000000000001" x2="7.168000000000001" y1="-11.84" y2="-30.59" stroke="#000000" stroke-width="1.6"></line><g><text x="-7.199999999999999" y="-10" fill="#000000" font-size="24" font-family='bravura'></text><rect data-selection-info="accidental-0" width="4" height="5" x="-8.399999999999999" y="-12.5" fill="transparent" class="mn_handle"></rect></g></g></g><g x="461.09800018871175" y="238.6" transform="translate(461.09800018871175,238.6)"><g><g><text x="0" y="5" fill="#000000" font-size="24" font-family='bravura'></text></g><line x1="7.168000000000001" x2="7.168000000000001" y1="3.16" y2="-23.09" stroke="#000000" stroke-width="1.6"></line><g><text x="-7.199999999999999" y="5" fill="#000000" font-size="24" font-family='bravura'></text><rect data-selection-info="accidental-0" width="4" height="5" x="-8.399999999999999" y="2.5" fill="transparent" class="mn_handle"></rect></g></g></g><g x="480.9246668553784" y="238.6" transform="translate(480.9246668553784,238.6)"><g><g><text x="0" y="-5" fill="#000000" font-size="40" font-family='bravura'></text></g><line x1="0.8" x2="0.8" y1="-3.16" y2="31.84" stroke="#000000" stroke-width="1.6"></line><g><text x="-25" y="-5" font-size="40" font-family='bravura'></text><g><text x="-18" y="-5" fill="#000000" font-size="40" font-family='bravura'></text><rect data-selection-info="accidental-0" width="4" height="5" x="-19.2" y="-7.5" fill="transparent" class="mn_handle"></rect></g><text x="-11.28" y="-5" font-size="40" font-family='bravura'></text></g></g></g><g x="607.0170002830677" y="238.6" transform="translate(607.0170002830677,238.6)"><g><g><text x="0" y="-5" fill="#000000" font-size="40" font-family='bravura'></text></g><line x1="0.8" x2="0.8" y1="-3.16" y2="31.84" stroke="#000000" stroke-width="1.6"></line><g><text x="-25" y="-5" font-size="40" font-family='bravura'></text><g><text x="-18" y="-5" fill="#000000" font-size="40" font-family='bravura'></text><rect data-selection-info="accidental-0" width="4" height="5" x="-19.2" y="-7.5" fill="transparent" class="mn_handle"></rect></g><text x="-11.28" y="-5" font-size="40" font-family='bravura'></text></g></g></g><g><line x1="733.1093337107569" x2="733.1093337107569" y1="218.6" y2="258.6" stroke="#2A2A2A" stroke-width="1.6"></line><line x1="742.1093337107569" x2="742.1093337107569" y1="218.6" y2="258.6" stroke="#2A2A2A" stroke-width="5"></line><rect opacity="1" x="743.7093337107569" y="217.6" stroke="#FFFFFF" fill="#FFFFFF" height="42" width="4000"></rect></g></g></g></svg>