<?xml version="1.0" encoding="UTF-8" standalone="no"?><svg xmlns="http://www.w3.org/2000/svg"  data-page="0" height="279.4mm" viewBox="0 0 1381.7600000000002 1788.1599999999999" width="215.90000000000003mm"><g style="font-size:6.25px;"></g><g style="font-size:6.25px;"><g><g><g><line x1="205.60000000000002" x2="1284.1600000000003" y1="117.6" y2="117.6" stroke="#6A6A6A" stroke-width="1.3"></line><line x1="205.60000000000002" x2="1284.1600000000003" y1="107.6" y2="107.6" stroke="#6A6A6A" stroke-width="1.3"></line><line x1="205.60000000000002" x2="1284.1600000000003" y1="97.6" y2="97.6" stroke="#6A6A6A" stroke-width="1.3"></line><line x1="205.60000000000002" x2="1284.1600000000003" y1="87.6" y2="87.6" stroke="#6A6A6A" stroke-width="1.3"></line><line x1="205.60000000000002" x2="1284.1600000000003" y1="77.6" y2="77.6" stroke="#6A6A6A" stroke-width="1.3"></line></g></g><text x="213.60000000000002" y="107.6" fill="#000000" font-size="40" font-family='bravura'></text><g></g><g><g><text x="260.1" y="87.6" fill="#000000" font-size="40" font-family='bravura'></text></g><g><text x="260.1" y="107.6" fill="#000000" font-size="40" font-family='bravura'></text></g></g><g></g><g x="313.1" y="97.6" transform="translate(313.1,97.6)"><g><g><text x="0" y="15" fill="#000000" font-size="40" font-family='bravura'></text></g><line x1="12.48" x2="12.48" y1="13.16" y2="-21.84" stroke="#000000" stroke-width="1.6"></line><text x="11.88" y="-21.84" fill="#000000" font-size="40" font-family='bravura'></text></g></g><g></g><line x1="429.3746196753129" x2="429.3746196753129" y1="77.6" y2="117.6" stroke="#2A2A2A" stroke-width="1.6"></line><g></g><g x="441.3746196753129" y="97.6" transform="translate(441.3746196753129,97.6)"><g><g><text x="0" y="10" fill="#000000" font-size="40" font-family='bravura'></text></g></g></g><g></g><line x1="597.6492393506257" x2="597.6492393506257" y1="77.6" y2="117.6" stroke="#2A2A2A" stroke-width="1.6"></line><g></g><g x="609.6492393506257" y="97.6" transform="translate(609.6492393506257,97.6)"><g><g><text x="0" y="15" fill="#000000" font-size="40" font-family='bravura'></text></g></g></g><g><line x1="765.9238590259386" x2="765.9238590259386" y1="77.6" y2="117.6" stroke="#2A2A2A" stroke-width="1.6"></line><line x1="774.9238590259386" x2="774.9238590259386" y1="77.6" y2="117.6" stroke="#2A2A2A" stroke-width="5"></line><rect opacity="1" x="776.5238590259386" y="76.6" stroke="#FFFFFF" fill="#FFFFFF" height="42" width="4000"></rect></g><g></g><g></g></g></g></svg>