<?xml version="1.0" encoding="UTF-8" standalone="no"?><svg xmlns="http://www.w3.org/2000/svg"  data-page="0" height="279.4mm" viewBox="0 0 1381.7600000000002 1788.1599999999999" width="215.90000000000003mm"><g style="font-size:6.25px;"></g><g style="font-size:6.25px;"><g><g><g><line x1="205.6" x2="1284.1600000000003" y1="117.6" y2="117.6" stroke="#6A6A6A" stroke-width="1.3"></line><line x1="205.6" x2="1284.1600000000003" y1="107.6" y2="107.6" stroke="#6A6A6A" stroke-width="1.3"></line><line x1="205.6" x2="1284.1600000000003" y1="97.6" y2="97.6" stroke="#6A6A6A" stroke-width="1.3"></line><line x1="205.6" x2="1284.1600000000003" y1="87.6" y2="87.6" stroke="#6A6A6A" stroke-width="1.3"></line><line x1="205.6" x2="1284.1600000000003" y1="77.6" y2="77.6" stroke="#6A6A6A" stroke-width="1.3"></line></g></g><text x="213.6" y="107.6" fill="#000000" font-size="40" font-family='bravura'></text><g></g><g><g><text x="260.1" y="87.6" fill="#000000" font-size="40" font-family='bravura'></text></g><g><text x="260.1" y="107.6" fill="#000000" font-size="40" font-family='bravura'></text></g></g><g x="313.1" y="97.6" transform="translate(313.1,97.6)"><g><g><text x="0" y="0" fill="#000000" font-size="40" font-family='bravura'></text></g><line x1="0.8" x2="0.8" y1="1.8399999999999999" y2="36.84" stroke="#000000" stroke-width="1.6"></line><g><polygon points="0,55.91 65.27005395177036,55.91 65.27005395177036,57.51 0,57.51" stroke="black" fill="black" stroke-width="0"></polygon><line x1="0" x2="0" y1="57.51" y2="51.91" stroke="black" fill="black" stroke-width="1.6"></line><line x1="65.27005395177036" x2="65.27005395177036" y1="57.51" y2="51.91" stroke="black" fill="black" stroke-width="1.6"></line><g><polygon stroke="white" fill="white" stroke-width="0" points="17.435026975885183,48.309999999999995 17.435026975885183,63.309999999999995 45.235026975885184,63.309999999999995 45.235026975885184,48.309999999999995"></polygon><g><text x="26.235026975885184" y="63.309999999999995" fill="#000000" font-size="40" font-family='bravura'></text><rect data-selection-info="beamTuplet" width="4" height="5" x="25.035026975885184" y="60.809999999999995" fill="transparent" class="mn_handle"></rect></g></g></g></g></g><g x="345.7350269758852" y="97.6" transform="translate(345.7350269758852,97.6)"><g><g><text x="0" y="0" fill="#000000" font-size="40" font-family='bravura'></text></g><line x1="0.8" x2="0.8" y1="1.8399999999999999" y2="36.84" stroke="#000000" stroke-width="1.6"></line><g><text x="-25" y="0" font-size="40" font-family='bravura'></text><g><text x="-18" y="0" fill="#000000" font-size="40" font-family='bravura'></text><rect data-selection-info="accidental-0" width="4" height="5" x="-19.2" y="-2.5" fill="transparent" class="mn_handle"></rect></g><text x="-11.28" y="0" font-size="40" font-family='bravura'></text></g></g></g><g x="378.3700539517704" y="97.6" transform="translate(378.3700539517704,97.6)"><g><g><text x="0" y="0" fill="#000000" font-size="40" font-family='bravura'></text></g><line x1="0.8" x2="0.8" y1="1.8399999999999999" y2="36.84" stroke="#000000" stroke-width="1.6"></line><g><text x="-25" y="0" font-size="40" font-family='bravura'></text><g><text x="-18" y="0" fill="#000000" font-size="40" font-family='bravura'></text><rect data-selection-info="accidental-0" width="4" height="5" x="-19.2" y="-2.5" fill="transparent" class="mn_handle"></rect></g><text x="-11.28" y="0" font-size="40" font-family='bravura'></text></g></g></g><g><text x="411.00508092765557" y="97.6" fill="#000000" font-size="40" font-family='bravura'></text></g><line x1="451.4396079131562" x2="451.4396079131562" y1="77.6" y2="117.6" stroke="#2A2A2A" stroke-width="1.6"></line><g x="473.4396079131562" y="97.6" transform="translate(473.4396079131562,97.6)"><g><g><text x="0" y="0" fill="#000000" font-size="40" font-family='bravura'></text></g><line x1="0.8" x2="0.8" y1="1.8399999999999999" y2="36.84" stroke="#000000" stroke-width="1.6"></line></g></g><g x="513.8741348986567" y="97.6" transform="translate(513.8741348986567,97.6)"><g><g><text x="0" y="0" fill="#000000" font-size="40" font-family='bravura'></text></g><line x1="0.8" x2="0.8" y1="1.8399999999999999" y2="36.84" stroke="#000000" stroke-width="1.6"></line><g><text x="-25" y="0" font-size="40" font-family='bravura'></text><g><text x="-18" y="0" fill="#000000" font-size="40" font-family='bravura'></text><rect data-selection-info="accidental-0" width="4" height="5" x="-19.2" y="-2.5" fill="transparent" class="mn_handle"></rect></g><text x="-11.28" y="0" font-size="40" font-family='bravura'></text></g></g></g><g x="554.3086618841575" y="97.6" transform="translate(554.3086618841575,97.6)"><g><g><text x="0" y="0" fill="#000000" font-size="40" font-family='bravura'></text></g><line x1="0.8" x2="0.8" y1="1.8399999999999999" y2="36.84" stroke="#000000" stroke-width="1.6"></line><g><text x="-25" y="0" font-size="40" font-family='bravura'></text><g><text x="-18" y="0" fill="#000000" font-size="40" font-family='bravura'></text><rect data-selection-info="accidental-0" width="4" height="5" x="-19.2" y="-2.5" fill="transparent" class="mn_handle"></rect></g><text x="-11.28" y="0" font-size="40" font-family='bravura'></text></g></g></g><line x1="594.7431888696581" x2="594.7431888696581" y1="77.6" y2="117.6" stroke="#2A2A2A" stroke-width="1.6"></line><g x="616.7431888696581" y="97.6" transform="translate(616.7431888696581,97.6)"><g><g><text x="0" y="0" fill="#000000" font-size="40" font-family='bravura'></text></g><line x1="0.8" x2="0.8" y1="1.8399999999999999" y2="36.84" stroke="#000000" stroke-width="1.6"></line></g></g><g x="657.1777158551588" y="97.6" transform="translate(657.1777158551588,97.6)"><g><g><text x="0" y="0" fill="#000000" font-size="40" font-family='bravura'></text></g><line x1="0.8" x2="0.8" y1="1.8399999999999999" y2="36.84" stroke="#000000" stroke-width="1.6"></line><g><text x="-25" y="0" font-size="40" font-family='bravura'></text><g><text x="-18" y="0" fill="#000000" font-size="40" font-family='bravura'></text><rect data-selection-info="accidental-0" width="4" height="5" x="-19.2" y="-2.5" fill="transparent" class="mn_handle"></rect></g><text x="-11.28" y="0" font-size="40" font-family='bravura'></text></g></g></g><g x="697.6122428406594" y="97.6" transform="translate(697.6122428406594,97.6)"><g><g><text x="0" y="0" fill="#000000" font-size="40" font-family='bravura'></text></g><line x1="0.8" x2="0.8" y1="1.8399999999999999" y2="36.84" stroke="#000000" stroke-width="1.6"></line><g><text x="-25" y="0" font-size="40" font-family='bravura'></text><g><text x="-18" y="0" fill="#000000" font-size="40" font-family='bravura'></text><rect data-selection-info="accidental-0" width="4" height="5" x="-19.2" y="-2.5" fill="transparent" class="mn_handle"></rect></g><text x="-11.28" y="0" font-size="40" font-family='bravura'></text></g></g></g><line x1="738.0467698261601" x2="738.0467698261601" y1="77.6" y2="117.6" stroke="#2A2A2A" stroke-width="1.6"></line><g></g><g x="760.0467698261601" y="97.6" transform="translate(760.0467698261601,97.6)"><g><g><text x="0" y="0" fill="#000000" font-size="40" font-family='bravura'></text></g><line x1="0.8" x2="0.8" y1="1.8399999999999999" y2="36.84" stroke="#000000" stroke-width="1.6"></line></g></g><g x="800.4812968116607" y="97.6" transform="translate(800.4812968116607,97.6)"><g><g><text x="0" y="0" fill="#000000" font-size="40" font-family='bravura'></text></g><line x1="0.8" x2="0.8" y1="1.8399999999999999" y2="36.84" stroke="#000000" stroke-width="1.6"></line><g><text x="-25" y="0" font-size="40" font-family='bravura'></text><g><text x="-18" y="0" fill="#000000" font-size="40" font-family='bravura'></text><rect data-selection-info="accidental-0" width="4" height="5" x="-19.2" y="-2.5" fill="transparent" class="mn_handle"></rect></g><text x="-11.28" y="0" font-size="40" font-family='bravura'></text></g></g></g><g></g><g x="840.9158237971615" y="97.6" transform="translate(840.9158237971615,97.6)"><g><g><text x="0" y="0" fill="#000000" font-size="40" font-family='bravura'></text></g><line x1="0.8" x2="0.8" y1="1.8399999999999999" y2="36.84" stroke="#000000" stroke-width="1.6"></line><g><text x="-25" y="0" font-size="40" font-family='bravura'></text><g><text x="-18" y="0" fill="#000000" font-size="40" font-family='bravura'></text><rect data-selection-info="accidental-0" width="4" height="5" x="-19.2" y="-2.5" fill="transparent" class="mn_handle"></rect></g><text x="-11.28" y="0" font-size="40" font-family='bravura'></text></g></g></g><line x1="881.3503507826621" x2="881.3503507826621" y1="77.6" y2="117.6" stroke="#2A2A2A" stroke-width="1.6"></line><g></g><g x="903.3503507826621" y="97.6" transform="translate(903.3503507826621,97.6)"><g><g><text x="0" y="0" fill="#000000" font-size="40" font-family='bravura'></text></g><line x1="0.8" x2="0.8" y1="1.8399999999999999" y2="36.84" stroke="#000000" stroke-width="1.6"></line></g></g><g x="943.7848777681628" y="97.6" transform="translate(943.7848777681628,97.6)"><g><g><text x="0" y="0" fill="#000000" font-size="40" font-family='bravura'></text></g><line x1="0.8" x2="0.8" y1="1.8399999999999999" y2="36.84" stroke="#000000" stroke-width="1.6"></line><g><text x="-25" y="0" font-size="40" font-family='bravura'></text><g><text x="-18" y="0" fill="#000000" font-size="40" font-family='bravura'></text><rect data-selection-info="accidental-0" width="4" height="5" x="-19.2" y="-2.5" fill="transparent" class="mn_handle"></rect></g><text x="-11.28" y="0" font-size="40" font-family='bravura'></text></g></g></g><g></g><g x="984.2194047536634" y="97.6" transform="translate(984.2194047536634,97.6)"><g><g><text x="0" y="0" fill="#000000" font-size="40" font-family='bravura'></text></g><line x1="0.8" x2="0.8" y1="1.8399999999999999" y2="36.84" stroke="#000000" stroke-width="1.6"></line><g><text x="-25" y="0" font-size="40" font-family='bravura'></text><g><text x="-18" y="0" fill="#000000" font-size="40" font-family='bravura'></text><rect data-selection-info="accidental-0" width="4" height="5" x="-19.2" y="-2.5" fill="transparent" class="mn_handle"></rect></g><text x="-11.28" y="0" font-size="40" font-family='bravura'></text></g></g></g><line x1="1024.6539317391641" x2="1024.6539317391641" y1="77.6" y2="117.6" stroke="#2A2A2A" stroke-width="1.6"></line><g x="1046.6539317391641" y="97.6" transform="translate(1046.6539317391641,97.6)"><g><g><text x="0" y="0" fill="#000000" font-size="40" font-family='bravura'></text></g><line x1="0.8" x2="0.8" y1="1.8399999999999999" y2="36.84" stroke="#000000" stroke-width="1.6"></line></g></g><g x="1087.0884587246646" y="97.6" transform="translate(1087.0884587246646,97.6)"><g><g><text x="0" y="0" fill="#000000" font-size="40" font-family='bravura'></text></g><line x1="0.8" x2="0.8" y1="1.8399999999999999" y2="36.84" stroke="#000000" stroke-width="1.6"></line><g><text x="-25" y="0" font-size="40" font-family='bravura'></text><g><text x="-18" y="0" fill="#000000" font-size="40" font-family='bravura'></text><rect data-selection-info="accidental-0" width="4" height="5" x="-19.2" y="-2.5" fill="transparent" class="mn_handle"></rect></g><text x="-11.28" y="0" font-size="40" font-family='bravura'></text></g></g></g><g x="1127.5229857101651" y="97.6" transform="translate(1127.5229857101651,97.6)"><g><g><text x="0" y="0" fill="#000000" font-size="40" font-family='bravura'></text></g><line x1="0.8" x2="0.8" y1="1.8399999999999999" y2="36.84" stroke="#000000" stroke-width="1.6"></line><g><text x="-25" y="0" font-size="40" font-family='bravura'></text><g><text x="-18" y="0" fill="#000000" font-size="40" font-family='bravura'></text><rect data-selection-info="accidental-0" width="4" height="5" x="-19.2" y="-2.5" fill="transparent" class="mn_handle"></rect></g><text x="-11.28" y="0" font-size="40" font-family='bravura'></text></g></g></g><line x1="1167.9575126956656" x2="1167.9575126956656" y1="77.6" y2="117.6" stroke="#2A2A2A" stroke-width="1.6"></line><g x="1189.9575126956656" y="97.6" transform="translate(1189.9575126956656,97.6)"><g><g><text x="0" y="0" fill="#000000" font-size="40" font-family='bravura'></text></g><line x1="0.8" x2="0.8" y1="1.8399999999999999" y2="36.84" stroke="#000000" stroke-width="1.6"></line></g></g><g><text x="1230.3920396811664" y="97.6" fill="#000000" font-size="40" font-family='bravura'></text></g><line x1="1284.1599000000003" x2="1284.1599000000003" y1="77.6" y2="117.6" stroke="#2A2A2A" stroke-width="1.6"></line></g><g><g><g><line x1="97.6" x2="1284.1600000000003" y1="273.6" y2="273.6" stroke="#6A6A6A" stroke-width="1.3"></line><line x1="97.6" x2="1284.1600000000003" y1="263.6" y2="263.6" stroke="#6A6A6A" stroke-width="1.3"></line><line x1="97.6" x2="1284.1600000000003" y1="253.6" y2="253.6" stroke="#6A6A6A" stroke-width="1.3"></line><line x1="97.6" x2="1284.1600000000003" y1="243.6" y2="243.6" stroke="#6A6A6A" stroke-width="1.3"></line><line x1="97.6" x2="1284.1600000000003" y1="233.6" y2="233.6" stroke="#6A6A6A" stroke-width="1.3"></line></g><text x="97.6" y="223.6" font-size="24" class="bn_">8</text></g><g></g><text x="105.60000000000002" y="263.6" fill="#000000" font-size="40" font-family='bravura'></text><g></g><g x="152.10000000000002" y="253.6" transform="translate(152.10000000000002,253.6)"><g><g><text x="0" y="-35" fill="#000000" font-size="40" font-family='bravura'></text></g><line x1="0.8" x2="0.8" y1="-33.16" y2="1.8400000000000034" stroke="#000000" stroke-width="1.6"></line><line x1="-3.2" x2="18.72" y1="-30" y2="-30" stroke="#000000" stroke-width="2.2"></line></g></g><g x="187.50962592592597" y="253.6" transform="translate(187.50962592592597,253.6)"><g><g><text x="0" y="-35" fill="#000000" font-size="40" font-family='bravura'></text></g><line x1="0.8" x2="0.8" y1="-33.16" y2="1.8400000000000034" stroke="#000000" stroke-width="1.6"></line><g><text x="-25" y="-35" font-size="40" font-family='bravura'></text><g><text x="-18" y="-35" fill="#000000" font-size="40" font-family='bravura'></text><rect data-selection-info="accidental-0" width="4" height="5" x="-19.2" y="-37.5" fill="transparent" class="mn_handle"></rect></g><text x="-11.28" y="-35" font-size="40" font-family='bravura'></text></g><line x1="-3.2" x2="18.72" y1="-30" y2="-30" stroke="#000000" stroke-width="2.2"></line></g></g><g x="222.9192518518519" y="253.6" transform="translate(222.9192518518519,253.6)"><g><g><text x="0" y="-35" fill="#000000" font-size="40" font-family='bravura'></text></g><line x1="0.8" x2="0.8" y1="-33.16" y2="1.8400000000000034" stroke="#000000" stroke-width="1.6"></line><g><text x="-25" y="-35" font-size="40" font-family='bravura'></text><g><text x="-18" y="-35" fill="#000000" font-size="40" font-family='bravura'></text><rect data-selection-info="accidental-0" width="4" height="5" x="-19.2" y="-37.5" fill="transparent" class="mn_handle"></rect></g><text x="-11.28" y="-35" font-size="40" font-family='bravura'></text></g><line x1="-3.2" x2="18.72" y1="-30" y2="-30" stroke="#000000" stroke-width="2.2"></line></g></g><g></g><line x1="258.32887777777785" x2="258.32887777777785" y1="233.6" y2="273.6" stroke="#2A2A2A" stroke-width="1.6"></line><g></g><g x="280.32887777777785" y="253.6" transform="translate(280.32887777777785,253.6)"><g><g><text x="0" y="70" fill="#000000" font-size="40" font-family='bravura'></text></g><line x1="12.48" x2="12.48" y1="68.16" y2="-1.8400000000000034" stroke="#000000" stroke-width="1.6"></line><line x1="-3.2" x2="18.72" y1="30" y2="30" stroke="#000000" stroke-width="2.2"></line><line x1="-3.2" x2="18.72" y1="40" y2="40" stroke="#000000" stroke-width="2.2"></line><line x1="-3.2" x2="18.72" y1="50" y2="50" stroke="#000000" stroke-width="2.2"></line><line x1="-3.2" x2="18.72" y1="60" y2="60" stroke="#000000" stroke-width="2.2"></line><line x1="-3.2" x2="18.72" y1="70" y2="70" stroke="#000000" stroke-width="2.2"></line></g></g><g x="315.73850370370377" y="253.6" transform="translate(315.73850370370377,253.6)"><g><g><text x="0" y="70" fill="#000000" font-size="40" font-family='bravura'></text></g><line x1="12.48" x2="12.48" y1="68.16" y2="-1.8400000000000034" stroke="#000000" stroke-width="1.6"></line><g><text x="-25" y="70" font-size="40" font-family='bravura'></text><g><text x="-18" y="70" fill="#000000" font-size="40" font-family='bravura'></text><rect data-selection-info="accidental-0" width="4" height="5" x="-19.2" y="67.5" fill="transparent" class="mn_handle"></rect></g><text x="-11.28" y="70" font-size="40" font-family='bravura'></text></g><line x1="-3.2" x2="18.72" y1="30" y2="30" stroke="#000000" stroke-width="2.2"></line><line x1="-3.2" x2="18.72" y1="40" y2="40" stroke="#000000" stroke-width="2.2"></line><line x1="-3.2" x2="18.72" y1="50" y2="50" stroke="#000000" stroke-width="2.2"></line><line x1="-3.2" x2="18.72" y1="60" y2="60" stroke="#000000" stroke-width="2.2"></line><line x1="-3.2" x2="18.72" y1="70" y2="70" stroke="#000000" stroke-width="2.2"></line></g></g><g x="351.1481296296297" y="253.6" transform="translate(351.1481296296297,253.6)"><g><g><text x="0" y="70" fill="#000000" font-size="40" font-family='bravura'></text></g><line x1="12.48" x2="12.48" y1="68.16" y2="-1.8400000000000034" stroke="#000000" stroke-width="1.6"></line><g><text x="-25" y="70" font-size="40" font-family='bravura'></text><g><text x="-18" y="70" fill="#000000" font-size="40" font-family='bravura'></text><rect data-selection-info="accidental-0" width="4" height="5" x="-19.2" y="67.5" fill="transparent" class="mn_handle"></rect></g><text x="-11.28" y="70" font-size="40" font-family='bravura'></text></g><line x1="-3.2" x2="18.72" y1="30" y2="30" stroke="#000000" stroke-width="2.2"></line><line x1="-3.2" x2="18.72" y1="40" y2="40" stroke="#000000" stroke-width="2.2"></line><line x1="-3.2" x2="18.72" y1="50" y2="50" stroke="#000000" stroke-width="2.2"></line><line x1="-3.2" x2="18.72" y1="60" y2="60" stroke="#000000" stroke-width="2.2"></line><line x1="-3.2" x2="18.72" y1="70" y2="70" stroke="#000000" stroke-width="2.2"></line></g></g><g></g><line x1="386.55775555555556" x2="386.55775555555556" y1="233.6" y2="273.6" stroke="#2A2A2A" stroke-width="1.6"></line><g></g><g x="408.55775555555556" y="253.6" transform="translate(408.55775555555556,253.6)"><g><g><text x="0" y="0" fill="#000000" font-size="40" font-family='bravura'></text></g><line x1="0.8" x2="0.8" y1="1.8399999999999999" y2="36.84" stroke="#000000" stroke-width="1.6"></line></g></g><g x="443.9673814814815" y="253.6" transform="translate(443.9673814814815,253.6)"><g><g><text x="0" y="0" fill="#000000" font-size="40" font-family='bravura'></text></g><line x1="0.8" x2="0.8" y1="1.8399999999999999" y2="36.84" stroke="#000000" stroke-width="1.6"></line><g><text x="-25" y="0" font-size="40" font-family='bravura'></text><g><text x="-18" y="0" fill="#000000" font-size="40" font-family='bravura'></text><rect data-selection-info="accidental-0" width="4" height="5" x="-19.2" y="-2.5" fill="transparent" class="mn_handle"></rect></g><text x="-11.28" y="0" font-size="40" font-family='bravura'></text></g></g></g><g></g><g x="479.3770074074074" y="253.6" transform="translate(479.3770074074074,253.6)"><g><g><text x="0" y="0" fill="#000000" font-size="40" font-family='bravura'></text></g><line x1="0.8" x2="0.8" y1="1.8399999999999999" y2="36.84" stroke="#000000" stroke-width="1.6"></line><g><text x="-25" y="0" font-size="40" font-family='bravura'></text><g><text x="-18" y="0" fill="#000000" font-size="40" font-family='bravura'></text><rect data-selection-info="accidental-0" width="4" height="5" x="-19.2" y="-2.5" fill="transparent" class="mn_handle"></rect></g><text x="-11.28" y="0" font-size="40" font-family='bravura'></text></g></g></g><line x1="514.7866333333333" x2="514.7866333333333" y1="233.6" y2="273.6" stroke="#2A2A2A" stroke-width="1.6"></line><g></g><g x="536.7866333333333" y="253.6" transform="translate(536.7866333333333,253.6)"><g><g><text x="0" y="0" fill="#000000" font-size="40" font-family='bravura'></text></g><line x1="0.8" x2="0.8" y1="1.8399999999999999" y2="36.84" stroke="#000000" stroke-width="1.6"></line></g></g><g x="572.1962592592593" y="253.6" transform="translate(572.1962592592593,253.6)"><g><g><text x="0" y="0" fill="#000000" font-size="40" font-family='bravura'></text></g><line x1="0.8" x2="0.8" y1="1.8399999999999999" y2="36.84" stroke="#000000" stroke-width="1.6"></line><g><text x="-25" y="0" font-size="40" font-family='bravura'></text><g><text x="-18" y="0" fill="#000000" font-size="40" font-family='bravura'></text><rect data-selection-info="accidental-0" width="4" height="5" x="-19.2" y="-2.5" fill="transparent" class="mn_handle"></rect></g><text x="-11.28" y="0" font-size="40" font-family='bravura'></text></g></g></g><g></g><g x="607.6058851851852" y="253.6" transform="translate(607.6058851851852,253.6)"><g><g><text x="0" y="0" fill="#000000" font-size="40" font-family='bravura'></text></g><line x1="0.8" x2="0.8" y1="1.8399999999999999" y2="36.84" stroke="#000000" stroke-width="1.6"></line><g><text x="-25" y="0" font-size="40" font-family='bravura'></text><g><text x="-18" y="0" fill="#000000" font-size="40" font-family='bravura'></text><rect data-selection-info="accidental-0" width="4" height="5" x="-19.2" y="-2.5" fill="transparent" class="mn_handle"></rect></g><text x="-11.28" y="0" font-size="40" font-family='bravura'></text></g></g></g><line x1="643.0155111111111" x2="643.0155111111111" y1="233.6" y2="273.6" stroke="#2A2A2A" stroke-width="1.6"></line><g></g><g x="665.0155111111111" y="253.6" transform="translate(665.0155111111111,253.6)"><g><g><text x="0" y="0" fill="#000000" font-size="40" font-family='bravura'></text></g><line x1="0.8" x2="0.8" y1="1.8399999999999999" y2="36.84" stroke="#000000" stroke-width="1.6"></line></g></g><g x="700.4251370370371" y="253.6" transform="translate(700.4251370370371,253.6)"><g><g><text x="0" y="0" fill="#000000" font-size="40" font-family='bravura'></text></g><line x1="0.8" x2="0.8" y1="1.8399999999999999" y2="36.84" stroke="#000000" stroke-width="1.6"></line><g><text x="-25" y="0" font-size="40" font-family='bravura'></text><g><text x="-18" y="0" fill="#000000" font-size="40" font-family='bravura'></text><rect data-selection-info="accidental-0" width="4" height="5" x="-19.2" y="-2.5" fill="transparent" class="mn_handle"></rect></g><text x="-11.28" y="0" font-size="40" font-family='bravura'></text></g></g></g><g></g><g x="735.8347629629629" y="253.6" transform="translate(735.8347629629629,253.6)"><g><g><text x="0" y="0" fill="#000000" font-size="40" font-family='bravura'></text></g><line x1="0.8" x2="0.8" y1="1.8399999999999999" y2="36.84" stroke="#000000" stroke-width="1.6"></line><g><text x="-25" y="0" font-size="40" font-family='bravura'></text><g><text x="-18" y="0" fill="#000000" font-size="40" font-family='bravura'></text><rect data-selection-info="accidental-0" width="4" height="5" x="-19.2" y="-2.5" fill="transparent" class="mn_handle"></rect></g><text x="-11.28" y="0" font-size="40" font-family='bravura'></text></g></g></g><line x1="771.2443888888888" x2="771.2443888888888" y1="233.6" y2="273.6" stroke="#2A2A2A" stroke-width="1.6"></line><g></g><g x="793.2443888888888" y="253.6" transform="translate(793.2443888888888,253.6)"><g><g><text x="0" y="0" fill="#000000" font-size="40" font-family='bravura'></text></g><line x1="0.8" x2="0.8" y1="1.8399999999999999" y2="36.84" stroke="#000000" stroke-width="1.6"></line></g></g><g x="828.6540148148148" y="253.6" transform="translate(828.6540148148148,253.6)"><g><g><text x="0" y="0" fill="#000000" font-size="40" font-family='bravura'></text></g><line x1="0.8" x2="0.8" y1="1.8399999999999999" y2="36.84" stroke="#000000" stroke-width="1.6"></line><g><text x="-25" y="0" font-size="40" font-family='bravura'></text><g><text x="-18" y="0" fill="#000000" font-size="40" font-family='bravura'></text><rect data-selection-info="accidental-0" width="4" height="5" x="-19.2" y="-2.5" fill="transparent" class="mn_handle"></rect></g><text x="-11.28" y="0" font-size="40" font-family='bravura'></text></g></g></g><g></g><g x="864.0636407407407" y="253.6" transform="translate(864.0636407407407,253.6)"><g><g><text x="0" y="0" fill="#000000" font-size="40" font-family='bravura'></text></g><line x1="0.8" x2="0.8" y1="1.8399999999999999" y2="36.84" stroke="#000000" stroke-width="1.6"></line><g><text x="-25" y="0" font-size="40" font-family='bravura'></text><g><text x="-18" y="0" fill="#000000" font-size="40" font-family='bravura'></text><rect data-selection-info="accidental-0" width="4" height="5" x="-19.2" y="-2.5" fill="transparent" class="mn_handle"></rect></g><text x="-11.28" y="0" font-size="40" font-family='bravura'></text></g></g></g><line x1="899.4732666666665" x2="899.4732666666665" y1="233.6" y2="273.6" stroke="#2A2A2A" stroke-width="1.6"></line><g></g><g x="921.4732666666665" y="253.6" transform="translate(921.4732666666665,253.6)"><g><g><text x="0" y="0" fill="#000000" font-size="40" font-family='bravura'></text></g><line x1="0.8" x2="0.8" y1="1.8399999999999999" y2="36.84" stroke="#000000" stroke-width="1.6"></line></g></g><g x="956.8828925925925" y="253.6" transform="translate(956.8828925925925,253.6)"><g><g><text x="0" y="0" fill="#000000" font-size="40" font-family='bravura'></text></g><line x1="0.8" x2="0.8" y1="1.8399999999999999" y2="36.84" stroke="#000000" stroke-width="1.6"></line><g><text x="-25" y="0" font-size="40" font-family='bravura'></text><g><text x="-18" y="0" fill="#000000" font-size="40" font-family='bravura'></text><rect data-selection-info="accidental-0" width="4" height="5" x="-19.2" y="-2.5" fill="transparent" class="mn_handle"></rect></g><text x="-11.28" y="0" font-size="40" font-family='bravura'></text></g></g></g><g></g><g x="992.2925185185184" y="253.6" transform="translate(992.2925185185184,253.6)"><g><g><text x="0" y="0" fill="#000000" font-size="40" font-family='bravura'></text></g><line x1="0.8" x2="0.8" y1="1.8399999999999999" y2="36.84" stroke="#000000" stroke-width="1.6"></line><g><text x="-25" y="0" font-size="40" font-family='bravura'></text><g><text x="-18" y="0" fill="#000000" font-size="40" font-family='bravura'></text><rect data-selection-info="accidental-0" width="4" height="5" x="-19.2" y="-2.5" fill="transparent" class="mn_handle"></rect></g><text x="-11.28" y="0" font-size="40" font-family='bravura'></text></g></g></g><line x1="1027.7021444444442" x2="1027.7021444444442" y1="233.6" y2="273.6" stroke="#2A2A2A" stroke-width="1.6"></line><g></g><g x="1049.7021444444442" y="253.6" transform="translate(1049.7021444444442,253.6)"><g><g><text x="0" y="0" fill="#000000" font-size="40" font-family='bravura'></text></g><line x1="0.8" x2="0.8" y1="1.8399999999999999" y2="36.84" stroke="#000000" stroke-width="1.6"></line></g></g><g x="1085.11177037037" y="253.6" transform="translate(1085.11177037037,253.6)"><g><g><text x="0" y="0" fill="#000000" font-size="40" font-family='bravura'></text></g><line x1="0.8" x2="0.8" y1="1.8399999999999999" y2="36.84" stroke="#000000" stroke-width="1.6"></line><g><text x="-25" y="0" font-size="40" font-family='bravura'></text><g><text x="-18" y="0" fill="#000000" font-size="40" font-family='bravura'></text><rect data-selection-info="accidental-0" width="4" height="5" x="-19.2" y="-2.5" fill="transparent" class="mn_handle"></rect></g><text x="-11.28" y="0" font-size="40" font-family='bravura'></text></g></g></g><g></g><g x="1120.5213962962962" y="253.6" transform="translate(1120.5213962962962,253.6)"><g><g><text x="0" y="0" fill="#000000" font-size="40" font-family='bravura'></text></g><line x1="0.8" x2="0.8" y1="1.8399999999999999" y2="36.84" stroke="#000000" stroke-width="1.6"></line><g><text x="-25" y="0" font-size="40" font-family='bravura'></text><g><text x="-18" y="0" fill="#000000" font-size="40" font-family='bravura'></text><rect data-selection-info="accidental-0" width="4" height="5" x="-19.2" y="-2.5" fill="transparent" class="mn_handle"></rect></g><text x="-11.28" y="0" font-size="40" font-family='bravura'></text></g></g></g><line x1="1155.9310222222223" x2="1155.9310222222223" y1="233.6" y2="273.6" stroke="#2A2A2A" stroke-width="1.6"></line><g x="1177.9310222222223" y="253.6" transform="translate(1177.9310222222223,253.6)"><g><g><text x="0" y="0" fill="#000000" font-size="40" font-family='bravura'></text></g><line x1="0.8" x2="0.8" y1="1.8399999999999999" y2="36.84" stroke="#000000" stroke-width="1.6"></line></g></g><g x="1213.3406481481484" y="253.6" transform="translate(1213.3406481481484,253.6)"><g><g><text x="0" y="-20" fill="#000000" font-size="40" font-family='bravura'></text></g><line x1="0.8" x2="0.8" y1="-18.16" y2="16.84" stroke="#000000" stroke-width="1.6"></line></g></g><g><text x="1248.7502740740742" y="253.6" fill="#000000" font-size="40" font-family='bravura'></text></g><line x1="1284.1599000000003" x2="1284.1599000000003" y1="233.6" y2="273.6" stroke="#2A2A2A" stroke-width="1.6"></line></g><g><g><g><line x1="97.6" x2="1284.1600000000003" y1="404.6" y2="404.6" stroke="#6A6A6A" stroke-width="1.3"></line><line x1="97.6" x2="1284.1600000000003" y1="394.6" y2="394.6" stroke="#6A6A6A" stroke-width="1.3"></line><line x1="97.6" x2="1284.1600000000003" y1="384.6" y2="384.6" stroke="#6A6A6A" stroke-width="1.3"></line><line x1="97.6" x2="1284.1600000000003" y1="374.6" y2="374.6" stroke="#6A6A6A" stroke-width="1.3"></line><line x1="97.6" x2="1284.1600000000003" y1="364.6" y2="364.6" stroke="#6A6A6A" stroke-width="1.3"></line></g><text x="97.6" y="354.6" font-size="24" class="bn_">17</text></g><text x="NaN" y="394.6" fill="#000000" font-size="40" font-family='bravura'></text><g></g><g x="NaN" y="384.6" transform="translate(NaN,384.6)"><g><g><text x="0" y="0" fill="#000000" font-size="40" font-family='bravura'></text></g><line x1="0.8" x2="0.8" y1="1.8399999999999999" y2="36.84" stroke="#000000" stroke-width="1.6"></line></g></g><g x="NaN" y="384.6" transform="translate(NaN,384.6)"><g><g><text x="0" y="-5" fill="#000000" font-size="40" font-family='bravura'></text></g><line x1="0.8" x2="0.8" y1="-3.16" y2="31.84" stroke="#000000" stroke-width="1.6"></line></g></g><g><text x="NaN" y="384.6" fill="#000000" font-size="40" font-family='bravura'></text></g><line x1="NaN" x2="NaN" y1="364.6" y2="404.6" stroke="#2A2A2A" stroke-width="1.6"></line><g x="NaN" y="384.6" transform="translate(NaN,384.6)"><g><g><text x="0" y="0" fill="#000000" font-size="40" font-family='bravura'></text></g><line x1="12.48" x2="12.48" y1="-1.8399999999999999" y2="-36.84" stroke="#000000" stroke-width="1.6"></line></g></g><g x="NaN" y="384.6" transform="translate(NaN,384.6)"><g><g><text x="0" y="30" fill="#000000" font-size="40" font-family='bravura'></text></g><line x1="12.48" x2="12.48" y1="28.16" y2="-6.84" stroke="#000000" stroke-width="1.6"></line><line x1="-3.2" x2="18.72" y1="30" y2="30" stroke="#000000" stroke-width="2.2"></line></g></g><g><text x="NaN" y="384.6" fill="#000000" font-size="40" font-family='bravura'></text></g><line x1="NaN" x2="NaN" y1="364.6" y2="404.6" stroke="#2A2A2A" stroke-width="1.6"></line><g x="NaN" y="384.6" transform="translate(NaN,384.6)"><g><g><text x="0" y="0" fill="#000000" font-size="40" font-family='bravura'></text></g><line x1="0.8" x2="0.8" y1="1.8399999999999999" y2="36.84" stroke="#000000" stroke-width="1.6"></line></g></g><g x="NaN" y="384.6" transform="translate(NaN,384.6)"><g><g><text x="0" y="0" fill="#000000" font-size="40" font-family='bravura'></text></g><line x1="0.8" x2="0.8" y1="1.8399999999999999" y2="36.84" stroke="#000000" stroke-width="1.6"></line><g><text x="-25" y="0" font-size="40" font-family='bravura'></text><g><text x="-18" y="0" fill="#000000" font-size="40" font-family='bravura'></text><rect data-selection-info="accidental-0" width="4" height="5" x="-19.2" y="-2.5" fill="transparent" class="mn_handle"></rect></g><text x="-11.28" y="0" font-size="40" font-family='bravura'></text></g></g></g><g x="NaN" y="384.6" transform="translate(NaN,384.6)"><g><g><text x="0" y="0" fill="#000000" font-size="40" font-family='bravura'></text></g><line x1="0.8" x2="0.8" y1="1.8399999999999999" y2="36.84" stroke="#000000" stroke-width="1.6"></line><g><text x="-25" y="0" font-size="40" font-family='bravura'></text><g><text x="-18" y="0" fill="#000000" font-size="40" font-family='bravura'></text><rect data-selection-info="accidental-0" width="4" height="5" x="-19.2" y="-2.5" fill="transparent" class="mn_handle"></rect></g><text x="-11.28" y="0" font-size="40" font-family='bravura'></text></g></g></g><line x1="NaN" x2="NaN" y1="364.6" y2="404.6" stroke="#2A2A2A" stroke-width="1.6"></line><g x="NaN" y="384.6" transform="translate(NaN,384.6)"><g><g><text x="0" y="0" fill="#000000" font-size="40" font-family='bravura'></text></g><line x1="0.8" x2="0.8" y1="1.8399999999999999" y2="36.84" stroke="#000000" stroke-width="1.6"></line></g></g><g x="NaN" y="384.6" transform="translate(NaN,384.6)"><g><g><text x="0" y="0" fill="#000000" font-size="40" font-family='bravura'></text></g><line x1="0.8" x2="0.8" y1="1.8399999999999999" y2="36.84" stroke="#000000" stroke-width="1.6"></line><g><text x="-25" y="0" font-size="40" font-family='bravura'></text><g><text x="-18" y="0" fill="#000000" font-size="40" font-family='bravura'></text><rect data-selection-info="accidental-0" width="4" height="5" x="-19.2" y="-2.5" fill="transparent" class="mn_handle"></rect></g><text x="-11.28" y="0" font-size="40" font-family='bravura'></text></g></g></g><g><text x="NaN" y="384.6" fill="#000000" font-size="40" font-family='bravura'></text></g><line x1="NaN" x2="NaN" y1="364.6" y2="404.6" stroke="#2A2A2A" stroke-width="1.6"></line><g x="NaN" y="384.6" transform="translate(NaN,384.6)"><g><g><text x="0" y="0" fill="#000000" font-size="40" font-family='bravura'></text></g><line x1="0.8" x2="0.8" y1="1.8399999999999999" y2="36.84" stroke="#000000" stroke-width="1.6"></line></g></g><g x="NaN" y="384.6" transform="translate(NaN,384.6)"><g><g><text x="0" y="0" fill="#000000" font-size="40" font-family='bravura'></text></g><line x1="0.8" x2="0.8" y1="1.8399999999999999" y2="36.84" stroke="#000000" stroke-width="1.6"></line><g><text x="-25" y="0" font-size="40" font-family='bravura'></text><g><text x="-18" y="0" fill="#000000" font-size="40" font-family='bravura'></text><rect data-selection-info="accidental-0" width="4" height="5" x="-19.2" y="-2.5" fill="transparent" class="mn_handle"></rect></g><text x="-11.28" y="0" font-size="40" font-family='bravura'></text></g></g></g><g><text x="NaN" y="384.6" fill="#000000" font-size="40" font-family='bravura'></text></g><line x1="NaN" x2="NaN" y1="364.6" y2="404.6" stroke="#2A2A2A" stroke-width="1.6"></line><g x="NaN" y="384.6" transform="translate(NaN,384.6)"><g><g><text x="0" y="0" fill="#000000" font-size="40" font-family='bravura'></text></g><line x1="0.8" x2="0.8" y1="1.8399999999999999" y2="36.84" stroke="#000000" stroke-width="1.6"></line></g></g><g x="NaN" y="384.6" transform="translate(NaN,384.6)"><g><g><text x="0" y="0" fill="#000000" font-size="40" font-family='bravura'></text></g><line x1="0.8" x2="0.8" y1="1.8399999999999999" y2="36.84" stroke="#000000" stroke-width="1.6"></line><g><text x="-25" y="0" font-size="40" font-family='bravura'></text><g><text x="-18" y="0" fill="#000000" font-size="40" font-family='bravura'></text><rect data-selection-info="accidental-0" width="4" height="5" x="-19.2" y="-2.5" fill="transparent" class="mn_handle"></rect></g><text x="-11.28" y="0" font-size="40" font-family='bravura'></text></g></g></g><g><text x="NaN" y="384.6" fill="#000000" font-size="40" font-family='bravura'></text></g><line x1="NaN" x2="NaN" y1="364.6" y2="404.6" stroke="#2A2A2A" stroke-width="1.6"></line><g></g><g x="NaN" y="384.6" transform="translate(NaN,384.6)"><g><g><text x="0" y="0" fill="#000000" font-size="40" font-family='bravura'></text></g><line x1="0.8" x2="0.8" y1="1.8399999999999999" y2="36.84" stroke="#000000" stroke-width="1.6"></line></g></g><g></g><g x="NaN" y="384.6" transform="translate(NaN,384.6)"><g><g><text x="0" y="0" fill="#000000" font-size="40" font-family='bravura'></text></g><line x1="0.8" x2="0.8" y1="1.8399999999999999" y2="36.84" stroke="#000000" stroke-width="1.6"></line><g><text x="-25" y="0" font-size="40" font-family='bravura'></text><g><text x="-18" y="0" fill="#000000" font-size="40" font-family='bravura'></text><rect data-selection-info="accidental-0" width="4" height="5" x="-19.2" y="-2.5" fill="transparent" class="mn_handle"></rect></g><text x="-11.28" y="0" font-size="40" font-family='bravura'></text></g></g></g><g></g><g x="NaN" y="384.6" transform="translate(NaN,384.6)"><g><g><text x="0" y="0" fill="#000000" font-size="40" font-family='bravura'></text></g><line x1="0.8" x2="0.8" y1="1.8399999999999999" y2="36.84" stroke="#000000" stroke-width="1.6"></line><g><text x="-25" y="0" font-size="40" font-family='bravura'></text><g><text x="-18" y="0" fill="#000000" font-size="40" font-family='bravura'></text><rect data-selection-info="accidental-0" width="4" height="5" x="-19.2" y="-2.5" fill="transparent" class="mn_handle"></rect></g><text x="-11.28" y="0" font-size="40" font-family='bravura'></text></g></g></g><g><line x1="NaN" x2="NaN" y1="364.6" y2="404.6" stroke="#2A2A2A" stroke-width="1.6"></line><line x1="NaN" x2="NaN" y1="364.6" y2="404.6" stroke="#2A2A2A" stroke-width="5"></line><rect opacity="1" x="NaN" y="363.6" stroke="#FFFFFF" fill="#FFFFFF" height="42" width="4000"></rect></g></g></g></svg>