<?xml version="1.0" encoding="UTF-8" standalone="no"?><svg xmlns="http://www.w3.org/2000/svg"  data-page="0" height="279.4mm" viewBox="0 0 1381.7600000000002 1788.1599999999999" width="215.90000000000003mm"><g style="font-size:6.25px;"></g><g style="font-size:6.25px;"><g><g><g><line x1="205.60000000000002" x2="1284.1600000000003" y1="142.6" y2="142.6" stroke="#6A6A6A" stroke-width="1.3"></line><line x1="205.60000000000002" x2="1284.1600000000003" y1="132.6" y2="132.6" stroke="#6A6A6A" stroke-width="1.3"></line><line x1="205.60000000000002" x2="1284.1600000000003" y1="122.6" y2="122.6" stroke="#6A6A6A" stroke-width="1.3"></line><line x1="205.60000000000002" x2="1284.1600000000003" y1="112.6" y2="112.6" stroke="#6A6A6A" stroke-width="1.3"></line><line x1="205.60000000000002" x2="1284.1600000000003" y1="102.6" y2="102.6" stroke="#6A6A6A" stroke-width="1.3"></line></g></g><text x="213.60000000000002" y="132.6" fill="#000000" font-size="40" font-family='bravura'></text><g></g><g><g><text x="260.1" y="112.6" fill="#000000" font-size="40" font-family='bravura'></text></g><g><text x="260.1" y="132.6" fill="#000000" font-size="40" font-family='bravura'></text></g></g><g x="313.1" y="122.6" transform="translate(313.1,122.6)"><g><g><text x="0" y="-15" fill="#000000" font-size="40" font-family='bravura'></text></g><line x1="0.8" x2="0.8" y1="-13.16" y2="21.84" stroke="#000000" stroke-width="1.6"></line></g></g><g x="431.6893010418602" y="122.6" transform="translate(431.6893010418602,122.6)"><g><g><text x="0" y="-20" fill="#000000" font-size="40" font-family='bravura'></text></g><line x1="0.8" x2="0.8" y1="-18.16" y2="16.84" stroke="#000000" stroke-width="1.6"></line><text x="0" y="16.84" fill="#000000" font-size="40" font-family='bravura'></text><g><text x="-12" y="-20" fill="#000000" font-size="40" font-family='bravura'></text><rect data-selection-info="accidental-0" width="4" height="5" x="-13.2" y="-22.5" fill="transparent" class="mn_handle"></rect></g></g></g><g x="523.6119354170536" y="122.6" transform="translate(523.6119354170536,122.6)"><g><g><text x="0" y="-25" fill="#000000" font-size="40" font-family='bravura'></text></g><line x1="0.8" x2="0.8" y1="-23.16" y2="11.84" stroke="#000000" stroke-width="1.6"></line><text x="0" y="11.84" fill="#000000" font-size="40" font-family='bravura'></text></g></g><g x="615.5345697922471" y="122.6" transform="translate(615.5345697922471,122.6)"><g><g><text x="0" y="-35" fill="#000000" font-size="24" font-family='bravura'></text></g><line x1="7.168000000000001" x2="7.168000000000001" y1="-36.84" y2="-55.59" stroke="#000000" stroke-width="1.6"></line><text x="6.568000000000001" y="-55.59" fill="#000000" font-size="24" font-family='bravura'></text><line x1="-3.2" x2="18.72" y1="-30" y2="-30" stroke="#000000" stroke-width="2.2"></line></g></g><g x="632.6945697922471" y="122.6" transform="translate(632.6945697922471,122.6)"><g><g><text x="0" y="-30" fill="#000000" font-size="40" font-family='bravura'></text><g><circle data-selection-info="dotted" cx="19.28" cy="-35" fill="#000000" r="2.4"></circle><rect data-selection-info="dotted" width="3" height="3" x="15.280000000000001" y="-39" fill="transparent" class="mn_handle"></rect></g></g><line x1="0.8" x2="0.8" y1="-28.16" y2="6.84" stroke="#000000" stroke-width="1.6"></line><line x1="-3.2" x2="18.72" y1="-30" y2="-30" stroke="#000000" stroke-width="2.2"></line></g></g><g x="759.0833708437226" y="122.6" transform="translate(759.0833708437226,122.6)"><g><g><text x="0" y="-25" fill="#000000" font-size="24" font-family='bravura'></text></g><line x1="7.168000000000001" x2="7.168000000000001" y1="-26.84" y2="-45.59" stroke="#000000" stroke-width="1.6"></line><text x="6.568000000000001" y="-45.59" fill="#000000" font-size="24" font-family='bravura'></text><g><text x="-17.799999999999997" y="-25" font-size="40" font-family='bravura'></text><g><text x="-10.799999999999999" y="-25" fill="#000000" font-size="24" font-family='bravura'></text><rect data-selection-info="accidental-0" width="4" height="5" x="-11.999999999999998" y="-27.5" fill="transparent" class="mn_handle"></rect></g><text x="-4.079999999999998" y="-25" font-size="40" font-family='bravura'></text></g></g></g><g x="776.2433708437226" y="122.6" transform="translate(776.2433708437226,122.6)"><g><g><text x="0" y="-30" fill="#000000" font-size="24" font-family='bravura'></text></g><line x1="7.168000000000001" x2="7.168000000000001" y1="-31.84" y2="-50.59" stroke="#000000" stroke-width="1.6"></line><text x="6.568000000000001" y="-50.59" fill="#000000" font-size="24" font-family='bravura'></text><g><text x="-17.799999999999997" y="-30" font-size="40" font-family='bravura'></text><g><text x="-10.799999999999999" y="-30" fill="#000000" font-size="24" font-family='bravura'></text><rect data-selection-info="accidental-0" width="4" height="5" x="-11.999999999999998" y="-32.5" fill="transparent" class="mn_handle"></rect></g><text x="-4.079999999999998" y="-30" font-size="40" font-family='bravura'></text></g><line x1="-3.2" x2="18.72" y1="-30" y2="-30" stroke="#000000" stroke-width="2.2"></line></g></g><g><line x1="793.4033708437225" x2="793.4033708437225" y1="102.6" y2="142.6" stroke="#2A2A2A" stroke-width="1.6"></line><line x1="802.4033708437225" x2="802.4033708437225" y1="102.6" y2="142.6" stroke="#2A2A2A" stroke-width="5"></line><rect opacity="1" x="804.0033708437226" y="101.6" stroke="#FFFFFF" fill="#FFFFFF" height="42" width="4000"></rect></g></g></g></svg>