<?xml version="1.0" encoding="UTF-8" standalone="no"?><svg xmlns="http://www.w3.org/2000/svg"  data-page="0" height="279.4mm" viewBox="0 0 1381.7600000000002 1788.1599999999999" width="215.90000000000003mm"><g style="font-size:6.25px;"></g><g style="font-size:6.25px;"><g><g><g><line x1="205.6" x2="1284.1600000000003" y1="132.6" y2="132.6" stroke="#6A6A6A" stroke-width="1.3"></line><line x1="205.6" x2="1284.1600000000003" y1="122.6" y2="122.6" stroke="#6A6A6A" stroke-width="1.3"></line><line x1="205.6" x2="1284.1600000000003" y1="112.6" y2="112.6" stroke="#6A6A6A" stroke-width="1.3"></line><line x1="205.6" x2="1284.1600000000003" y1="102.6" y2="102.6" stroke="#6A6A6A" stroke-width="1.3"></line><line x1="205.6" x2="1284.1600000000003" y1="92.6" y2="92.6" stroke="#6A6A6A" stroke-width="1.3"></line></g></g><text x="213.6" y="122.6" fill="#000000" font-size="40" font-family='bravura'></text><g></g><text x="260.1" y="112.6" fill="#000000" font-size="40" font-family='bravura'></text><g x="313.1" y="112.6" transform="translate(313.1,112.6)"><g><g><text x="0" y="10" fill="#000000" font-size="40" font-family='bravura'></text></g><g><text x="0" y="-5" fill="#000000" font-size="40" font-family='bravura'></text></g><g><text x="0" y="-25" fill="#000000" font-size="40" font-family='bravura'></text></g><line x1="0.8" x2="0.8" y1="-23.16" y2="36.84" stroke="#000000" stroke-width="1.6"></line></g></g><g x="414.38169008869863" y="112.6" transform="translate(414.38169008869863,112.6)"><g><g><text x="0" y="5" fill="#000000" font-size="40" font-family='bravura'></text></g><g><text x="0" y="-10" fill="#000000" font-size="40" font-family='bravura'></text></g><line x1="0.8" x2="0.8" y1="-8.16" y2="31.84" stroke="#000000" stroke-width="1.6"></line></g></g><g x="515.6633801773974" y="112.6" transform="translate(515.6633801773974,112.6)"><g><g><text x="0" y="10" fill="#000000" font-size="40" font-family='bravura'></text></g><g><text x="0" y="-10" fill="#000000" font-size="40" font-family='bravura'></text></g><line x1="0.8" x2="0.8" y1="-8.16" y2="36.84" stroke="#000000" stroke-width="1.6"></line><g><text x="-25" y="10" font-size="40" font-family='bravura'></text><g><text x="-18" y="10" fill="#000000" font-size="40" font-family='bravura'></text><rect data-selection-info="accidental-0" width="4" height="5" x="-19.2" y="7.5" fill="transparent" class="mn_handle"></rect></g><text x="-11.28" y="10" font-size="40" font-family='bravura'></text></g><g><text x="-30" y="-10" font-size="40" font-family='bravura'></text><g><text x="-23" y="-10" fill="#000000" font-size="40" font-family='bravura'></text><rect data-selection-info="accidental-1" width="4" height="5" x="-24.2" y="-12.5" fill="transparent" class="mn_handle"></rect></g><text x="-16.28" y="-10" font-size="40" font-family='bravura'></text></g></g></g><g x="616.945070266096" y="112.6" transform="translate(616.945070266096,112.6)"><g><g><text x="0" y="-5" fill="#000000" font-size="40" font-family='bravura'></text></g><line x1="0.8" x2="0.8" y1="-3.16" y2="31.84" stroke="#000000" stroke-width="1.6"></line><g><text x="-25" y="-5" font-size="40" font-family='bravura'></text><g><text x="-18" y="-5" fill="#000000" font-size="40" font-family='bravura'></text><rect data-selection-info="accidental-0" width="4" height="5" x="-19.2" y="-7.5" fill="transparent" class="mn_handle"></rect></g><text x="-11.28" y="-5" font-size="40" font-family='bravura'></text></g></g></g><g><line x1="718.2267603547946" x2="718.2267603547946" y1="92.6" y2="132.6" stroke="#2A2A2A" stroke-width="1.6"></line><line x1="727.2267603547946" x2="727.2267603547946" y1="92.6" y2="132.6" stroke="#2A2A2A" stroke-width="5"></line><rect opacity="1" x="728.8267603547946" y="91.6" stroke="#FFFFFF" fill="#FFFFFF" height="42" width="4000"></rect></g></g></g></svg>