<?xml version="1.0" encoding="UTF-8" standalone="no"?><svg xmlns="http://www.w3.org/2000/svg"  data-page="0" height="279.4mm" viewBox="0 0 1381.7600000000002 1788.1599999999999" width="215.90000000000003mm"><g style="font-size:6.25px;"></g><g style="font-size:6.25px;"><g><g><g><line x1="205.60000000000002" x2="1284.1600000000003" y1="117.6" y2="117.6" stroke="#6A6A6A" stroke-width="1.3"></line><line x1="205.60000000000002" x2="1284.1600000000003" y1="107.6" y2="107.6" stroke="#6A6A6A" stroke-width="1.3"></line><line x1="205.60000000000002" x2="1284.1600000000003" y1="97.6" y2="97.6" stroke="#6A6A6A" stroke-width="1.3"></line><line x1="205.60000000000002" x2="1284.1600000000003" y1="87.6" y2="87.6" stroke="#6A6A6A" stroke-width="1.3"></line><line x1="205.60000000000002" x2="1284.1600000000003" y1="77.6" y2="77.6" stroke="#6A6A6A" stroke-width="1.3"></line></g></g><text x="213.60000000000002" y="107.6" fill="#000000" font-size="40" font-family='bravura'></text><g></g><text x="260.1" y="97.6" fill="#000000" font-size="40" font-family='bravura'></text><g><g><text x="313.1" y="92.6" fill="#000000" font-size="40" font-family='bravura'></text></g><path d="M408.044283317161,82.6C390.64383976346414,65.957544 349.2067611272328,65.957544 331.8063261881659,82.6 C349.20676974186273,69.157544 390.6438533007397,69.157544 408.044283317161,82.6" fill="#000000" stroke-width="1.2" stroke="#000000"></path><text text-anchor="middle" font-size="22" x="322.28000000000003" y="157.6">A</text></g><line x1="392.75060950532685" x2="392.75060950532685" y1="77.6" y2="117.6" stroke="#2A2A2A" stroke-width="1.6"></line><g x="414.75060950532685" y="97.6" transform="translate(414.75060950532685,97.6)"><g><g><text x="0" y="-5" fill="#000000" font-size="40" font-family='bravura'></text></g><text text-anchor="middle" font-size="22" x="9.18" y="60">B</text></g></g><line x1="494.4012190106537" x2="494.4012190106537" y1="77.6" y2="117.6" stroke="#2A2A2A" stroke-width="1.6"></line><g x="516.4012190106537" y="97.6" transform="translate(516.4012190106537,97.6)"><g><g><text x="0" y="-5" fill="#000000" font-size="40" font-family='bravura'></text></g><text text-anchor="middle" font-size="22" x="9.18" y="60">C</text></g></g><line x1="596.0518285159804" x2="596.0518285159804" y1="77.6" y2="117.6" stroke="#2A2A2A" stroke-width="1.6"></line><g><g><text x="618.0518285159804" y="92.6" fill="#000000" font-size="40" font-family='bravura'></text></g><path d="M712.9961118331413,82.6C695.5956682794445,65.957544 654.1585896432132,65.957544 636.7581547041462,82.6 C654.1585982578431,69.157544 695.59568181672,69.157544 712.9961118331413,82.6" fill="#000000" stroke-width="1.2" stroke="#000000"></path><text text-anchor="middle" font-size="22" x="627.2318285159804" y="157.6">D</text></g><line x1="697.7024380213072" x2="697.7024380213072" y1="77.6" y2="117.6" stroke="#2A2A2A" stroke-width="1.6"></line><g x="719.7024380213072" y="97.6" transform="translate(719.7024380213072,97.6)"><g><g><text x="0" y="-5" fill="#000000" font-size="40" font-family='bravura'></text></g><text text-anchor="middle" font-size="22" x="9.18" y="60">E</text></g></g><g><line x1="799.3530475266341" x2="799.3530475266341" y1="77.6" y2="117.6" stroke="#2A2A2A" stroke-width="1.6"></line><line x1="808.3530475266341" x2="808.3530475266341" y1="77.6" y2="117.6" stroke="#2A2A2A" stroke-width="5"></line><rect opacity="1" x="809.9530475266341" y="76.6" stroke="#FFFFFF" fill="#FFFFFF" height="42" width="4000"></rect></g></g></g></svg>