<?xml version="1.0" encoding="UTF-8" standalone="no"?><svg xmlns="http://www.w3.org/2000/svg"  data-page="0" height="279.4mm" viewBox="0 0 1381.7600000000002 1788.1599999999999" width="215.90000000000003mm"><g style="font-size:6.25px;"></g><g style="font-size:6.25px;"><g><g><g><line x1="205.59999999999997" x2="1284.1600000000003" y1="117.6" y2="117.6" stroke="#6A6A6A" stroke-width="1.3"></line><line x1="205.59999999999997" x2="1284.1600000000003" y1="107.6" y2="107.6" stroke="#6A6A6A" stroke-width="1.3"></line><line x1="205.59999999999997" x2="1284.1600000000003" y1="97.6" y2="97.6" stroke="#6A6A6A" stroke-width="1.3"></line><line x1="205.59999999999997" x2="1284.1600000000003" y1="87.6" y2="87.6" stroke="#6A6A6A" stroke-width="1.3"></line><line x1="205.59999999999997" x2="1284.1600000000003" y1="77.6" y2="77.6" stroke="#6A6A6A" stroke-width="1.3"></line></g></g><text x="213.59999999999997" y="107.6" fill="#000000" font-size="40" font-family='bravura'></text><g><g><text x="250.09999999999997" y="77.6" fill="#000000" font-size="40" font-family='bravura'></text><rect data-selection-info="accidental-undefined" width="4" height="5" x="248.89999999999998" y="75.1" fill="transparent" class="mn_handle"></rect></g></g><g><g><text x="275.5" y="87.6" fill="#000000" font-size="40" font-family='bravura'></text></g><g><text x="275.5" y="107.6" fill="#000000" font-size="40" font-family='bravura'></text></g></g><g x="328.5" y="97.6" transform="translate(328.5,97.6)"><g><g><text x="0" y="30" fill="#000000" font-size="40" font-family='bravura'></text></g><line x1="12.48" x2="12.48" y1="28.16" y2="-6.84" stroke="#000000" stroke-width="1.6"></line><line x1="-3.2" x2="18.72" y1="30" y2="30" stroke="#000000" stroke-width="2.2"></line></g></g><g><text x="453.13669979159204" y="97.6" fill="#000000" font-size="40" font-family='bravura'></text></g><g><text x="577.7733995831841" y="97.6" fill="#000000" font-size="40" font-family='bravura'></text></g><g><line x1="715.7434327081096" x2="715.7434327081096" y1="77.6" y2="117.6" stroke="#2A2A2A" stroke-width="1.6"></line><line x1="724.7434327081096" x2="724.7434327081096" y1="77.6" y2="117.6" stroke="#2A2A2A" stroke-width="5"></line><rect opacity="1" x="726.3434327081096" y="76.6" stroke="#FFFFFF" fill="#FFFFFF" height="42" width="4000"></rect></g></g></g><g style="font-size:6.25px;"><g><g><g><line x1="205.59999999999997" x2="1284.1600000000003" y1="117.6" y2="117.6" stroke="#6A6A6A" stroke-width="1.3"></line><line x1="205.59999999999997" x2="1284.1600000000003" y1="107.6" y2="107.6" stroke="#6A6A6A" stroke-width="1.3"></line><line x1="205.59999999999997" x2="1284.1600000000003" y1="97.6" y2="97.6" stroke="#6A6A6A" stroke-width="1.3"></line><line x1="205.59999999999997" x2="1284.1600000000003" y1="87.6" y2="87.6" stroke="#6A6A6A" stroke-width="1.3"></line><line x1="205.59999999999997" x2="1284.1600000000003" y1="77.6" y2="77.6" stroke="#6A6A6A" stroke-width="1.3"></line></g></g><text x="213.59999999999997" y="107.6" fill="#000000" font-size="40" font-family='bravura'></text><g><g><text x="250.09999999999997" y="77.6" fill="#000000" font-size="40" font-family='bravura'></text><rect data-selection-info="accidental-undefined" width="4" height="5" x="248.89999999999998" y="75.1" fill="transparent" class="mn_handle"></rect></g></g><g><g><text x="275.5" y="87.6" fill="#000000" font-size="40" font-family='bravura'></text></g><g><text x="275.5" y="107.6" fill="#000000" font-size="40" font-family='bravura'></text></g></g><g x="328.5" y="97.6" transform="translate(328.5,97.6)"><g><g><text x="0" y="20" fill="#000000" font-size="40" font-family='bravura'></text></g><line x1="12.48" x2="12.48" y1="18.16" y2="-16.84" stroke="#000000" stroke-width="1.6"></line></g></g><g><text x="453.13669979159204" y="97.6" fill="#000000" font-size="40" font-family='bravura'></text></g><g><text x="577.7733995831841" y="97.6" fill="#000000" font-size="40" font-family='bravura'></text></g><g><line x1="715.7434327081096" x2="715.7434327081096" y1="77.6" y2="117.6" stroke="#2A2A2A" stroke-width="1.6"></line><line x1="724.7434327081096" x2="724.7434327081096" y1="77.6" y2="117.6" stroke="#2A2A2A" stroke-width="5"></line><rect opacity="1" x="726.3434327081096" y="76.6" stroke="#FFFFFF" fill="#FFFFFF" height="42" width="4000"></rect></g></g></g><g style="font-size:6.25px;"><g><g><g><line x1="205.59999999999997" x2="1284.1600000000003" y1="117.6" y2="117.6" stroke="#6A6A6A" stroke-width="1.3"></line><line x1="205.59999999999997" x2="1284.1600000000003" y1="107.6" y2="107.6" stroke="#6A6A6A" stroke-width="1.3"></line><line x1="205.59999999999997" x2="1284.1600000000003" y1="97.6" y2="97.6" stroke="#6A6A6A" stroke-width="1.3"></line><line x1="205.59999999999997" x2="1284.1600000000003" y1="87.6" y2="87.6" stroke="#6A6A6A" stroke-width="1.3"></line><line x1="205.59999999999997" x2="1284.1600000000003" y1="77.6" y2="77.6" stroke="#6A6A6A" stroke-width="1.3"></line></g></g><text x="213.59999999999997" y="107.6" fill="#000000" font-size="40" font-family='bravura'></text><g><g><text x="250.09999999999997" y="77.6" fill="#000000" font-size="40" font-family='bravura'></text><rect data-selection-info="accidental-undefined" width="4" height="5" x="248.89999999999998" y="75.1" fill="transparent" class="mn_handle"></rect></g></g><g><g><text x="275.5" y="87.6" fill="#000000" font-size="40" font-family='bravura'></text></g><g><text x="275.5" y="107.6" fill="#000000" font-size="40" font-family='bravura'></text></g></g><g x="328.5" y="97.6" transform="translate(328.5,97.6)"><g><g><text x="0" y="10" fill="#000000" font-size="40" font-family='bravura'></text></g><line x1="12.48" x2="12.48" y1="8.16" y2="-26.84" stroke="#000000" stroke-width="1.6"></line></g></g><g><text x="453.13669979159204" y="97.6" fill="#000000" font-size="40" font-family='bravura'></text></g><g><text x="577.7733995831841" y="97.6" fill="#000000" font-size="40" font-family='bravura'></text></g><g><line x1="715.7434327081096" x2="715.7434327081096" y1="77.6" y2="117.6" stroke="#2A2A2A" stroke-width="1.6"></line><line x1="724.7434327081096" x2="724.7434327081096" y1="77.6" y2="117.6" stroke="#2A2A2A" stroke-width="5"></line><rect opacity="1" x="726.3434327081096" y="76.6" stroke="#FFFFFF" fill="#FFFFFF" height="42" width="4000"></rect></g></g></g><g style="font-size:6.25px;"><g><g><g><line x1="205.59999999999997" x2="1284.1600000000003" y1="117.6" y2="117.6" stroke="#6A6A6A" stroke-width="1.3"></line><line x1="205.59999999999997" x2="1284.1600000000003" y1="107.6" y2="107.6" stroke="#6A6A6A" stroke-width="1.3"></line><line x1="205.59999999999997" x2="1284.1600000000003" y1="97.6" y2="97.6" stroke="#6A6A6A" stroke-width="1.3"></line><line x1="205.59999999999997" x2="1284.1600000000003" y1="87.6" y2="87.6" stroke="#6A6A6A" stroke-width="1.3"></line><line x1="205.59999999999997" x2="1284.1600000000003" y1="77.6" y2="77.6" stroke="#6A6A6A" stroke-width="1.3"></line></g></g><text x="213.59999999999997" y="107.6" fill="#000000" font-size="40" font-family='bravura'></text><g><g><text x="250.09999999999997" y="77.6" fill="#000000" font-size="40" font-family='bravura'></text><rect data-selection-info="accidental-undefined" width="4" height="5" x="248.89999999999998" y="75.1" fill="transparent" class="mn_handle"></rect></g></g><g><g><text x="275.5" y="87.6" fill="#000000" font-size="40" font-family='bravura'></text></g><g><text x="275.5" y="107.6" fill="#000000" font-size="40" font-family='bravura'></text></g></g><g x="328.5" y="97.6" transform="translate(328.5,97.6)"><g><g><text x="0" y="0" fill="#000000" font-size="40" font-family='bravura'></text></g><line x1="0.8" x2="0.8" y1="1.8399999999999999" y2="36.84" stroke="#000000" stroke-width="1.6"></line></g></g><g><text x="453.13669979159204" y="97.6" fill="#000000" font-size="40" font-family='bravura'></text></g><g><text x="577.7733995831841" y="97.6" fill="#000000" font-size="40" font-family='bravura'></text></g><g><line x1="715.7434327081096" x2="715.7434327081096" y1="77.6" y2="117.6" stroke="#2A2A2A" stroke-width="1.6"></line><line x1="724.7434327081096" x2="724.7434327081096" y1="77.6" y2="117.6" stroke="#2A2A2A" stroke-width="5"></line><rect opacity="1" x="726.3434327081096" y="76.6" stroke="#FFFFFF" fill="#FFFFFF" height="42" width="4000"></rect></g></g></g></svg>