<?xml version="1.0" encoding="UTF-8" standalone="no"?><svg xmlns="http://www.w3.org/2000/svg"  data-page="0" height="279.4mm" viewBox="0 0 1381.7600000000002 1788.1599999999999" width="215.90000000000003mm"><g style="font-size:6.25px;"></g><g style="font-size:6.25px;"><g><g><g><line x1="205.6" x2="1284.1600000000003" y1="117.6" y2="117.6" stroke="#6A6A6A" stroke-width="1.3"></line><line x1="205.6" x2="1284.1600000000003" y1="107.6" y2="107.6" stroke="#6A6A6A" stroke-width="1.3"></line><line x1="205.6" x2="1284.1600000000003" y1="97.6" y2="97.6" stroke="#6A6A6A" stroke-width="1.3"></line><line x1="205.6" x2="1284.1600000000003" y1="87.6" y2="87.6" stroke="#6A6A6A" stroke-width="1.3"></line><line x1="205.6" x2="1284.1600000000003" y1="77.6" y2="77.6" stroke="#6A6A6A" stroke-width="1.3"></line></g><g><text x="200.6" y="217.6" fill="#000000" transform="scale(3.5,3.5)translate(-146.85714285714286,-155.42857142857142)" font-size="40" font-family='bravura'></text><line x1="205.6" x2="205.6" y1="77.6" y2="217.6" stroke="black" stroke-width="1.6"></line></g></g><text x="213.6" y="107.6" fill="#000000" font-size="40" font-family='bravura'></text><g><g><text x="250.1" y="77.6" fill="#000000" font-size="40" font-family='bravura'></text><rect data-selection-info="accidental-undefined" width="4" height="5" x="248.9" y="75.1" fill="transparent" class="mn_handle"></rect></g><g><text x="260.1" y="92.6" fill="#000000" font-size="40" font-family='bravura'></text><rect data-selection-info="accidental-undefined" width="4" height="5" x="258.90000000000003" y="90.1" fill="transparent" class="mn_handle"></rect></g></g><g><g><text x="295.9" y="87.6" fill="#000000" font-size="40" font-family='bravura'></text></g><g><text x="295.9" y="107.6" fill="#000000" font-size="40" font-family='bravura'></text></g></g><g><text x="403.9150002767715" y="87.6" fill="#000000" font-size="40" font-family='bravura'></text></g><line x1="520.210000553543" x2="520.210000553543" y1="77.6" y2="117.6" stroke="#2A2A2A" stroke-width="1.6"></line><g x="542.210000553543" y="97.6" transform="translate(542.210000553543,97.6)"><g><g><text x="0" y="15" fill="#000000" font-size="40" font-family='bravura'></text></g><g><text x="-12" y="15" fill="#000000" font-size="40" font-family='bravura'></text><rect data-selection-info="accidental-0" width="4" height="5" x="-13.2" y="12.5" fill="transparent" class="mn_handle"></rect></g></g></g><g><line x1="713.5200011070858" x2="713.5200011070858" y1="77.6" y2="117.6" stroke="#2A2A2A" stroke-width="1.6"></line><line x1="722.5200011070858" x2="722.5200011070858" y1="77.6" y2="117.6" stroke="#2A2A2A" stroke-width="5"></line><rect opacity="1" x="724.1200011070858" y="76.6" stroke="#FFFFFF" fill="#FFFFFF" height="42" width="4000"></rect></g></g></g><g style="font-size:6.25px;"><g><g><g><line x1="205.6" x2="1284.1600000000003" y1="217.6" y2="217.6" stroke="#6A6A6A" stroke-width="1.3"></line><line x1="205.6" x2="1284.1600000000003" y1="207.6" y2="207.6" stroke="#6A6A6A" stroke-width="1.3"></line><line x1="205.6" x2="1284.1600000000003" y1="197.6" y2="197.6" stroke="#6A6A6A" stroke-width="1.3"></line><line x1="205.6" x2="1284.1600000000003" y1="187.6" y2="187.6" stroke="#6A6A6A" stroke-width="1.3"></line><line x1="205.6" x2="1284.1600000000003" y1="177.6" y2="177.6" stroke="#6A6A6A" stroke-width="1.3"></line></g></g><text x="213.6" y="187.6" fill="#000000" font-size="40" font-family='bravura'></text><g></g><g><g><text x="295.9" y="187.6" fill="#000000" font-size="40" font-family='bravura'></text></g><g><text x="295.9" y="207.6" fill="#000000" font-size="40" font-family='bravura'></text></g></g><g x="348.9" y="197.6" transform="translate(348.9,197.6)"><g><g><text x="0" y="10" fill="#000000" font-size="40" font-family='bravura'></text></g></g></g><line x1="520.210000553543" x2="520.210000553543" y1="177.6" y2="217.6" stroke="#2A2A2A" stroke-width="1.6"></line><g><text x="604.7250008303143" y="87.6" fill="#000000" font-size="40" font-family='bravura'></text></g><g><line x1="713.5200011070858" x2="713.5200011070858" y1="177.6" y2="217.6" stroke="#2A2A2A" stroke-width="1.6"></line><line x1="722.5200011070858" x2="722.5200011070858" y1="177.6" y2="217.6" stroke="#2A2A2A" stroke-width="5"></line><rect opacity="1" x="724.1200011070858" y="176.6" stroke="#FFFFFF" fill="#FFFFFF" height="42" width="4000"></rect></g></g></g></svg>