<?xml version="1.0" encoding="UTF-8" standalone="no"?><svg xmlns="http://www.w3.org/2000/svg"  data-page="0" height="279.4mm" viewBox="0 0 1381.7600000000002 1788.1599999999999" width="215.90000000000003mm"><g style="font-size:6.25px;"></g><g style="font-size:6.25px;"><g><g><g><line x1="205.60000000000002" x2="1284.1600000000003" y1="117.6" y2="117.6" stroke="#6A6A6A" stroke-width="1.3"></line><line x1="205.60000000000002" x2="1284.1600000000003" y1="107.6" y2="107.6" stroke="#6A6A6A" stroke-width="1.3"></line><line x1="205.60000000000002" x2="1284.1600000000003" y1="97.6" y2="97.6" stroke="#6A6A6A" stroke-width="1.3"></line><line x1="205.60000000000002" x2="1284.1600000000003" y1="87.6" y2="87.6" stroke="#6A6A6A" stroke-width="1.3"></line><line x1="205.60000000000002" x2="1284.1600000000003" y1="77.6" y2="77.6" stroke="#6A6A6A" stroke-width="1.3"></line></g></g><text x="213.60000000000002" y="107.6" fill="#000000" font-size="40" font-family='bravura'></text><g></g><text x="260.1" y="97.6" fill="#000000" font-size="40" font-family='bravura'></text><g><text x="311.9918140781904" y="87.6" fill="#000000" font-size="40" font-family='bravura'></text></g><line x1="372.16362815638064" x2="372.16362815638064" y1="77.6" y2="117.6" stroke="#2A2A2A" stroke-width="1.6"></line><g><text x="401.55544223457093" y="87.6" fill="#000000" font-size="40" font-family='bravura'></text></g><line x1="443.22725631276126" x2="443.22725631276126" y1="77.6" y2="117.6" stroke="#2A2A2A" stroke-width="1.6"></line><g><text x="471.6190703909516" y="87.6" fill="#000000" font-size="40" font-family='bravura'></text></g><line x1="524.2908844691419" x2="524.2908844691419" y1="77.6" y2="117.6" stroke="#2A2A2A" stroke-width="1.6"></line><g><text x="553.6826985473323" y="87.6" fill="#000000" font-size="40" font-family='bravura'></text></g><line x1="595.3545126255225" x2="595.3545126255225" y1="77.6" y2="117.6" stroke="#2A2A2A" stroke-width="1.6"></line><g><text x="623.7463267037128" y="87.6" fill="#000000" font-size="40" font-family='bravura'></text></g><line x1="676.4181407819032" x2="676.4181407819032" y1="77.6" y2="117.6" stroke="#2A2A2A" stroke-width="1.6"></line><g><text x="704.8099548600934" y="87.6" fill="#000000" font-size="40" font-family='bravura'></text></g><line x1="757.4817689382837" x2="757.4817689382837" y1="77.6" y2="117.6" stroke="#2A2A2A" stroke-width="1.6"></line><g><text x="785.8735830164741" y="87.6" fill="#000000" font-size="40" font-family='bravura'></text></g><line x1="838.5453970946644" x2="838.5453970946644" y1="77.6" y2="117.6" stroke="#2A2A2A" stroke-width="1.6"></line><g><text x="867.9372111728547" y="87.6" fill="#000000" font-size="40" font-family='bravura'></text></g><g><line x1="909.609025251045" x2="909.609025251045" y1="77.6" y2="117.6" stroke="#2A2A2A" stroke-width="1.6"></line><line x1="918.609025251045" x2="918.609025251045" y1="77.6" y2="117.6" stroke="#2A2A2A" stroke-width="5"></line><rect opacity="1" x="920.209025251045" y="76.6" stroke="#FFFFFF" fill="#FFFFFF" height="42" width="4000"></rect></g></g></g></svg>