<?xml version="1.0" encoding="UTF-8" standalone="no"?><svg xmlns="http://www.w3.org/2000/svg"  data-page="0" height="279.4mm" viewBox="0 0 1381.7600000000002 1788.1599999999999" width="215.90000000000003mm"><g style="font-size:6.25px;"></g><g style="font-size:6.25px;"><g><g><g><line x1="205.60000000000005" x2="1284.1600000000005" y1="117.6" y2="117.6" stroke="#6A6A6A" stroke-width="1.3"></line><line x1="205.60000000000005" x2="1284.1600000000005" y1="107.6" y2="107.6" stroke="#6A6A6A" stroke-width="1.3"></line><line x1="205.60000000000005" x2="1284.1600000000005" y1="97.6" y2="97.6" stroke="#6A6A6A" stroke-width="1.3"></line><line x1="205.60000000000005" x2="1284.1600000000005" y1="87.6" y2="87.6" stroke="#6A6A6A" stroke-width="1.3"></line><line x1="205.60000000000005" x2="1284.1600000000005" y1="77.6" y2="77.6" stroke="#6A6A6A" stroke-width="1.3"></line></g></g><text x="213.60000000000005" y="107.6" fill="#000000" font-size="40" font-family='bravura'></text><g></g><text x="260.1000000000001" y="97.6" fill="#000000" font-size="40" font-family='bravura'></text><g><text x="307.4504333399382" y="87.6" fill="#000000" font-size="40" font-family='bravura'></text></g><line x1="363.08086667987624" x2="363.08086667987624" y1="77.6" y2="117.6" stroke="#2A2A2A" stroke-width="1.6"></line><g><text x="387.93130001981433" y="87.6" fill="#000000" font-size="40" font-family='bravura'></text></g><line x1="425.06173335975245" x2="425.06173335975245" y1="77.6" y2="117.6" stroke="#2A2A2A" stroke-width="1.6"></line><g><text x="449.91216669969054" y="87.6" fill="#000000" font-size="40" font-family='bravura'></text></g><line x1="487.0426000396286" x2="487.0426000396286" y1="77.6" y2="117.6" stroke="#2A2A2A" stroke-width="1.6"></line><g><text x="510.89303337956665" y="87.6" fill="#000000" font-size="40" font-family='bravura'></text></g><line x1="559.0234667195048" x2="559.0234667195048" y1="77.6" y2="117.6" stroke="#2A2A2A" stroke-width="1.6"></line><g><text x="582.8739000594429" y="87.6" fill="#000000" font-size="40" font-family='bravura'></text></g><line x1="631.0043333993809" x2="631.0043333993809" y1="77.6" y2="117.6" stroke="#000000" stroke-width="1.6"></line><g><text x="655.854766739319" y="87.6" fill="#000000" font-size="40" font-family='bravura'></text></g><line x1="692.9852000792571" x2="692.9852000792571" y1="77.6" y2="117.6" stroke="#000000" stroke-width="1.6"></line><g><text x="717.8356334191952" y="87.6" fill="#000000" font-size="40" font-family='bravura'></text></g><line x1="754.9660667591332" x2="754.9660667591332" y1="77.6" y2="117.6" stroke="#2A2A2A" stroke-width="1.6"></line><g><text x="778.8165000990713" y="87.6" fill="#000000" font-size="40" font-family='bravura'></text></g><line x1="826.9469334390094" x2="826.9469334390094" y1="77.6" y2="117.6" stroke="#2A2A2A" stroke-width="1.6"></line><g><text x="850.7973667789475" y="87.6" fill="#000000" font-size="40" font-family='bravura'></text></g><line x1="898.9278001188857" x2="898.9278001188857" y1="77.6" y2="117.6" stroke="#2A2A2A" stroke-width="1.6"></line><g><text x="923.7782334588237" y="87.6" fill="#000000" font-size="40" font-family='bravura'></text></g><line x1="960.9086667987617" x2="960.9086667987617" y1="77.6" y2="117.6" stroke="#000000" stroke-width="1.6"></line><g><text x="985.7591001386999" y="87.6" fill="#000000" font-size="40" font-family='bravura'></text></g><line x1="1022.889533478638" x2="1022.889533478638" y1="77.6" y2="117.6" stroke="#2A2A2A" stroke-width="1.6"></line><g><text x="1047.739966818576" y="87.6" fill="#000000" font-size="40" font-family='bravura'></text></g><g><line x1="1084.870400158514" x2="1084.870400158514" y1="77.6" y2="117.6" stroke="#2A2A2A" stroke-width="1.6"></line><line x1="1093.870400158514" x2="1093.870400158514" y1="77.6" y2="117.6" stroke="#2A2A2A" stroke-width="5"></line><rect opacity="1" x="1095.470400158514" y="76.6" stroke="#FFFFFF" fill="#FFFFFF" height="42" width="4000"></rect></g></g></g></svg>