<?xml version="1.0" encoding="UTF-8" standalone="no"?><svg xmlns="http://www.w3.org/2000/svg"  data-page="0" height="279.4mm" viewBox="0 0 1381.7600000000002 1788.1599999999999" width="215.90000000000003mm"><g style="font-size:6.25px;"></g><g style="font-size:6.25px;"><g><g><g><line x1="205.60000000000002" x2="1284.1600000000003" y1="117.6" y2="117.6" stroke="#6A6A6A" stroke-width="1.3"></line><line x1="205.60000000000002" x2="1284.1600000000003" y1="107.6" y2="107.6" stroke="#6A6A6A" stroke-width="1.3"></line><line x1="205.60000000000002" x2="1284.1600000000003" y1="97.6" y2="97.6" stroke="#6A6A6A" stroke-width="1.3"></line><line x1="205.60000000000002" x2="1284.1600000000003" y1="87.6" y2="87.6" stroke="#6A6A6A" stroke-width="1.3"></line><line x1="205.60000000000002" x2="1284.1600000000003" y1="77.6" y2="77.6" stroke="#6A6A6A" stroke-width="1.3"></line></g></g><text x="213.60000000000002" y="107.6" fill="#000000" font-size="40" font-family='bravura'></text><g></g><text x="260.1000000000001" y="97.6" fill="#000000" font-size="40" font-family='bravura'></text><g><text x="309.726488159545" y="87.6" fill="#000000" font-size="40" font-family='bravura'></text></g><line x1="367.6329763190899" x2="367.6329763190899" y1="77.6" y2="117.6" stroke="#2A2A2A" stroke-width="1.6"></line><g><text x="394.75946447863487" y="87.6" fill="#000000" font-size="40" font-family='bravura'></text></g><line x1="434.16595263817976" x2="434.16595263817976" y1="77.6" y2="117.6" stroke="#2A2A2A" stroke-width="1.6"></line><g><text x="461.2924407977247" y="87.6" fill="#000000" font-size="40" font-family='bravura'></text></g><line x1="500.6989289572696" x2="500.6989289572696" y1="77.6" y2="117.6" stroke="#000000" stroke-width="1.6"></line><g><text x="527.8254171168145" y="87.6" fill="#000000" font-size="40" font-family='bravura'></text></g><line x1="567.2319052763594" x2="567.2319052763594" y1="77.6" y2="117.6" stroke="#2A2A2A" stroke-width="1.6"></line><g><text x="594.3583934359043" y="87.6" fill="#000000" font-size="40" font-family='bravura'></text></g><line x1="633.7648815954493" x2="633.7648815954493" y1="77.6" y2="117.6" stroke="#2A2A2A" stroke-width="1.6"></line><g><text x="660.8913697549942" y="87.6" fill="#000000" font-size="40" font-family='bravura'></text></g><line x1="700.2978579145391" x2="700.2978579145391" y1="77.6" y2="117.6" stroke="#2A2A2A" stroke-width="1.6"></line><g><text x="727.424346074084" y="87.6" fill="#000000" font-size="40" font-family='bravura'></text></g><line x1="766.8308342336289" x2="766.8308342336289" y1="77.6" y2="117.6" stroke="#2A2A2A" stroke-width="1.6"></line><g><text x="793.957322393174" y="87.6" fill="#000000" font-size="40" font-family='bravura'></text></g><line x1="833.3638105527189" x2="833.3638105527189" y1="77.6" y2="117.6" stroke="#2A2A2A" stroke-width="1.6"></line><g><text x="859.4902987122638" y="87.6" fill="#000000" font-size="40" font-family='bravura'></text></g><line x1="909.8967868718087" x2="909.8967868718087" y1="77.6" y2="117.6" stroke="#2A2A2A" stroke-width="1.6"></line><g><text x="937.0232750313536" y="87.6" fill="#000000" font-size="40" font-family='bravura'></text></g><g><line x1="976.4297631908985" x2="976.4297631908985" y1="77.6" y2="117.6" stroke="#2A2A2A" stroke-width="1.6"></line><line x1="985.4297631908985" x2="985.4297631908985" y1="77.6" y2="117.6" stroke="#2A2A2A" stroke-width="5"></line><rect opacity="1" x="987.0297631908985" y="76.6" stroke="#FFFFFF" fill="#FFFFFF" height="42" width="4000"></rect></g></g></g></svg>