<?xml version="1.0" encoding="UTF-8" standalone="no"?><svg xmlns="http://www.w3.org/2000/svg"  data-page="0" height="279.4mm" viewBox="0 0 1381.7600000000002 1788.1599999999999" width="215.90000000000003mm"><g style="font-size:6.25px;"></g><g style="font-size:6.25px;"><g><g><g><line x1="205.60000000000002" x2="1284.1600000000003" y1="117.6" y2="117.6" stroke="#6A6A6A" stroke-width="1.3"></line><line x1="205.60000000000002" x2="1284.1600000000003" y1="107.6" y2="107.6" stroke="#6A6A6A" stroke-width="1.3"></line><line x1="205.60000000000002" x2="1284.1600000000003" y1="97.6" y2="97.6" stroke="#6A6A6A" stroke-width="1.3"></line><line x1="205.60000000000002" x2="1284.1600000000003" y1="87.6" y2="87.6" stroke="#6A6A6A" stroke-width="1.3"></line><line x1="205.60000000000002" x2="1284.1600000000003" y1="77.6" y2="77.6" stroke="#6A6A6A" stroke-width="1.3"></line></g></g><text x="213.60000000000002" y="107.6" fill="#000000" font-size="40" font-family='bravura'></text><g></g><text x="260.1000000000001" y="97.6" fill="#000000" font-size="40" font-family='bravura'></text><g><text x="306.86543558334677" y="87.6" fill="#000000" font-size="40" font-family='bravura'></text></g><line x1="361.9108711666935" x2="361.9108711666935" y1="77.6" y2="117.6" stroke="#2A2A2A" stroke-width="1.6"></line><g><text x="385.1763067500402" y="87.6" fill="#000000" font-size="40" font-family='bravura'></text></g><line x1="432.72174233338694" x2="432.72174233338694" y1="77.6" y2="117.6" stroke="#2A2A2A" stroke-width="1.6"></line><g><text x="456.9871779167337" y="87.6" fill="#000000" font-size="40" font-family='bravura'></text></g><line x1="493.5326135000804" x2="493.5326135000804" y1="77.6" y2="117.6" stroke="#2A2A2A" stroke-width="1.6"></line><g><text x="517.7980490834271" y="87.6" fill="#000000" font-size="40" font-family='bravura'></text></g><line x1="554.3434846667739" x2="554.3434846667739" y1="77.6" y2="117.6" stroke="#2A2A2A" stroke-width="1.6"></line><g><text x="578.6089202501206" y="87.6" fill="#000000" font-size="40" font-family='bravura'></text></g><line x1="615.1543558334673" x2="615.1543558334673" y1="77.6" y2="117.6" stroke="#2A2A2A" stroke-width="1.6"></line><g><text x="639.4197914168141" y="87.6" fill="#000000" font-size="40" font-family='bravura'></text></g><line x1="675.9652270001607" x2="675.9652270001607" y1="77.6" y2="117.6" stroke="#2A2A2A" stroke-width="1.6"></line><g><text x="700.2306625835074" y="87.6" fill="#000000" font-size="40" font-family='bravura'></text></g><line x1="736.7760981668541" x2="736.7760981668541" y1="77.6" y2="117.6" stroke="#2A2A2A" stroke-width="1.6"></line><g><text x="761.0415337502009" y="87.6" fill="#000000" font-size="40" font-family='bravura'></text></g><line x1="797.5869693335476" x2="797.5869693335476" y1="77.6" y2="117.6" stroke="#2A2A2A" stroke-width="1.6"></line><g><text x="821.8524049168943" y="87.6" fill="#000000" font-size="40" font-family='bravura'></text></g><line x1="858.397840500241" x2="858.397840500241" y1="77.6" y2="117.6" stroke="#2A2A2A" stroke-width="1.6"></line><g><text x="882.6632760835878" y="87.6" fill="#000000" font-size="40" font-family='bravura'></text></g><line x1="919.2087116669345" x2="919.2087116669345" y1="77.6" y2="117.6" stroke="#2A2A2A" stroke-width="1.6"></line><g><text x="943.4741472502812" y="87.6" fill="#000000" font-size="40" font-family='bravura'></text></g><line x1="980.019582833628" x2="980.019582833628" y1="77.6" y2="117.6" stroke="#2A2A2A" stroke-width="1.6"></line><g><text x="1004.2850184169747" y="87.6" fill="#000000" font-size="40" font-family='bravura'></text></g><line x1="1040.8304540003214" x2="1040.8304540003214" y1="77.6" y2="117.6" stroke="#2A2A2A" stroke-width="1.6"></line><g><text x="1065.095889583668" y="87.6" fill="#000000" font-size="40" font-family='bravura'></text></g><g><line x1="1101.6413251670147" x2="1101.6413251670147" y1="77.6" y2="117.6" stroke="#2A2A2A" stroke-width="1.6"></line><line x1="1110.6413251670147" x2="1110.6413251670147" y1="77.6" y2="117.6" stroke="#2A2A2A" stroke-width="5"></line><rect opacity="1" x="1112.2413251670146" y="76.6" stroke="#FFFFFF" fill="#FFFFFF" height="42" width="4000"></rect></g></g></g></svg>