<?xml version="1.0" encoding="UTF-8" standalone="no"?><svg xmlns="http://www.w3.org/2000/svg"  data-page="0" height="279.4mm" viewBox="0 0 1381.7600000000002 1788.1599999999999" width="215.90000000000003mm"><g style="font-size:6.25px;"></g><g style="font-size:6.25px;"><g><g><g><line x1="205.6" x2="1284.1600000000003" y1="132.6" y2="132.6" stroke="#6A6A6A" stroke-width="1.3"></line><line x1="205.6" x2="1284.1600000000003" y1="122.6" y2="122.6" stroke="#6A6A6A" stroke-width="1.3"></line><line x1="205.6" x2="1284.1600000000003" y1="112.6" y2="112.6" stroke="#6A6A6A" stroke-width="1.3"></line><line x1="205.6" x2="1284.1600000000003" y1="102.6" y2="102.6" stroke="#6A6A6A" stroke-width="1.3"></line><line x1="205.6" x2="1284.1600000000003" y1="92.6" y2="92.6" stroke="#6A6A6A" stroke-width="1.3"></line></g></g><text x="213.6" y="122.6" fill="#000000" font-size="40" font-family='bravura'></text><g></g><text x="260.1" y="112.6" fill="#000000" font-size="40" font-family='bravura'></text><g><text x="323.43418435066695" y="102.6" fill="#000000" font-size="40" font-family='bravura'></text></g><line x1="395.04836870133386" x2="395.04836870133386" y1="92.6" y2="132.6" stroke="#2A2A2A" stroke-width="1.6"></line><g x="407.04836870133386" y="112.6" transform="translate(407.04836870133386,112.6)"><g><g><text x="0" y="-5" fill="#000000" font-size="40" font-family='bravura'></text></g><line x1="0.8" x2="0.8" y1="-3.16" y2="31.84" stroke="#000000" stroke-width="1.6"></line></g></g><g x="462.33007073600095" y="112.6" transform="translate(462.33007073600095,112.6)"><g><g><text x="0" y="-5" fill="#000000" font-size="40" font-family='bravura'></text></g><line x1="0.8" x2="0.8" y1="-3.16" y2="31.84" stroke="#000000" stroke-width="1.6"></line><g><text x="-25" y="-5" font-size="40" font-family='bravura'></text><g><text x="-18" y="-5" fill="#000000" font-size="40" font-family='bravura'></text><rect data-selection-info="accidental-0" width="4" height="5" x="-19.2" y="-7.5" fill="transparent" class="mn_handle"></rect></g><text x="-11.28" y="-5" font-size="40" font-family='bravura'></text></g></g></g><line x1="517.6117727706682" x2="517.6117727706682" y1="92.6" y2="132.6" stroke="#2A2A2A" stroke-width="1.6"></line><text x="529.6117727706682" y="122.6" fill="#000000" font-size="40" font-family='bravura'></text><g x="578.6117727706682" y="112.6" transform="translate(578.6117727706682,112.6)"><g><g><text x="0" y="-25" fill="#000000" font-size="40" font-family='bravura'></text></g><line x1="0.8" x2="0.8" y1="-23.16" y2="11.84" stroke="#000000" stroke-width="1.6"></line></g></g><g x="633.8934748053352" y="112.6" transform="translate(633.8934748053352,112.6)"><g><g><text x="0" y="-25" fill="#000000" font-size="40" font-family='bravura'></text></g><line x1="0.8" x2="0.8" y1="-23.16" y2="11.84" stroke="#000000" stroke-width="1.6"></line><g><text x="-25" y="-25" font-size="40" font-family='bravura'></text><g><text x="-18" y="-25" fill="#000000" font-size="40" font-family='bravura'></text><rect data-selection-info="accidental-0" width="4" height="5" x="-19.2" y="-27.5" fill="transparent" class="mn_handle"></rect></g><text x="-11.28" y="-25" font-size="40" font-family='bravura'></text></g></g></g><line x1="689.1751768400025" x2="689.1751768400025" y1="92.6" y2="132.6" stroke="#2A2A2A" stroke-width="1.6"></line><g x="711.1751768400025" y="112.6" transform="translate(711.1751768400025,112.6)"><g><g><text x="0" y="-25" fill="#000000" font-size="40" font-family='bravura'></text></g><line x1="0.8" x2="0.8" y1="-23.16" y2="11.84" stroke="#000000" stroke-width="1.6"></line></g></g><g x="766.4568788746695" y="112.6" transform="translate(766.4568788746695,112.6)"><g><g><text x="0" y="-25" fill="#000000" font-size="40" font-family='bravura'></text></g><line x1="0.8" x2="0.8" y1="-23.16" y2="11.84" stroke="#000000" stroke-width="1.6"></line><g><text x="-25" y="-25" font-size="40" font-family='bravura'></text><g><text x="-18" y="-25" fill="#000000" font-size="40" font-family='bravura'></text><rect data-selection-info="accidental-0" width="4" height="5" x="-19.2" y="-27.5" fill="transparent" class="mn_handle"></rect></g><text x="-11.28" y="-25" font-size="40" font-family='bravura'></text></g></g></g><text x="821.7385809093367" y="122.6" fill="#000000" font-size="40" font-family='bravura'></text><g x="870.7385809093367" y="112.6" transform="translate(870.7385809093367,112.6)"><g><g><text x="0" y="-5" fill="#000000" font-size="40" font-family='bravura'></text></g><line x1="0.8" x2="0.8" y1="-3.16" y2="31.84" stroke="#000000" stroke-width="1.6"></line><g><text x="-25" y="-5" font-size="40" font-family='bravura'></text><g><text x="-18" y="-5" fill="#000000" font-size="40" font-family='bravura'></text><rect data-selection-info="accidental-0" width="4" height="5" x="-19.2" y="-7.5" fill="transparent" class="mn_handle"></rect></g><text x="-11.28" y="-5" font-size="40" font-family='bravura'></text></g></g></g><g x="926.0202829440038" y="112.6" transform="translate(926.0202829440038,112.6)"><g><g><text x="0" y="-5" fill="#000000" font-size="40" font-family='bravura'></text></g><line x1="0.8" x2="0.8" y1="-3.16" y2="31.84" stroke="#000000" stroke-width="1.6"></line><g><text x="-25" y="-5" font-size="40" font-family='bravura'></text><g><text x="-18" y="-5" fill="#000000" font-size="40" font-family='bravura'></text><rect data-selection-info="accidental-0" width="4" height="5" x="-19.2" y="-7.5" fill="transparent" class="mn_handle"></rect></g><text x="-11.28" y="-5" font-size="40" font-family='bravura'></text></g></g></g><g><line x1="981.301984978671" x2="981.301984978671" y1="92.6" y2="132.6" stroke="#2A2A2A" stroke-width="1.6"></line><line x1="990.301984978671" x2="990.301984978671" y1="92.6" y2="132.6" stroke="#2A2A2A" stroke-width="5"></line><rect opacity="1" x="991.9019849786711" y="91.6" stroke="#FFFFFF" fill="#FFFFFF" height="42" width="4000"></rect></g></g></g></svg>