<?xml version="1.0" encoding="UTF-8" standalone="no"?><svg xmlns="http://www.w3.org/2000/svg"  data-page="0" height="279.4mm" viewBox="0 0 1381.7600000000002 1788.1599999999999" width="215.90000000000003mm"><g style="font-size:6.25px;"></g><g style="font-size:6.25px;"><g><g><g><line x1="205.60000000000005" x2="1284.1600000000005" y1="117.6" y2="117.6" stroke="#6A6A6A" stroke-width="1.3"></line><line x1="205.60000000000005" x2="1284.1600000000005" y1="107.6" y2="107.6" stroke="#6A6A6A" stroke-width="1.3"></line><line x1="205.60000000000005" x2="1284.1600000000005" y1="97.6" y2="97.6" stroke="#6A6A6A" stroke-width="1.3"></line><line x1="205.60000000000005" x2="1284.1600000000005" y1="87.6" y2="87.6" stroke="#6A6A6A" stroke-width="1.3"></line><line x1="205.60000000000005" x2="1284.1600000000005" y1="77.6" y2="77.6" stroke="#6A6A6A" stroke-width="1.3"></line></g></g><text x="213.60000000000005" y="107.6" fill="#000000" font-size="40" font-family='bravura'></text><g></g><g><g><text x="260.1000000000001" y="87.6" fill="#000000" font-size="40" font-family='bravura'></text></g><g><text x="260.1000000000001" y="107.6" fill="#000000" font-size="40" font-family='bravura'></text></g></g><g x="313.1000000000001" y="97.6" transform="translate(313.1000000000001,97.6)"><g><g><text x="0" y="5" fill="#000000" font-size="40" font-family='bravura'></text></g><line x1="12.48" x2="12.48" y1="3.16" y2="-31.84" stroke="#000000" stroke-width="1.6"></line></g></g><g x="365.45386426485067" y="97.6" transform="translate(365.45386426485067,97.6)"><g><g><text x="0" y="5" fill="#000000" font-size="40" font-family='bravura'></text></g><line x1="12.48" x2="12.48" y1="3.16" y2="-31.84" stroke="#000000" stroke-width="1.6"></line><g><text x="-25" y="5" font-size="40" font-family='bravura'></text><g><text x="-18" y="5" fill="#000000" font-size="40" font-family='bravura'></text><rect data-selection-info="accidental-0" width="4" height="5" x="-19.2" y="2.5" fill="transparent" class="mn_handle"></rect></g><text x="-11.28" y="5" font-size="40" font-family='bravura'></text></g></g></g><line x1="417.80772852970125" x2="417.80772852970125" y1="77.6" y2="117.6" stroke="#2A2A2A" stroke-width="1.6"></line><g x="439.80772852970125" y="97.6" transform="translate(439.80772852970125,97.6)"><g><g><text x="0" y="5" fill="#000000" font-size="40" font-family='bravura'></text></g><line x1="12.48" x2="12.48" y1="3.16" y2="-31.84" stroke="#000000" stroke-width="1.6"></line></g></g><g x="492.16159279455184" y="97.6" transform="translate(492.16159279455184,97.6)"><g><g><text x="0" y="5" fill="#000000" font-size="40" font-family='bravura'></text></g><line x1="12.48" x2="12.48" y1="3.16" y2="-31.84" stroke="#000000" stroke-width="1.6"></line><g><text x="-25" y="5" font-size="40" font-family='bravura'></text><g><text x="-18" y="5" fill="#000000" font-size="40" font-family='bravura'></text><rect data-selection-info="accidental-0" width="4" height="5" x="-19.2" y="2.5" fill="transparent" class="mn_handle"></rect></g><text x="-11.28" y="5" font-size="40" font-family='bravura'></text></g></g></g><g x="544.5154570594025" y="97.6" transform="translate(544.5154570594025,97.6)"><g><g><text x="0" y="5" fill="#000000" font-size="40" font-family='bravura'></text></g><line x1="12.48" x2="12.48" y1="3.16" y2="-31.84" stroke="#000000" stroke-width="1.6"></line><g><text x="-25" y="5" font-size="40" font-family='bravura'></text><g><text x="-18" y="5" fill="#000000" font-size="40" font-family='bravura'></text><rect data-selection-info="accidental-0" width="4" height="5" x="-19.2" y="2.5" fill="transparent" class="mn_handle"></rect></g><text x="-11.28" y="5" font-size="40" font-family='bravura'></text></g></g></g><g x="596.869321324253" y="97.6" transform="translate(596.869321324253,97.6)"><g><g><text x="0" y="5" fill="#000000" font-size="40" font-family='bravura'></text></g><line x1="12.48" x2="12.48" y1="3.16" y2="-31.84" stroke="#000000" stroke-width="1.6"></line><g><text x="-25" y="5" font-size="40" font-family='bravura'></text><g><text x="-18" y="5" fill="#000000" font-size="40" font-family='bravura'></text><rect data-selection-info="accidental-0" width="4" height="5" x="-19.2" y="2.5" fill="transparent" class="mn_handle"></rect></g><text x="-11.28" y="5" font-size="40" font-family='bravura'></text></g></g></g><line x1="649.2231855891037" x2="649.2231855891037" y1="77.6" y2="117.6" stroke="#2A2A2A" stroke-width="1.6"></line><g x="671.2231855891037" y="97.6" transform="translate(671.2231855891037,97.6)"><g><g><text x="0" y="5" fill="#000000" font-size="40" font-family='bravura'></text></g><line x1="12.48" x2="12.48" y1="3.16" y2="-31.84" stroke="#000000" stroke-width="1.6"></line></g></g><g x="723.5770498539541" y="97.6" transform="translate(723.5770498539541,97.6)"><g><g><text x="0" y="5" fill="#000000" font-size="40" font-family='bravura'></text></g><line x1="12.48" x2="12.48" y1="3.16" y2="-31.84" stroke="#000000" stroke-width="1.6"></line><g><text x="-25" y="5" font-size="40" font-family='bravura'></text><g><text x="-18" y="5" fill="#000000" font-size="40" font-family='bravura'></text><rect data-selection-info="accidental-0" width="4" height="5" x="-19.2" y="2.5" fill="transparent" class="mn_handle"></rect></g><text x="-11.28" y="5" font-size="40" font-family='bravura'></text></g></g></g><line x1="775.9309141188048" x2="775.9309141188048" y1="77.6" y2="117.6" stroke="#2A2A2A" stroke-width="1.6"></line><g x="797.9309141188048" y="97.6" transform="translate(797.9309141188048,97.6)"><g><g><text x="0" y="5" fill="#000000" font-size="40" font-family='bravura'></text></g><line x1="12.48" x2="12.48" y1="3.16" y2="-31.84" stroke="#000000" stroke-width="1.6"></line></g></g><g x="850.2847783836553" y="97.6" transform="translate(850.2847783836553,97.6)"><g><g><text x="0" y="5" fill="#000000" font-size="40" font-family='bravura'></text></g><line x1="12.48" x2="12.48" y1="3.16" y2="-31.84" stroke="#000000" stroke-width="1.6"></line><g><text x="-25" y="5" font-size="40" font-family='bravura'></text><g><text x="-18" y="5" fill="#000000" font-size="40" font-family='bravura'></text><rect data-selection-info="accidental-0" width="4" height="5" x="-19.2" y="2.5" fill="transparent" class="mn_handle"></rect></g><text x="-11.28" y="5" font-size="40" font-family='bravura'></text></g></g></g><g x="902.638642648506" y="97.6" transform="translate(902.638642648506,97.6)"><g><g><text x="0" y="5" fill="#000000" font-size="40" font-family='bravura'></text></g><line x1="12.48" x2="12.48" y1="3.16" y2="-31.84" stroke="#000000" stroke-width="1.6"></line><g><text x="-25" y="5" font-size="40" font-family='bravura'></text><g><text x="-18" y="5" fill="#000000" font-size="40" font-family='bravura'></text><rect data-selection-info="accidental-0" width="4" height="5" x="-19.2" y="2.5" fill="transparent" class="mn_handle"></rect></g><text x="-11.28" y="5" font-size="40" font-family='bravura'></text></g></g></g><g x="954.9925069133565" y="97.6" transform="translate(954.9925069133565,97.6)"><g><g><text x="0" y="5" fill="#000000" font-size="40" font-family='bravura'></text></g><line x1="12.48" x2="12.48" y1="3.16" y2="-31.84" stroke="#000000" stroke-width="1.6"></line><g><text x="-25" y="5" font-size="40" font-family='bravura'></text><g><text x="-18" y="5" fill="#000000" font-size="40" font-family='bravura'></text><rect data-selection-info="accidental-0" width="4" height="5" x="-19.2" y="2.5" fill="transparent" class="mn_handle"></rect></g><text x="-11.28" y="5" font-size="40" font-family='bravura'></text></g></g></g><g><line x1="1007.3463711782072" x2="1007.3463711782072" y1="77.6" y2="117.6" stroke="#2A2A2A" stroke-width="1.6"></line><line x1="1016.3463711782072" x2="1016.3463711782072" y1="77.6" y2="117.6" stroke="#2A2A2A" stroke-width="5"></line><rect opacity="1" x="1017.9463711782072" y="76.6" stroke="#FFFFFF" fill="#FFFFFF" height="42" width="4000"></rect></g></g></g></svg>