<?xml version="1.0" encoding="UTF-8" standalone="no"?><svg xmlns="http://www.w3.org/2000/svg"  data-page="0" height="279.4mm" viewBox="0 0 1381.7600000000002 1788.1599999999999" width="215.90000000000003mm"><g style="font-size:6.25px;"></g><g style="font-size:6.25px;"><g><g><g><line x1="205.59999999999997" x2="1284.1600000000003" y1="117.6" y2="117.6" stroke="#6A6A6A" stroke-width="1.3"></line><line x1="205.59999999999997" x2="1284.1600000000003" y1="107.6" y2="107.6" stroke="#6A6A6A" stroke-width="1.3"></line><line x1="205.59999999999997" x2="1284.1600000000003" y1="97.6" y2="97.6" stroke="#6A6A6A" stroke-width="1.3"></line><line x1="205.59999999999997" x2="1284.1600000000003" y1="87.6" y2="87.6" stroke="#6A6A6A" stroke-width="1.3"></line><line x1="205.59999999999997" x2="1284.1600000000003" y1="77.6" y2="77.6" stroke="#6A6A6A" stroke-width="1.3"></line></g></g><text x="213.59999999999997" y="107.6" fill="#000000" font-size="40" font-family='bravura'></text><g></g><text x="260.09999999999997" y="97.6" fill="#000000" font-size="40" font-family='bravura'></text><g x="313.09999999999997" y="97.6" transform="translate(313.09999999999997,97.6)"><g><g><text x="0" y="10" fill="#000000" font-size="40" font-family='bravura'></text></g><line x1="12.48" x2="12.48" y1="8.16" y2="-26.84" stroke="#000000" stroke-width="1.6"></line><text text-anchor="middle" font-size="22" x="6.640000000000001" y="60">1.Tra</text><text text-anchor="middle" font-size="22" x="6.640000000000001" y="60">2.tra</text><text text-anchor="middle" font-size="22" x="6.640000000000001" y="60">3.TRA</text></g></g><g x="390.38006818190263" y="97.6" transform="translate(390.38006818190263,97.6)"><g><g><text x="0" y="10" fill="#000000" font-size="40" font-family='bravura'></text></g><line x1="12.48" x2="12.48" y1="8.16" y2="-26.84" stroke="#000000" stroke-width="1.6"></line><g><text x="-25" y="10" font-size="40" font-family='bravura'></text><g><text x="-18" y="10" fill="#000000" font-size="40" font-family='bravura'></text><rect data-selection-info="accidental-0" width="4" height="5" x="-19.2" y="7.5" fill="transparent" class="mn_handle"></rect></g><text x="-11.28" y="10" font-size="40" font-family='bravura'></text></g><text text-anchor="middle" font-size="22" x="6.640000000000001" y="60">la</text><text text-anchor="middle" font-size="22" x="6.640000000000001" y="60">la</text><text text-anchor="middle" font-size="22" x="6.640000000000001" y="60">LA</text></g></g><g x="455.94513636380526" y="97.6" transform="translate(455.94513636380526,97.6)"><g><g><text x="0" y="10" fill="#000000" font-size="40" font-family='bravura'></text></g><line x1="12.48" x2="12.48" y1="8.16" y2="-26.84" stroke="#000000" stroke-width="1.6"></line><g><text x="-25" y="10" font-size="40" font-family='bravura'></text><g><text x="-18" y="10" fill="#000000" font-size="40" font-family='bravura'></text><rect data-selection-info="accidental-0" width="4" height="5" x="-19.2" y="7.5" fill="transparent" class="mn_handle"></rect></g><text x="-11.28" y="10" font-size="40" font-family='bravura'></text></g><text text-anchor="middle" font-size="22" x="6.640000000000001" y="60">la,</text><text text-anchor="middle" font-size="22" x="6.640000000000001" y="60">la,</text><text text-anchor="middle" font-size="22" x="6.640000000000001" y="60">LA,</text></g></g><g x="522.6652045457079" y="97.6" transform="translate(522.6652045457079,97.6)"><g><g><text x="0" y="10" fill="#000000" font-size="40" font-family='bravura'></text></g><line x1="12.48" x2="12.48" y1="8.16" y2="-26.84" stroke="#000000" stroke-width="1.6"></line><g><text x="-25" y="10" font-size="40" font-family='bravura'></text><g><text x="-18" y="10" fill="#000000" font-size="40" font-family='bravura'></text><rect data-selection-info="accidental-0" width="4" height="5" x="-19.2" y="7.5" fill="transparent" class="mn_handle"></rect></g><text x="-11.28" y="10" font-size="40" font-family='bravura'></text></g><text text-anchor="middle" font-size="22" x="6.640000000000001" y="60">ja!</text><text text-anchor="middle" font-size="22" x="6.640000000000001" y="60">ja!</text><text text-anchor="middle" font-size="22" x="6.640000000000001" y="60">JA!</text></g></g><line x1="584.1422727276106" x2="584.1422727276106" y1="77.6" y2="117.6" stroke="#2A2A2A" stroke-width="1.6"></line><g x="606.1422727276106" y="97.6" transform="translate(606.1422727276106,97.6)"><g><g><text x="0" y="10" fill="#000000" font-size="40" font-family='bravura'></text></g><line x1="12.48" x2="12.48" y1="8.16" y2="-26.84" stroke="#000000" stroke-width="1.6"></line></g></g><g x="667.6193409095132" y="97.6" transform="translate(667.6193409095132,97.6)"><g><g><text x="0" y="10" fill="#000000" font-size="40" font-family='bravura'></text></g><line x1="12.48" x2="12.48" y1="8.16" y2="-26.84" stroke="#000000" stroke-width="1.6"></line><g><text x="-25" y="10" font-size="40" font-family='bravura'></text><g><text x="-18" y="10" fill="#000000" font-size="40" font-family='bravura'></text><rect data-selection-info="accidental-0" width="4" height="5" x="-19.2" y="7.5" fill="transparent" class="mn_handle"></rect></g><text x="-11.28" y="10" font-size="40" font-family='bravura'></text></g><text text-anchor="middle" font-size="22" x="6.640000000000001" y="60">Tra</text><text text-anchor="middle" font-size="22" x="6.640000000000001" y="60">Tra</text><text text-anchor="middle" font-size="22" x="6.640000000000001" y="60">TRA</text></g></g><g x="729.0964090914158" y="97.6" transform="translate(729.0964090914158,97.6)"><g><g><text x="0" y="10" fill="#000000" font-size="40" font-family='bravura'></text></g><line x1="12.48" x2="12.48" y1="8.16" y2="-26.84" stroke="#000000" stroke-width="1.6"></line><g><text x="-25" y="10" font-size="40" font-family='bravura'></text><g><text x="-18" y="10" fill="#000000" font-size="40" font-family='bravura'></text><rect data-selection-info="accidental-0" width="4" height="5" x="-19.2" y="7.5" fill="transparent" class="mn_handle"></rect></g><text x="-11.28" y="10" font-size="40" font-family='bravura'></text></g></g></g><g x="790.5734772733184" y="97.6" transform="translate(790.5734772733184,97.6)"><g><g><text x="0" y="10" fill="#000000" font-size="40" font-family='bravura'></text></g><line x1="12.48" x2="12.48" y1="8.16" y2="-26.84" stroke="#000000" stroke-width="1.6"></line><g><text x="-25" y="10" font-size="40" font-family='bravura'></text><g><text x="-18" y="10" fill="#000000" font-size="40" font-family='bravura'></text><rect data-selection-info="accidental-0" width="4" height="5" x="-19.2" y="7.5" fill="transparent" class="mn_handle"></rect></g><text x="-11.28" y="10" font-size="40" font-family='bravura'></text></g><text text-anchor="middle" font-size="22" x="6.640000000000001" y="60">ra...</text><text text-anchor="middle" font-size="22" x="6.640000000000001" y="60">ra.</text><text text-anchor="middle" font-size="22" x="6.640000000000001" y="60">RA...</text></g></g><g><line x1="852.050545455221" x2="852.050545455221" y1="77.6" y2="117.6" stroke="#2A2A2A" stroke-width="1.6"></line><line x1="861.050545455221" x2="861.050545455221" y1="77.6" y2="117.6" stroke="#2A2A2A" stroke-width="5"></line><rect opacity="1" x="862.650545455221" y="76.6" stroke="#FFFFFF" fill="#FFFFFF" height="42" width="4000"></rect></g></g></g></svg>