<?xml version="1.0" encoding="UTF-8" standalone="no"?><svg xmlns="http://www.w3.org/2000/svg"  data-page="0" height="279.4mm" viewBox="0 0 1381.7600000000002 1788.1599999999999" width="215.90000000000003mm"><g style="font-size:6.25px;"></g><g style="font-size:6.25px;"><g><g><g><line x1="205.6" x2="1284.1600000000003" y1="122.6" y2="122.6" stroke="#6A6A6A" stroke-width="1.3"></line><line x1="205.6" x2="1284.1600000000003" y1="112.6" y2="112.6" stroke="#6A6A6A" stroke-width="1.3"></line><line x1="205.6" x2="1284.1600000000003" y1="102.6" y2="102.6" stroke="#6A6A6A" stroke-width="1.3"></line><line x1="205.6" x2="1284.1600000000003" y1="92.6" y2="92.6" stroke="#6A6A6A" stroke-width="1.3"></line><line x1="205.6" x2="1284.1600000000003" y1="82.6" y2="82.6" stroke="#6A6A6A" stroke-width="1.3"></line></g></g><text x="213.6" y="112.6" fill="#000000" font-size="40" font-family='bravura'></text><g></g><text x="260.1" y="102.6" fill="#000000" font-size="40" font-family='bravura'></text><g x="313.1" y="102.6" transform="translate(313.1,102.6)"><g><g><text x="0" y="-5" fill="#000000" font-size="40" font-family='bravura'></text></g><line x1="0.8" x2="0.8" y1="-3.16" y2="31.84" stroke="#000000" stroke-width="1.6"></line><text text-anchor="middle" font-size="22" x="6.640000000000001" y="60">Me</text></g></g><g x="375.4087535938238" y="102.6" transform="translate(375.4087535938238,102.6)"><g><g><text x="0" y="5" fill="#000000" font-size="40" font-family='bravura'></text></g><g><text x="0" y="-15" fill="#000000" font-size="40" font-family='bravura'></text></g><line x1="0.8" x2="0.8" y1="-13.16" y2="31.84" stroke="#000000" stroke-width="1.6"></line></g></g><g x="437.7175071876475" y="102.6" transform="translate(437.7175071876475,102.6)"><g><g><text x="0" y="-5" fill="#000000" font-size="40" font-family='bravura'></text></g><line x1="0.8" x2="0.8" y1="-3.16" y2="31.84" stroke="#000000" stroke-width="1.6"></line><g><text x="-25" y="-5" font-size="40" font-family='bravura'></text><g><text x="-18" y="-5" fill="#000000" font-size="40" font-family='bravura'></text><rect data-selection-info="accidental-0" width="4" height="5" x="-19.2" y="-7.5" fill="transparent" class="mn_handle"></rect></g><text x="-11.28" y="-5" font-size="40" font-family='bravura'></text></g></g></g><g x="500.02626078147125" y="102.6" transform="translate(500.02626078147125,102.6)"><g><g><text x="0" y="-5" fill="#000000" font-size="40" font-family='bravura'></text></g><g><text x="0" y="-15" fill="#000000" font-size="40" font-family='bravura'></text></g><line x1="0.8" x2="0.8" y1="-13.16" y2="21.84" stroke="#000000" stroke-width="1.6"></line><g><text x="-25" y="-5" font-size="40" font-family='bravura'></text><g><text x="-18" y="-5" fill="#000000" font-size="40" font-family='bravura'></text><rect data-selection-info="accidental-0" width="4" height="5" x="-19.2" y="-7.5" fill="transparent" class="mn_handle"></rect></g><text x="-11.28" y="-5" font-size="40" font-family='bravura'></text></g><g><text x="-30" y="-15" font-size="40" font-family='bravura'></text><g><text x="-23" y="-15" fill="#000000" font-size="40" font-family='bravura'></text><rect data-selection-info="accidental-1" width="4" height="5" x="-24.2" y="-17.5" fill="transparent" class="mn_handle"></rect></g><text x="-16.28" y="-15" font-size="40" font-family='bravura'></text></g></g></g><line x1="562.335014375295" x2="562.335014375295" y1="82.6" y2="122.6" stroke="#2A2A2A" stroke-width="1.6"></line><g><g><text x="584.335014375295" y="97.6" fill="#000000" font-size="40" font-family='bravura'></text></g><line x1="585.135014375295" x2="585.135014375295" y1="99.44" y2="134.44" stroke="#000000" stroke-width="1.6"></line><path d="M644.8551737698908,87.6C634.1892273964584,70.957544 608.7895496674475,70.957544 598.123608574523,87.6 C608.7895549479555,74.157544 634.1892356943995,74.157544 644.8551737698908,87.6" fill="#000000" stroke-width="1.2" stroke="#000000"></path><text text-anchor="middle" font-size="22" x="590.975014375295" y="162.6">lis</text></g><g x="646.6437679691188" y="102.6" transform="translate(646.6437679691188,102.6)"><g><g><text x="0" y="-5" fill="#000000" font-size="40" font-family='bravura'></text></g><line x1="0.8" x2="0.8" y1="-3.16" y2="31.84" stroke="#000000" stroke-width="1.6"></line><g><text x="-25" y="-5" font-size="40" font-family='bravura'></text><g><text x="-18" y="-5" fill="#000000" font-size="40" font-family='bravura'></text><rect data-selection-info="accidental-0" width="4" height="5" x="-19.2" y="-7.5" fill="transparent" class="mn_handle"></rect></g><text x="-11.28" y="-5" font-size="40" font-family='bravura'></text></g></g></g><g x="708.9525215629426" y="102.6" transform="translate(708.9525215629426,102.6)"><g><g><text x="0" y="-5" fill="#000000" font-size="40" font-family='bravura'></text></g><line x1="0.8" x2="0.8" y1="-3.16" y2="31.84" stroke="#000000" stroke-width="1.6"></line><g><text x="-25" y="-5" font-size="40" font-family='bravura'></text><g><text x="-18" y="-5" fill="#000000" font-size="40" font-family='bravura'></text><rect data-selection-info="accidental-0" width="4" height="5" x="-19.2" y="-7.5" fill="transparent" class="mn_handle"></rect></g><text x="-11.28" y="-5" font-size="40" font-family='bravura'></text></g><text text-anchor="middle" font-size="22" x="6.640000000000001" y="60">ma.</text></g></g><g x="771.2612751567663" y="102.6" transform="translate(771.2612751567663,102.6)"><g><g><text x="0" y="-15" fill="#000000" font-size="40" font-family='bravura'></text></g><line x1="0.8" x2="0.8" y1="-13.16" y2="21.84" stroke="#000000" stroke-width="1.6"></line></g></g><g><line x1="833.57002875059" x2="833.57002875059" y1="82.6" y2="122.6" stroke="#2A2A2A" stroke-width="1.6"></line><line x1="842.57002875059" x2="842.57002875059" y1="82.6" y2="122.6" stroke="#2A2A2A" stroke-width="5"></line><rect opacity="1" x="844.1700287505901" y="81.6" stroke="#FFFFFF" fill="#FFFFFF" height="42" width="4000"></rect></g></g></g></svg>