<?xml version="1.0" encoding="UTF-8" standalone="no"?><svg xmlns="http://www.w3.org/2000/svg"  data-page="0" height="279.4mm" viewBox="0 0 1381.7600000000002 1788.1599999999999" width="215.90000000000003mm"><g style="font-size:6.25px;"></g><g style="font-size:6.25px;"><g><g><g><line x1="205.6" x2="1284.1600000000003" y1="117.6" y2="117.6" stroke="#6A6A6A" stroke-width="1.3"></line><line x1="205.6" x2="1284.1600000000003" y1="107.6" y2="107.6" stroke="#6A6A6A" stroke-width="1.3"></line><line x1="205.6" x2="1284.1600000000003" y1="97.6" y2="97.6" stroke="#6A6A6A" stroke-width="1.3"></line><line x1="205.6" x2="1284.1600000000003" y1="87.6" y2="87.6" stroke="#6A6A6A" stroke-width="1.3"></line><line x1="205.6" x2="1284.1600000000003" y1="77.6" y2="77.6" stroke="#6A6A6A" stroke-width="1.3"></line></g></g><text x="213.6" y="107.6" fill="#000000" font-size="40" font-family='bravura'></text><g></g><text x="260.1" y="97.6" fill="#000000" font-size="40" font-family='bravura'></text><g x="313.1" y="97.6" transform="translate(313.1,97.6)"><g><g><text x="0" y="20" fill="#000000" font-size="40" font-family='bravura'></text></g><g><text x="0" y="-5" fill="#000000" font-size="40" font-family='bravura'></text></g><line x1="12.48" x2="12.48" y1="18.16" y2="-31.84" stroke="#000000" stroke-width="1.6"></line><text text-anchor="middle" font-size="22" x="6.640000000000001" y="60">Ly</text></g></g><g x="416.1101392686853" y="97.6" transform="translate(416.1101392686853,97.6)"><g><g><text x="0" y="5" fill="#000000" font-size="40" font-family='bravura'></text></g><g><text x="0" y="-5" fill="#000000" font-size="40" font-family='bravura'></text></g><line x1="12.48" x2="12.48" y1="3.16" y2="-31.84" stroke="#000000" stroke-width="1.6"></line><g><text x="-25" y="-5" font-size="40" font-family='bravura'></text><g><text x="-18" y="-5" fill="#000000" font-size="40" font-family='bravura'></text><rect data-selection-info="accidental-1" width="4" height="5" x="-19.2" y="-7.5" fill="transparent" class="mn_handle"></rect></g><text x="-11.28" y="-5" font-size="40" font-family='bravura'></text></g><text text-anchor="middle" font-size="22" x="6.640000000000001" y="60">rics</text></g></g><g x="520.2972785373705" y="97.6" transform="translate(520.2972785373705,97.6)"><g><g><text x="0" y="20" fill="#000000" font-size="40" font-family='bravura'></text></g><g><text x="0" y="-5" fill="#000000" font-size="40" font-family='bravura'></text></g><line x1="12.48" x2="12.48" y1="18.16" y2="-31.84" stroke="#000000" stroke-width="1.6"></line><g><text x="-25" y="20" font-size="40" font-family='bravura'></text><g><text x="-18" y="20" fill="#000000" font-size="40" font-family='bravura'></text><rect data-selection-info="accidental-0" width="4" height="5" x="-19.2" y="17.5" fill="transparent" class="mn_handle"></rect></g><text x="-11.28" y="20" font-size="40" font-family='bravura'></text></g><g><text x="-30" y="-5" font-size="40" font-family='bravura'></text><g><text x="-23" y="-5" fill="#000000" font-size="40" font-family='bravura'></text><rect data-selection-info="accidental-1" width="4" height="5" x="-24.2" y="-7.5" fill="transparent" class="mn_handle"></rect></g><text x="-16.28" y="-5" font-size="40" font-family='bravura'></text></g><text text-anchor="middle" font-size="22" x="6.640000000000001" y="60">on</text></g></g><g x="638.6414178060558" y="97.6" transform="translate(638.6414178060558,97.6)"><g><g><text x="0" y="5" fill="#000000" font-size="40" font-family='bravura'></text></g><g><text x="0" y="-5" fill="#000000" font-size="40" font-family='bravura'></text></g><line x1="12.48" x2="12.48" y1="3.16" y2="-31.84" stroke="#000000" stroke-width="1.6"></line><g><text x="-25" y="5" font-size="40" font-family='bravura'></text><g><text x="-18" y="5" fill="#000000" font-size="40" font-family='bravura'></text><rect data-selection-info="accidental-0" width="4" height="5" x="-19.2" y="2.5" fill="transparent" class="mn_handle"></rect></g><text x="-11.28" y="5" font-size="40" font-family='bravura'></text></g><g><text x="-30" y="-5" font-size="40" font-family='bravura'></text><g><text x="-23" y="-5" fill="#000000" font-size="40" font-family='bravura'></text><rect data-selection-info="accidental-1" width="4" height="5" x="-24.2" y="-7.5" fill="transparent" class="mn_handle"></rect></g><text x="-16.28" y="-5" font-size="40" font-family='bravura'></text></g><text text-anchor="middle" font-size="22" x="6.640000000000001" y="60">chords</text></g></g><g><line x1="740.325557074741" x2="740.325557074741" y1="77.6" y2="117.6" stroke="#2A2A2A" stroke-width="1.6"></line><line x1="749.325557074741" x2="749.325557074741" y1="77.6" y2="117.6" stroke="#2A2A2A" stroke-width="5"></line><rect opacity="1" x="750.925557074741" y="76.6" stroke="#FFFFFF" fill="#FFFFFF" height="42" width="4000"></rect></g></g></g></svg>